<svg width="17" height="12" viewBox="0 0 17 12" fill="none" xmlns="http://www.w3.org/2000/svg">
<path d="M2.54674 11.1765V11.7051H3.60394V11.1765H2.54674ZM7.83275 11.1765V11.7051H8.88995V11.1765H7.83275ZM3.60394 11.1765V10.6478H2.54674V11.1765H3.60394ZM7.83275 10.6475V11.1765H8.88995V10.6475H7.83275ZM5.71834 8.5335C6.88619 8.5335 7.83275 9.47989 7.83275 10.6475H8.88995C8.88995 8.89583 7.46988 7.4763 5.71834 7.4763V8.5335ZM3.60394 10.6478C3.60394 9.48006 4.55056 8.5335 5.71834 8.5335V7.4763C3.96675 7.4763 2.54674 8.89612 2.54674 10.6478H3.60394ZM5.71834 2.19029C4.55059 2.19029 3.60394 3.13695 3.60394 4.3047H4.66114C4.66114 3.72082 5.13447 3.2475 5.71834 3.2475V2.19029ZM7.83275 4.3047C7.83275 3.13695 6.8861 2.19029 5.71834 2.19029V3.2475C6.30222 3.2475 6.77555 3.72082 6.77555 4.3047H7.83275ZM5.71834 6.4191C6.8861 6.4191 7.83275 5.47245 7.83275 4.3047H6.77555C6.77555 4.88857 6.30222 5.3619 5.71834 5.3619V6.4191ZM5.71834 5.3619C5.13447 5.3619 4.66114 4.88857 4.66114 4.3047H3.60394C3.60394 5.47245 4.55059 6.4191 5.71834 6.4191V5.3619ZM2.01814 1.13309H14.7046V0.0758915H2.01814V1.13309ZM15.2332 1.66169V10.1193H16.2904V1.66169H15.2332ZM14.7046 10.6479H2.01814V11.7051H14.7046V10.6479ZM1.48954 10.1193V1.66169H0.432337V10.1193H1.48954ZM2.01814 10.6479C1.7262 10.6479 1.48954 10.4112 1.48954 10.1193H0.432337C0.432337 10.9951 1.14233 11.7051 2.01814 11.7051V10.6479ZM15.2332 10.1193C15.2332 10.4112 14.9965 10.6479 14.7046 10.6479V11.7051C15.5804 11.7051 16.2904 10.9951 16.2904 10.1193H15.2332ZM14.7046 1.13309C14.9965 1.13309 15.2332 1.36976 15.2332 1.66169H16.2904C16.2904 0.785879 15.5804 0.0758915 14.7046 0.0758915V1.13309ZM2.01814 0.0758915C1.14232 0.0758915 0.432337 0.78588 0.432337 1.66169H1.48954C1.48954 1.36976 1.7262 1.13309 2.01814 1.13309V0.0758915ZM9.94715 4.3047H13.1188V3.2475H9.94715V4.3047ZM9.94715 7.4763H13.1188V6.4191H9.94715V7.4763Z" fill="#0076E1"/>
</svg>
