<svg width="17" height="17" viewBox="0 0 17 17" fill="none" xmlns="http://www.w3.org/2000/svg">
<path d="M1.48828 16.1029H0.959681V16.6315H1.48828V16.1029ZM3.07408 12.9313V13.4599H4.13128V12.9313H3.07408ZM16.8177 3.41644V2.88784H15.7605V3.41644H16.8177ZM0.959681 0.773438V16.1029H2.01688V0.773438H0.959681ZM1.48828 16.6315H16.8177V15.5743H1.48828V16.6315ZM4.13128 12.9313C4.13128 11.3936 4.38901 9.88662 4.87863 8.78498C5.37621 7.66542 6.03228 7.11665 6.77429 7.11665V6.05944C5.4019 6.05944 4.47216 7.09648 3.91254 8.35561C3.34496 9.63268 3.07408 11.2973 3.07408 12.9313H4.13128ZM6.77429 7.11665C7.1134 7.11665 7.45292 7.28327 7.83636 7.63721C8.22351 7.99458 8.59041 8.48094 8.99441 9.01961C9.38331 9.53814 9.80932 10.109 10.2811 10.5445C10.7567 10.9835 11.3422 11.3455 12.0603 11.3455V10.2883C11.7212 10.2883 11.3817 10.1216 10.9982 9.76768C10.6111 9.41031 10.2442 8.92396 9.84017 8.38529C9.45127 7.86676 9.02527 7.29591 8.55344 6.86038C8.07791 6.42143 7.49238 6.05944 6.77429 6.05944V7.11665ZM12.0603 11.3455C13.3534 11.3455 14.558 10.5391 15.4145 9.18294C16.2735 7.82288 16.8177 5.8682 16.8177 3.41644H15.7605C15.7605 5.72209 15.2475 7.46761 14.5207 8.6184C13.7914 9.77312 12.8816 10.2883 12.0603 10.2883V11.3455Z" fill="#0076E1"/>
</svg>
