<svg width="153" height="21" viewBox="0 0 153 21" fill="none" xmlns="http://www.w3.org/2000/svg">
<path d="M49.7659 14.9174C49.7659 16.6829 48.6866 18.2486 44.8957 18.2486C41.1047 18.2486 40.0221 16.6962 40.0221 14.9174V6.56267C40.0221 4.79712 41.1014 3.23145 44.8957 3.23145C48.6899 3.23145 49.7659 4.7838 49.7659 6.56267V7.61866C49.7659 7.91847 49.656 8.04839 49.3695 8.04839H48.0903C47.7838 8.04839 47.6739 7.91847 47.6739 7.61866V6.90578C47.6739 5.74319 46.9011 5.03363 44.9157 5.03363C42.9303 5.03363 42.1807 5.74319 42.1807 6.90578V14.5676C42.1807 15.7302 42.9336 16.4397 44.9157 16.4397C46.8977 16.4397 47.6739 15.7302 47.6739 14.5676V13.5682C47.6739 13.2884 47.7838 13.1585 48.0903 13.1585H49.3695C49.656 13.1585 49.7659 13.2884 49.7659 13.5682V14.9174Z" fill="black"/>
<path d="M52.3477 6.56267C52.3477 4.79712 53.5802 3.23145 57.3445 3.23145C61.1088 3.23145 62.3713 4.7838 62.3713 6.56267V14.9174C62.3713 16.6829 61.1387 18.2486 57.3445 18.2486C53.5502 18.2486 52.3477 16.6962 52.3477 14.9174V6.56267ZM60.2193 6.89579C60.2193 5.73319 59.3366 5.02364 57.3511 5.02364C55.3657 5.02364 54.5063 5.73319 54.5063 6.89579V14.5576C54.5063 15.7202 55.3891 16.4297 57.3511 16.4297C59.3132 16.4297 60.2193 15.7202 60.2193 14.5576V6.89579Z" fill="black"/>
<path d="M67.8911 12.2688V17.632C67.8911 17.9318 67.8011 18.0618 67.4947 18.0618H66.1622C65.8757 18.0618 65.7657 17.9318 65.7657 17.632V3.84745C65.7657 3.54764 65.8757 3.41772 66.1622 3.41772H70.6393C74.4336 3.41772 75.6362 4.96674 75.6362 6.73229V8.9742C75.6362 10.2867 74.9533 11.4726 73.0578 11.989L75.7028 17.632C75.8127 17.8919 75.6128 18.0618 75.3064 18.0618H73.9739C73.6674 18.0618 73.6241 17.8919 73.4908 17.632L70.9991 12.2688H67.8911ZM67.8911 5.20326V10.4799H70.6393C72.6381 10.4799 73.5075 9.79368 73.5075 8.60777V7.0754C73.5075 5.91281 72.6247 5.19992 70.6393 5.19992L67.8911 5.20326Z" fill="black"/>
<path d="M82.0254 11.2994C81.7156 11.2994 81.5823 11.1695 81.5823 10.8896V9.96357C81.5823 9.66376 81.7156 9.55383 82.0254 9.55383H85.1834C85.4899 9.55383 85.6231 9.66376 85.6231 9.96357V10.8896C85.6231 11.1695 85.4899 11.2994 85.1834 11.2994H82.0254ZM80.986 16.2762H87.0289C87.3154 16.2762 87.4453 16.3628 87.4453 16.6627V17.662C87.4453 17.9652 87.3154 18.0718 87.0289 18.0718H79.2438C78.9573 18.0718 78.8474 17.9418 78.8474 17.642V3.84745C78.8474 3.54764 78.9573 3.41772 79.2438 3.41772H86.7857C87.0722 3.41772 87.2054 3.52432 87.2054 3.82746V4.79685C87.2054 5.09666 87.0722 5.20326 86.7857 5.20326H80.986V16.2762Z" fill="black"/>
<path d="M97.5222 6.84228C97.5222 5.67968 96.796 5.01011 94.8572 5.01011C92.9184 5.01011 92.1922 5.67635 92.1922 6.84228V7.272C92.1922 8.27137 92.8585 8.54453 93.3182 8.71442L97.3323 10.2001C98.6648 10.6965 99.7574 11.5326 99.7574 13.1316V14.9172C99.7574 16.6827 98.4982 18.2484 94.8172 18.2484C91.1362 18.2484 89.8571 16.696 89.8571 14.9172V13.6679C89.8571 13.3681 89.9903 13.2382 90.2768 13.2382H91.576C91.8625 13.2382 91.9724 13.3681 91.9724 13.6679V14.6373C91.9724 15.7999 92.8119 16.4695 94.7939 16.4695C96.776 16.4695 97.6388 15.8033 97.6388 14.6373V13.638C97.6388 12.562 96.6394 12.1955 95.7866 11.8724L92.0623 10.4733C91.5064 10.276 91.0224 9.91671 90.6726 9.44169C90.3229 8.96667 90.1235 8.39775 90.1002 7.80833V6.58244C90.1002 4.8169 91.2462 3.25122 94.8406 3.25122C98.4349 3.25122 99.6242 4.80357 99.6242 6.58244V7.52851C99.6242 7.80833 99.5143 7.93825 99.2278 7.93825H97.9253C97.6188 7.93825 97.5289 7.80833 97.5289 7.52851L97.5222 6.84228Z" fill="black"/>
<path d="M110.861 3.41138C111.15 3.41138 111.28 3.51797 111.28 3.82112V4.7905C111.28 5.09031 111.15 5.19691 110.861 5.19691H107.336V17.6257C107.336 17.9255 107.223 18.0554 106.936 18.0554H105.571C105.284 18.0554 105.174 17.9255 105.174 17.6257V5.20357H101.646C101.337 5.20357 101.227 5.09698 101.227 4.79717V3.82778C101.227 3.52464 101.337 3.41804 101.646 3.41804L110.861 3.41138Z" fill="black"/>
<path d="M117.08 3.41135C117.203 3.40272 117.325 3.43971 117.423 3.51527C117.52 3.59083 117.587 3.69968 117.61 3.82109L121.887 17.6456C121.973 17.9055 121.863 18.0554 121.554 18.0554H120.165C120.046 18.0629 119.93 18.0245 119.839 17.9482C119.748 17.8718 119.691 17.7635 119.678 17.6456L118.642 14.3144H113.978L112.979 17.6456C112.966 17.7635 112.909 17.8718 112.818 17.9482C112.728 18.0245 112.611 18.0629 112.493 18.0554H111.214C110.927 18.0554 110.817 17.9055 110.907 17.6456L115.184 3.82109C115.206 3.69935 115.273 3.59006 115.37 3.51437C115.468 3.43868 115.591 3.40197 115.714 3.41135H117.08ZM116.347 6.82252L114.478 12.6288H118.182L116.347 6.82252Z" fill="black"/>
<path d="M133.416 14.9174C133.416 16.6829 132.337 18.2486 128.546 18.2486C124.755 18.2486 123.672 16.6962 123.672 14.9174V6.56267C123.672 4.79712 124.752 3.23145 128.546 3.23145C132.34 3.23145 133.416 4.7838 133.416 6.56267V7.61866C133.416 7.91847 133.306 8.04839 133.02 8.04839H131.741C131.434 8.04839 131.324 7.91847 131.324 7.61866V6.90578C131.324 5.74319 130.551 5.03363 128.566 5.03363C126.581 5.03363 125.834 5.74319 125.834 6.90578V14.5676C125.834 15.7302 126.584 16.4397 128.566 16.4397C130.548 16.4397 131.324 15.7302 131.324 14.5676V13.5682C131.324 13.2884 131.434 13.1585 131.741 13.1585H133.02C133.306 13.1585 133.416 13.2884 133.416 13.5682V14.9174Z" fill="black"/>
<path d="M138.4 17.652C138.4 17.9318 138.29 18.0618 137.98 18.0618H136.647C136.361 18.0618 136.251 17.9318 136.251 17.652V3.82746C136.251 3.54764 136.361 3.41772 136.647 3.41772H137.98C138.29 3.41772 138.4 3.54764 138.4 3.82746V17.652ZM138.4 10.7964L143.593 3.82746C143.669 3.71234 143.77 3.61574 143.888 3.54482C144.006 3.47389 144.139 3.43046 144.276 3.41772H145.732C146.018 3.41772 146.085 3.61093 145.932 3.82746L140.828 10.6331L146.541 17.652C146.694 17.8486 146.628 18.0618 146.341 18.0618H144.592C144.459 18.0546 144.331 18.0131 144.218 17.9413C144.106 17.8695 144.015 17.7698 143.953 17.652L138.4 10.7964Z" fill="black"/>
<path d="M12.6029 10.3203L18.1527 0.746338H28.666C28.8313 0.746554 28.9935 0.790027 29.1367 0.872433C29.2799 0.954839 29.399 1.07331 29.4822 1.21604L34.6622 10.2403C34.6669 10.2485 34.6694 10.2577 34.6694 10.2671C34.6694 10.2765 34.6669 10.2857 34.6621 10.2938C34.6574 10.3019 34.6506 10.3087 34.6424 10.3133C34.6343 10.3179 34.625 10.3203 34.6156 10.3203H12.6029Z" fill="url(#paint0_linear)"/>
<path opacity="0.2" d="M22.6697 10.3203L28.7591 1.35595C28.8078 1.28921 28.837 1.21029 28.8435 1.12795C28.8499 1.04561 28.8334 0.963098 28.7958 0.88958L28.6659 0.746338C28.8279 0.746912 28.9868 0.790755 29.1262 0.873333C29.2656 0.95591 29.3804 1.07423 29.4587 1.21604L34.6621 10.2403C34.6668 10.2485 34.6692 10.2577 34.6692 10.2671C34.6692 10.2765 34.6667 10.2857 34.662 10.2938C34.6572 10.3019 34.6504 10.3087 34.6423 10.3133C34.6341 10.3179 34.6248 10.3203 34.6154 10.3203H22.6697Z" fill="black"/>
<path d="M29.4589 1.19574L34.6856 10.2567C34.6971 10.2758 34.7031 10.2977 34.7031 10.32C34.7031 10.3422 34.6971 10.3641 34.6856 10.3832L28.7061 20.7333H17.6064L28.8693 1.31233C28.9007 1.26339 28.9204 1.20791 28.9269 1.15015C28.9334 1.09239 28.9266 1.03391 28.907 0.979196C28.8874 0.924486 28.8554 0.875014 28.8137 0.834589C28.7719 0.794163 28.7214 0.763863 28.6661 0.746024C28.8265 0.742852 28.9847 0.782939 29.1242 0.862075C29.2637 0.941211 29.3794 1.05647 29.4589 1.19574Z" fill="url(#paint1_linear)"/>
<path d="M22.0867 11.1597L16.5369 20.7336H6.03358C5.86873 20.7338 5.70676 20.6905 5.56403 20.608C5.42131 20.5255 5.30289 20.4068 5.22076 20.2639L0.0173957 11.2396C0.0126969 11.2315 0.0102332 11.2222 0.010254 11.2128C0.0102748 11.2035 0.0127778 11.1942 0.0175126 11.1861C0.0222474 11.178 0.0290451 11.1713 0.0372145 11.1666C0.0453839 11.162 0.0546361 11.1596 0.0640326 11.1597H22.0867Z" fill="url(#paint2_linear)"/>
<path opacity="0.2" d="M12.0498 11.1597L5.92365 20.124C5.87499 20.1907 5.84581 20.2696 5.83934 20.352C5.83287 20.4343 5.84937 20.5168 5.887 20.5904L6.01026 20.7336C5.8486 20.7335 5.68995 20.6898 5.55102 20.6071C5.41209 20.5245 5.298 20.4059 5.22076 20.2639L0.0173957 11.2396C0.0126969 11.2315 0.0102332 11.2222 0.010254 11.2128C0.0102748 11.2035 0.0127778 11.1942 0.0175126 11.1861C0.0222474 11.178 0.0290451 11.1713 0.0372145 11.1666C0.0453839 11.162 0.0546361 11.1596 0.0640326 11.1597H12.0498Z" fill="black"/>
<path d="M5.82048 20.1673C5.78894 20.2156 5.76882 20.2705 5.76164 20.3277C5.75446 20.3849 5.76041 20.443 5.77903 20.4976C5.79766 20.5522 5.82846 20.6018 5.86912 20.6427C5.90978 20.6836 5.95922 20.7147 6.01369 20.7337C5.85577 20.7334 5.70069 20.6918 5.5639 20.6129C5.42712 20.5339 5.31343 20.4205 5.23418 20.2839L0.0174907 11.223C0.00604383 11.2039 0 11.182 0 11.1597C0 11.1374 0.00604383 11.1156 0.0174907 11.0964L5.98371 0.746338H17.0833" fill="url(#paint3_linear)"/>
<path d="M150.219 0C150.599 0.00310275 150.973 0.101608 151.305 0.286485C151.654 0.472221 151.941 0.755893 152.131 1.10263C152.324 1.44057 152.426 1.82276 152.427 2.21193C152.427 2.59655 152.326 2.97433 152.134 3.3079C151.947 3.65423 151.664 3.93889 151.318 4.12738C150.983 4.31746 150.604 4.41738 150.219 4.41738C149.834 4.41738 149.455 4.31746 149.12 4.12738C148.774 3.93818 148.489 3.65378 148.3 3.3079C148.111 2.9735 148.011 2.59607 148.01 2.21193C148.01 1.82253 148.112 1.43991 148.307 1.10263C148.497 0.755893 148.784 0.472221 149.133 0.286485C149.465 0.101608 149.839 0.00310275 150.219 0ZM150.219 0.366434C149.901 0.36826 149.59 0.450796 149.313 0.606282C149.024 0.75816 148.785 0.989305 148.623 1.27253C148.461 1.55423 148.375 1.87343 148.373 2.1986C148.375 2.51912 148.46 2.83373 148.62 3.11136C148.776 3.39094 149.007 3.62163 149.286 3.7776C149.564 3.93907 149.88 4.0241 150.202 4.0241C150.524 4.0241 150.84 3.93907 151.118 3.7776C151.404 3.62412 151.641 3.39321 151.801 3.11136C151.96 2.83347 152.044 2.51884 152.044 2.1986C152.043 1.87391 151.958 1.55506 151.798 1.27253C151.636 0.989305 151.397 0.75816 151.108 0.606282C150.836 0.453892 150.531 0.371473 150.219 0.366434ZM149.249 3.43115V1.056H150.066C150.27 1.04644 150.474 1.06778 150.672 1.11929C150.794 1.16223 150.899 1.24271 150.972 1.34914C151.04 1.44728 151.078 1.56295 151.082 1.68226C151.083 1.76615 151.067 1.84941 151.036 1.92718C151.004 2.00496 150.957 2.07571 150.898 2.13531C150.768 2.268 150.591 2.34551 150.405 2.35184C150.479 2.38131 150.547 2.42423 150.605 2.47843C150.74 2.62238 150.859 2.78106 150.958 2.95146L151.248 3.4145H150.778L150.569 3.0414C150.47 2.8336 150.333 2.64606 150.166 2.48842C150.076 2.42667 149.968 2.3973 149.859 2.40514H149.633V3.40451L149.249 3.43115ZM149.633 2.09867H150.099C150.258 2.11436 150.418 2.07938 150.555 1.99873C150.594 1.9667 150.625 1.9264 150.645 1.88084C150.666 1.83528 150.676 1.78562 150.675 1.73557C150.676 1.66799 150.656 1.60177 150.619 1.54569C150.578 1.4885 150.521 1.44538 150.455 1.42243C150.33 1.38556 150.199 1.3709 150.069 1.37912H149.633V2.09867Z" fill="black"/>
<defs>
<linearGradient id="paint0_linear" x1="12.2864" y1="9.05107" x2="33.0899" y2="3.86436" gradientUnits="userSpaceOnUse">
<stop stop-color="#FC6C3A"/>
<stop offset="1" stop-color="#E33E42"/>
</linearGradient>
<linearGradient id="paint1_linear" x1="29.2191" y1="20.4269" x2="20.388" y2="5.72953" gradientUnits="userSpaceOnUse">
<stop offset="0.01" stop-color="#1970BF"/>
<stop offset="0.19" stop-color="#1B79C4"/>
<stop offset="0.48" stop-color="#1F91D1"/>
<stop offset="0.85" stop-color="#26B9E6"/>
<stop offset="1" stop-color="#29CAEF"/>
</linearGradient>
<linearGradient id="paint2_linear" x1="22.4032" y1="12.4289" x2="1.59972" y2="17.6156" gradientUnits="userSpaceOnUse">
<stop stop-color="#E6147F"/>
<stop offset="0.58" stop-color="#C6186D"/>
<stop offset="1" stop-color="#B41A62"/>
</linearGradient>
<linearGradient id="paint3_linear" x1="7.23759" y1="0.493165" x2="12.9627" y2="18.1164" gradientUnits="userSpaceOnUse">
<stop offset="0.01" stop-color="#1970BF"/>
<stop offset="0.19" stop-color="#1B79C4"/>
<stop offset="0.48" stop-color="#1F91D1"/>
<stop offset="0.85" stop-color="#26B9E6"/>
<stop offset="1" stop-color="#29CAEF"/>
</linearGradient>
</defs>
</svg>
