<svg width="19" height="16" viewBox="0 0 19 16" fill="none" xmlns="http://www.w3.org/2000/svg">
<path d="M16.2207 11.5882C17.3171 11.5882 18.206 10.6994 18.206 9.60294C18.206 8.50653 17.3171 7.61765 16.2207 7.61765C15.9922 7.61765 15.7632 7.67062 15.5589 7.74209C15.5616 7.70106 15.5589 7.66 15.5589 7.61765C15.5589 6.15581 14.3738 4.97059 12.9118 4.97059C12.416 4.97059 11.9437 5.1056 11.547 5.34291C11.5589 5.21585 11.5882 5.10056 11.5882 4.97059C11.5882 2.77776 9.81054 1 7.61765 1C5.42476 1 3.64706 2.77776 3.64706 4.97059C3.64706 5.44124 3.745 5.87535 3.89522 6.29412C3.81343 6.28088 3.7309 6.29412 3.64706 6.29412C2.18513 6.29412 1 7.47934 1 8.94118C1 10.4031 2.18513 11.5882 3.64706 11.5882H16.2207Z" fill="#E6ECFF"/>
<path d="M16.2207 11.5882C17.3171 11.5882 18.206 10.6994 18.206 9.60294C18.206 8.50653 17.3171 7.61765 16.2207 7.61765C15.9922 7.61765 15.7632 7.67062 15.5589 7.74209C15.5616 7.70106 15.5589 7.66 15.5589 7.61765C15.5589 6.15581 14.3738 4.97059 12.9118 4.97059C12.416 4.97059 11.9437 5.1056 11.547 5.34291C11.5589 5.21585 11.5882 5.10056 11.5882 4.97059C11.5882 2.77776 9.81054 1 7.61765 1C5.42476 1 3.64706 2.77776 3.64706 4.97059C3.64706 5.44124 3.745 5.87535 3.89522 6.29412C3.81343 6.28088 3.7309 6.29412 3.64706 6.29412C2.18513 6.29412 1 7.47934 1 8.94118C1 10.4031 2.18513 11.5882 3.64706 11.5882H16.2207Z" stroke="#0076E1" stroke-linecap="round" stroke-linejoin="round"/>
<path d="M11.206 11.2059V11.1764L11.4217 11.2526C11.7422 11.3659 11.9707 11.6716 11.9707 12.0294V14.6765C11.9707 15.1313 11.602 15.5 11.1471 15.5H7.61772C7.1629 15.5 6.79419 15.1313 6.79419 14.6765V12.0294C6.79419 11.6716 7.02263 11.3659 7.34317 11.2526L7.5589 11.1764V11.2059H8.0589H10.706H11.206Z" fill="#E6ECFF" stroke="#0076E1"/>
</svg>
