<svg width="17" height="13" viewBox="0 0 17 13" fill="none" xmlns="http://www.w3.org/2000/svg">
<path d="M14.2692 12.3887C15.2251 12.3887 16 11.6138 16 10.6579C16 9.70208 15.2251 8.92716 14.2692 8.92716C14.0701 8.92716 13.8704 8.97335 13.6923 9.03565C13.6946 8.99988 13.6923 8.96409 13.6923 8.92716C13.6923 7.65275 12.6591 6.61948 11.3846 6.61948C10.9524 6.61948 10.5406 6.73719 10.1947 6.94407C10.2051 6.8333 10.2307 6.73279 10.2307 6.61948C10.2307 4.7078 8.68094 3.15796 6.7692 3.15796C4.85746 3.15796 3.30768 4.7078 3.30768 6.61948C3.30768 7.02979 3.39307 7.40825 3.52403 7.77332C3.45272 7.76178 3.38078 7.77332 3.30768 7.77332C2.03318 7.77332 1 8.80659 1 10.081C1 11.3555 2.03318 12.3887 3.30768 12.3887H14.2692Z" fill="#E6ECFF"/>
<path d="M14.2692 12.3887C15.2251 12.3887 16 11.6138 16 10.6579C16 9.70208 15.2251 8.92716 14.2692 8.92716C14.0701 8.92716 13.8704 8.97335 13.6923 9.03565C13.6946 8.99988 13.6923 8.96409 13.6923 8.92716C13.6923 7.65275 12.6591 6.61948 11.3846 6.61948C10.9524 6.61948 10.5406 6.73719 10.1947 6.94407C10.2051 6.8333 10.2307 6.73279 10.2307 6.61948C10.2307 4.7078 8.68094 3.15796 6.7692 3.15796C4.85746 3.15796 3.30768 4.7078 3.30768 6.61948C3.30768 7.02979 3.39307 7.40825 3.52403 7.77332C3.45272 7.76178 3.38078 7.77332 3.30768 7.77332C2.03318 7.77332 1 8.80659 1 10.081C1 11.3555 2.03318 12.3887 3.30768 12.3887H14.2692Z" stroke="#0076E1" stroke-linecap="round" stroke-linejoin="round"/>
<mask id="path-3-inside-1_2544:46579" fill="white">
<path fill-rule="evenodd" clip-rule="evenodd" d="M15.5791 3.15789C15.5791 1.64638 14.3537 0.421053 12.8422 0.421053V0C14.5863 0 16.0001 1.41384 16.0001 3.15789C16.0001 4.07297 15.6107 4.89719 14.9892 5.47368H16.0001V5.89474H14.3159V4.21053H14.737V5.13282C15.2562 4.63453 15.5791 3.93396 15.5791 3.15789ZM10.6953 0.842105H9.68433V0.421053H11.3685V2.10526H10.9475V1.18297C10.4282 1.68126 10.1054 2.38183 10.1054 3.15789C10.1054 4.66941 11.3307 5.89474 12.8422 5.89474V6.31579C11.0982 6.31579 9.68433 4.90195 9.68433 3.15789C9.68433 2.24282 10.0737 1.4186 10.6953 0.842105Z"/>
</mask>
<path fill-rule="evenodd" clip-rule="evenodd" d="M15.5791 3.15789C15.5791 1.64638 14.3537 0.421053 12.8422 0.421053V0C14.5863 0 16.0001 1.41384 16.0001 3.15789C16.0001 4.07297 15.6107 4.89719 14.9892 5.47368H16.0001V5.89474H14.3159V4.21053H14.737V5.13282C15.2562 4.63453 15.5791 3.93396 15.5791 3.15789ZM10.6953 0.842105H9.68433V0.421053H11.3685V2.10526H10.9475V1.18297C10.4282 1.68126 10.1054 2.38183 10.1054 3.15789C10.1054 4.66941 11.3307 5.89474 12.8422 5.89474V6.31579C11.0982 6.31579 9.68433 4.90195 9.68433 3.15789C9.68433 2.24282 10.0737 1.4186 10.6953 0.842105Z" fill="#E6ECFF"/>
<path d="M12.8422 0.421053H11.8422V1.42105H12.8422V0.421053ZM12.8422 0V-1H11.8422V0H12.8422ZM14.9892 5.47368L14.3091 4.74052L12.4406 6.47368H14.9892V5.47368ZM16.0001 5.47368H17.0001V4.47368H16.0001V5.47368ZM16.0001 5.89474V6.89474H17.0001V5.89474H16.0001ZM14.3159 5.89474H13.3159V6.89474H14.3159V5.89474ZM14.3159 4.21053V3.21053H13.3159V4.21053H14.3159ZM14.737 4.21053H15.737V3.21053H14.737V4.21053ZM14.737 5.13282H13.737V7.47834L15.4293 5.85436L14.737 5.13282ZM9.68433 0.842105H8.68433V1.84211H9.68433V0.842105ZM10.6953 0.842105L11.3753 1.57527L13.2438 -0.157895H10.6953V0.842105ZM9.68433 0.421053V-0.578947H8.68433V0.421053H9.68433ZM11.3685 0.421053H12.3685V-0.578947H11.3685V0.421053ZM11.3685 2.10526V3.10526H12.3685V2.10526H11.3685ZM10.9475 2.10526H9.94748V3.10526H10.9475V2.10526ZM10.9475 1.18297H11.9475V-1.16255L10.2551 0.461433L10.9475 1.18297ZM12.8422 5.89474H13.8422V4.89474H12.8422V5.89474ZM12.8422 6.31579V7.31579H13.8422V6.31579H12.8422ZM12.8422 1.42105C13.8015 1.42105 14.5791 2.19866 14.5791 3.15789H16.5791C16.5791 1.09409 14.906 -0.578947 12.8422 -0.578947V1.42105ZM11.8422 0V0.421053H13.8422V0H11.8422ZM17.0001 3.15789C17.0001 0.861553 15.1386 -1 12.8422 -1V1C14.034 1 15.0001 1.96612 15.0001 3.15789H17.0001ZM15.6692 6.20685C16.4861 5.44912 17.0001 4.36278 17.0001 3.15789H15.0001C15.0001 3.78316 14.7353 4.34525 14.3091 4.74052L15.6692 6.20685ZM16.0001 4.47368H14.9892V6.47368H16.0001V4.47368ZM17.0001 5.89474V5.47368H15.0001V5.89474H17.0001ZM14.737 3.21053H14.3159V5.21053H14.737V3.21053ZM15.737 5.13282V4.21053H13.737V5.13282H15.737ZM14.5791 3.15789C14.5791 3.65061 14.3754 4.09383 14.0446 4.41129L15.4293 5.85436C16.1371 5.17522 16.5791 4.21731 16.5791 3.15789H14.5791ZM9.68433 1.84211H10.6953V-0.157895H9.68433V1.84211ZM8.68433 0.421053V0.842105H10.6843V0.421053H8.68433ZM10.9475 3.10526H11.3685V1.10526H10.9475V3.10526ZM9.94748 1.18297V2.10526H11.9475V1.18297H9.94748ZM11.1054 3.15789C11.1054 2.66518 11.309 2.22196 11.6399 1.9045L10.2551 0.461433C9.54737 1.14057 9.10538 2.09848 9.10538 3.15789H11.1054ZM12.8422 4.89474C11.883 4.89474 11.1054 4.11713 11.1054 3.15789H9.10538C9.10538 5.2217 10.7784 6.89474 12.8422 6.89474V4.89474ZM13.8422 6.31579V5.89474H11.8422V6.31579H13.8422ZM8.68433 3.15789C8.68433 5.45424 10.5459 7.31579 12.8422 7.31579V5.31579C11.6504 5.31579 10.6843 4.34967 10.6843 3.15789H8.68433ZM10.0152 0.108944C9.1983 0.866669 8.68433 1.95301 8.68433 3.15789H10.6843C10.6843 2.53263 10.9492 1.97054 11.3753 1.57527L10.0152 0.108944ZM14.3159 6.89474H16.0001V4.89474H14.3159V6.89474ZM13.3159 4.21053V5.89474H15.3159V4.21053H13.3159ZM11.3685 -0.578947H9.68433V1.42105H11.3685V-0.578947ZM12.3685 2.10526V0.421053H10.3685V2.10526H12.3685Z" fill="#0076E1" mask="url(#path-3-inside-1_2544:46579)"/>
<path d="M11.8031 2.87996L11.6838 2.77652L11.7957 2.58593L11.9596 2.64182L12.1226 2.69739L12.2174 2.62782C12.0401 2.77983 11.9288 3.00668 11.9288 3.25664C11.9288 3.50652 12.0401 3.73332 12.2172 3.88534L12.1226 3.81588L11.9596 3.87143L11.7957 3.92731L11.6838 3.73672L11.8031 3.6333L11.942 3.51291L11.9127 3.33146C11.9073 3.2977 11.9048 3.2746 11.9048 3.25662C11.9048 3.23865 11.9073 3.21556 11.9127 3.18181L11.942 3.00036L11.8031 2.87996ZM12.7432 2.43318C12.6477 2.43318 12.5563 2.44968 12.4717 2.47991L12.5669 2.43712L12.6004 2.27096L12.6337 2.10637H12.853L12.8861 2.27079L12.9196 2.43708L13.0151 2.48C12.9303 2.44971 12.8389 2.43318 12.7432 2.43318ZM13.5576 3.25664C13.5576 3.00656 13.4462 2.77961 13.2689 2.6276L13.3639 2.69738L13.5269 2.64183L13.691 2.5859L13.8027 2.77651L13.6835 2.8799L13.5446 3.00032L13.5739 3.18179C13.5793 3.21509 13.5817 3.23826 13.5817 3.25662C13.5817 3.275 13.5793 3.29817 13.5739 3.33148L13.5446 3.51294L13.6835 3.63336L13.8027 3.73676L13.691 3.92737L13.5269 3.87144L13.3639 3.81587L13.269 3.88556C13.4463 3.73354 13.5576 3.50664 13.5576 3.25664ZM12.7432 4.0801C12.8388 4.0801 12.93 4.06362 13.0147 4.03342L12.9196 4.07616L12.8861 4.24246L12.853 4.40689H12.6337L12.6004 4.24229L12.5669 4.07612L12.472 4.03351C12.5566 4.06365 12.6478 4.0801 12.7432 4.0801ZM12.7826 3.25664C12.7826 3.26984 12.7707 3.29067 12.7432 3.29067C12.7157 3.29067 12.7039 3.26984 12.7039 3.25664C12.7039 3.24345 12.7157 3.22262 12.7432 3.22262C12.7708 3.22262 12.7826 3.24345 12.7826 3.25664Z" fill="#E6ECFF" stroke="#0076E1" stroke-width="0.66" stroke-linecap="square"/>
</svg>
