<svg xmlns="http://www.w3.org/2000/svg" width="17" height="13" viewBox="0 0 17 13">
  <g id="Group_5077" data-name="Group 5077" transform="translate(-6675.5 7224.5)">
    <g id="cost" transform="translate(6675.5 -7224.5)">
      <path id="Path_48986" data-name="Path 48986" d="M2.5.5a2.006,2.006,0,0,0-2,2v8a2.006,2.006,0,0,0,2,2h12a2.006,2.006,0,0,0,2-2v-8a2.006,2.006,0,0,0-2-2Z" fill="#e6ecff" stroke="#0076e1" stroke-width="1"/>
      <path id="Path_48987" data-name="Path 48987" d="M8.3,3.5V3h.5v.5h.7a1.58,1.58,0,0,1,1.6,1.6h-.5A1.2,1.2,0,0,0,9.5,3.9H7.6a1.2,1.2,0,0,0,0,2.4H9.4a1.6,1.6,0,1,1,0,3.2H8.7V10H8.3V9.5H7.6A1.58,1.58,0,0,1,6,7.9h.5A1.2,1.2,0,0,0,7.6,9.1H9.4a1.135,1.135,0,0,0,1.1-1.2A1.135,1.135,0,0,0,9.4,6.7H7.6a1.6,1.6,0,0,1,0-3.2Z" fill="#0076e1" fill-rule="evenodd"/>
    </g>
  </g>
</svg>
