<svg width="15" height="15" viewBox="0 0 15 15" fill="none" xmlns="http://www.w3.org/2000/svg">
<mask id="path-1-inside-1_3399:34623" fill="E6ECFF">
<path d="M1 0H0V14.5C0 14.5 0 14.5 0 14.5V15H0.497812C0.498541 15 0.499271 15 0.500001 15H14.5C14.5007 15 14.5015 15 14.5022 15H15V14.501C15 14.5013 15 14.5007 15 14.501L15 2.5C15 2.28265 14.8596 2.09019 14.6526 2.02386C14.4456 1.95752 14.2195 2.03252 14.0931 2.20939L9.49016 8.65355L6.9 5.2C6.80264 5.07019 6.64833 4.99569 6.48613 5.0002C6.32392 5.0047 6.17399 5.08764 6.08398 5.22265L1 12.8486V0Z"/>
</mask>
<path d="M1 0H0V14.5C0 14.5 0 14.5 0 14.5V15H0.497812C0.498541 15 0.499271 15 0.500001 15H14.5C14.5007 15 14.5015 15 14.5022 15H15V14.501C15 14.5013 15 14.5007 15 14.501L15 2.5C15 2.28265 14.8596 2.09019 14.6526 2.02386C14.4456 1.95752 14.2195 2.03252 14.0931 2.20939L9.49016 8.65355L6.9 5.2C6.80264 5.07019 6.64833 4.99569 6.48613 5.0002C6.32392 5.0047 6.17399 5.08764 6.08398 5.22265L1 12.8486V0Z" fill="#E6ECFF"/>
<path d="M0 0V-1C-0.552285 -1 -1 -0.552285 -1 0L0 0ZM1 0H2C2 -0.552285 1.55228 -1 1 -1V0ZM0 15H-1C-1 15.5523 -0.552285 16 0 16L0 15ZM0.497812 15L0.501734 14H0.497812V15ZM14.5022 15V14L14.4983 14L14.5022 15ZM15 15V16C15.5523 16 16 15.5523 16 15H15ZM15 2.5H16H15ZM14.6526 2.02386L14.9578 1.07156L14.9578 1.07156L14.6526 2.02386ZM14.0931 2.20939L13.2794 1.62815V1.62815L14.0931 2.20939ZM9.49016 8.65355L8.69016 9.25355C8.88147 9.50863 9.18296 9.65719 9.50179 9.65348C9.82062 9.64977 10.1186 9.49425 10.3039 9.23479L9.49016 8.65355ZM6.9 5.2L6.1 5.8L6.1 5.8L6.9 5.2ZM6.48613 5.0002L6.51387 5.99981L6.48613 5.0002ZM6.08398 5.22265L6.91603 5.77735L6.91603 5.77735L6.08398 5.22265ZM1 12.8486H0C0 13.2893 0.288457 13.678 0.710216 13.8057C1.13197 13.9334 1.58761 13.77 1.83205 13.4033L1 12.8486ZM0 1H1V-1H0V1ZM1 14.5V0H-1V14.5H1ZM-1 14.5C-1 14.5 -1 14.5 -1 14.5C-1 14.5 -1 14.5 -1 14.5C-1 14.5 -1 14.5 -1 14.5C0 14.5 1 14.5 1 14.5C1 14.5 1 14.5 1 14.5V14.5C1 14.5 1 14.5 1 14.5C1 14.5 1 14.5 1 14.5V14.5C1 14.5 1 14.5 1 14.5C1 14.5 0 14.5 -1 14.5C-1 14.5 -1 14.5 -1 14.5C-1 14.5 -1 14.5 -1 14.5C-1 14.5 -1 14.5 -1 14.5H1C1 14.5 1 14.5 1 14.5C1 14.5 1 14.5 1 14.5C1 14.5 1 14.5 1 14.5C0 14.5 -1 14.5 -1 14.5C-1 14.5 -1 14.5 -1 14.5V14.5C-1 14.5 -1 14.5 -1 14.5C-1 14.5 -1 14.5 -1 14.5V14.5C-1 14.5 -1 14.5 -1 14.5C-1 14.5 0 14.5 1 14.5C1 14.5 1 14.5 1 14.5C1 14.5 1 14.5 1 14.5C1 14.5 1 14.5 1 14.5H-1ZM1 15V14.5H-1V15H1ZM0.497812 14H0V16H0.497812V14ZM0.49389 16C0.495455 16 0.497565 16 0.500001 16V14C0.500977 14 0.501627 14 0.501734 14L0.49389 16ZM0.500001 16H14.5V14H0.500001V16ZM14.5 16C14.5024 16 14.5045 16 14.5061 16L14.4983 14C14.4984 14 14.499 14 14.5 14V16ZM15 14H14.5022V16H15V14ZM14 14.501V15H16V14.501H14ZM16 14.501C16 14.501 16 14.501 16 14.501C16 14.501 16 14.501 16 14.501C16 14.501 16 14.501 16 14.501C16 14.501 16 14.501 16 14.501C16 14.501 16 14.501 16 14.501C16 14.501 16 14.501 16 14.501C16 14.501 16 14.501 16 14.501V14.501C16 14.501 16 14.501 16 14.501C16 14.501 16 14.501 16 14.501C16 14.501 16 14.501 16 14.501C16 14.501 16 14.501 16 14.501V14.501C16 14.501 16 14.501 16 14.501C16 14.501 16 14.501 16 14.501V14.501C16 14.501 16 14.501 16 14.501C16 14.501 16 14.501 16 14.501V14.501C16 14.501 16 14.501 16 14.501V14.501C16 14.501 16 14.501 16 14.501V14.501C16 14.501 16 14.501 16 14.501V14.501C16 14.5009 16 14.5009 16 14.5009V14.5009C16 14.5009 16 14.5009 16 14.5009V14.5009V14.5009C16 14.5009 16 14.5009 16 14.5009V14.5009C16 14.5009 16 14.5009 16 14.5009C16 14.5009 16 14.5009 16 14.5009C16 14.5009 16 14.5009 16 14.5009V14.5009C16 14.5009 16 14.5009 16 14.5009C16 14.5009 16 14.5009 16 14.5009C16 14.5009 16 14.5009 16 14.5009V14.5009V14.5009V14.5009C16 14.5009 16 14.5009 16 14.5009C16 14.5009 16 14.5009 16 14.5009C16 14.5009 16 14.5009 16 14.5009C16 14.5009 16 14.5009 16 14.5009C16 14.5009 16 14.5009 16 14.5009C16 14.5009 16 14.5009 16 14.5009C16 14.5009 16 14.5009 16 14.5009C16 14.5009 16 14.5009 16 14.5009C16 14.5009 16 14.5009 16 14.5009C16 14.5009 16 14.5009 16 14.5009C16 14.5009 16 14.5009 16 14.5009V14.5009V14.5009C16 14.5009 16 14.5009 16 14.5009C16 14.5009 16 14.5009 16 14.5009C16 14.5009 16 14.5009 16 14.5009V14.5009C16 14.5009 16 14.5009 16 14.5009C16 14.5009 16 14.5009 16 14.5009V14.5009C16 14.5009 16 14.5009 16 14.5009V14.5009C16 14.5009 16 14.5009 16 14.5009V14.5009C16 14.5009 16 14.5009 16 14.5009C16 14.5009 16 14.5009 16 14.5009C16 14.5009 16 14.5009 16 14.5009C16 14.5009 16 14.5009 16 14.5009C16 14.5009 16 14.5009 16 14.5009C16 14.5009 16 14.5009 16 14.5009V14.5009V14.5009C16 14.5009 16 14.5009 16 14.5009C16 14.5009 16 14.5009 16 14.5009V14.5009C15 14.5009 14 14.5009 14 14.5009C14 14.5009 14 14.5009 14 14.5009C14 14.5009 14 14.5009 14 14.5009C14 14.5009 14 14.5009 14 14.5009C14 14.5009 14 14.5009 14 14.5009V14.5009V14.5009C14 14.5009 14 14.5009 14 14.5009C14 14.5009 14 14.5009 14 14.5009C14 14.5009 14 14.5009 14 14.5009V14.5009V14.5009V14.5009V14.5009V14.5009C14 14.5009 14 14.5009 14 14.5009C14 14.5009 14 14.5009 14 14.5009C14 14.5009 14 14.5009 14 14.5009V14.5009C14 14.5009 14 14.5009 14 14.5009C14 14.5009 14 14.5009 14 14.5009V14.5009C14 14.5009 14 14.5009 14 14.5009V14.5009C14 14.5009 14 14.5009 14 14.5009V14.5009C14 14.5009 14 14.5009 14 14.5009C14 14.5009 14 14.5009 14 14.5009V14.5009C14 14.5009 14 14.5009 14 14.5009V14.5009C14 14.5009 14 14.5009 14 14.5009C14 14.5009 14 14.5009 14 14.5009V14.5009C14 14.5009 14 14.5009 14 14.5009C14 14.5009 14 14.5009 14 14.5009C14 14.5009 14 14.5009 14 14.5009V14.5009C14 14.5009 14 14.5009 14 14.5009C14 14.5009 14 14.5009 14 14.5009C14 14.5009 14 14.5009 14 14.5009V14.5009V14.5009C14 14.5009 14 14.5009 14 14.5009C14 14.5009 14 14.5009 14 14.5009C14 14.5009 14 14.5009 14 14.5009C14 14.5009 14 14.5009 14 14.5009V14.5009V14.5009C14 14.5009 14 14.5009 14 14.5009C14 14.5009 14 14.5009 14 14.5009C14 14.5009 14 14.5009 14 14.5009C14 14.5009 14 14.5009 14 14.5009C14 14.5009 14 14.5009 14 14.5009V14.5009V14.5009V14.5009V14.501C14 14.501 14 14.501 14 14.501C14 14.501 14 14.501 14 14.501C14 14.501 14 14.501 14 14.501C14 14.501 14 14.501 14 14.501C14 14.501 14 14.501 14 14.501C14 14.501 14 14.501 14 14.501C14 14.501 14 14.501 14 14.501C14 14.501 14 14.501 14 14.501C14 14.501 14 14.501 14 14.501C14 14.501 14 14.501 14 14.501C14 14.501 14 14.501 14 14.501V14.501V14.501V14.501V14.501V14.501V14.501V14.501V14.501V14.501V14.501V14.501V14.501V14.501V14.501V14.501V14.501V14.501V14.501V14.501V14.501V14.501V14.501V14.501V14.501V14.501V14.501V14.501V14.501V14.501V14.501V14.501V14.501V14.501V14.501V14.501V14.501V14.501V14.501V14.501V14.501V14.501V14.501V14.501V14.501V14.501V14.501V14.501V14.501V14.501V14.501V14.501V14.501V14.501V14.501V14.501V14.501V14.501V14.501V14.501V14.501V14.501V14.501V14.501V14.501C14 14.501 14 14.501 14 14.501C14 14.501 14 14.501 14 14.501C14 14.501 14 14.501 14 14.501C14 14.501 14 14.501 14 14.501C14 14.501 14 14.501 14 14.501C14 14.501 14 14.501 14 14.501C14 14.501 14 14.501 14 14.501C14 14.501 14 14.501 14 14.501C14 14.501 14 14.501 14 14.501C14 14.501 14 14.501 14 14.501C14 14.501 14 14.501 14 14.501V14.501V14.501V14.501V14.501C14 14.501 14 14.501 14 14.501C14 14.501 14 14.501 14 14.501C14 14.501 14 14.501 14 14.501C14 14.501 14 14.501 14 14.501C14 14.501 14 14.501 14 14.501V14.501V14.501C14 14.501 14 14.501 14 14.501C14 14.501 14 14.501 14 14.501C14 14.501 14 14.501 14 14.501C14 14.501 14 14.501 14 14.501V14.501V14.501C14 14.501 14 14.501 14 14.501C14 14.5011 14 14.5011 14 14.5011C14 14.5011 14 14.5011 14 14.5011V14.5011C14 14.5011 14 14.5011 14 14.5011C14 14.5011 14 14.5011 14 14.5011C14 14.5011 14 14.5011 14 14.5011V14.5011C14 14.5011 14 14.5011 14 14.5011C14 14.5011 14 14.5011 14 14.5011V14.5011C14 14.5011 14 14.5011 14 14.5011V14.5011C14 14.5011 14 14.5011 14 14.5011C14 14.5011 14 14.5011 14 14.5011V14.5011C14 14.5011 14 14.5011 14 14.5011V14.5011C14 14.5011 14 14.5011 14 14.5011V14.5011C14 14.5011 14 14.5011 14 14.5011C14 14.5011 14 14.5011 14 14.5011V14.5011C14 14.5011 14 14.5011 14 14.5011C14 14.5011 14 14.5011 14 14.5011C14 14.5011 14 14.5011 14 14.5011V14.5011V14.5011V14.5011V14.5011V14.5011C14 14.5011 14 14.5011 14 14.5011C14 14.5011 14 14.5011 14 14.5011C14 14.5011 14 14.5011 14 14.5011V14.5011V14.5011C14 14.5011 14 14.5011 14 14.5011C14 14.5011 14 14.5011 14 14.5011C14 14.5011 14 14.5011 14 14.5011C14 14.5011 14 14.5011 14 14.5011C14 14.5011 15 14.5011 16 14.5011V14.5011C16 14.5011 16 14.5011 16 14.5011C16 14.5011 16 14.5011 16 14.5011V14.5011V14.5011C16 14.5011 16 14.5011 16 14.5011C16 14.5011 16 14.5011 16 14.5011C16 14.5011 16 14.5011 16 14.5011C16 14.5011 16 14.5011 16 14.5011C16 14.5011 16 14.5011 16 14.5011C16 14.5011 16 14.5011 16 14.5011V14.5011C16 14.5011 16 14.5011 16 14.5011V14.5011C16 14.5011 16 14.5011 16 14.5011V14.5011C16 14.5011 16 14.5011 16 14.5011C16 14.5011 16 14.5011 16 14.5011V14.5011C16 14.5011 16 14.5011 16 14.5011C16 14.5011 16 14.5011 16 14.5011C16 14.5011 16 14.5011 16 14.5011V14.5011V14.5011C16 14.5011 16 14.5011 16 14.5011C16 14.5011 16 14.5011 16 14.5011C16 14.5011 16 14.5011 16 14.5011C16 14.5011 16 14.5011 16 14.5011C16 14.5011 16 14.5011 16 14.5011C16 14.5011 16 14.5011 16 14.5011C16 14.5011 16 14.5011 16 14.5011C16 14.5011 16 14.5011 16 14.5011C16 14.5011 16 14.5011 16 14.5011C16 14.5011 16 14.5011 16 14.5011C16 14.5011 16 14.5011 16 14.5011V14.5011V14.5011V14.5011C16 14.501 16 14.501 16 14.501C16 14.501 16 14.501 16 14.501C16 14.501 16 14.501 16 14.501V14.501C16 14.501 16 14.501 16 14.501C16 14.501 16 14.501 16 14.501C16 14.501 16 14.501 16 14.501V14.501C16 14.501 16 14.501 16 14.501V14.501V14.501C16 14.501 16 14.501 16 14.501V14.501C16 14.501 16 14.501 16 14.501V14.501C16 14.501 16 14.501 16 14.501V14.501C16 14.501 16 14.501 16 14.501V14.501C16 14.501 16 14.501 16 14.501V14.501C16 14.501 16 14.501 16 14.501C16 14.501 16 14.501 16 14.501V14.501C16 14.501 16 14.501 16 14.501C16 14.501 16 14.501 16 14.501V14.501C16 14.501 16 14.501 16 14.501C16 14.501 16 14.501 16 14.501C16 14.501 16 14.501 16 14.501C16 14.501 16 14.501 16 14.501V14.501C16 14.501 16 14.501 16 14.501C16 14.501 16 14.501 16 14.501C16 14.501 16 14.501 16 14.501C16 14.501 16 14.501 16 14.501C16 14.501 16 14.501 16 14.501C16 14.501 16 14.501 16 14.501C16 14.501 16 14.501 16 14.501H14C14 14.501 14 14.501 14 14.501C14 14.501 14 14.501 14 14.501C14 14.501 14 14.501 14 14.501C14 14.501 14 14.501 14 14.501C14 14.501 14 14.501 14 14.501C14 14.501 14 14.501 14 14.501C14 14.501 14 14.501 14 14.501V14.501C14 14.501 14 14.501 14 14.501C14 14.501 14 14.501 14 14.501C14 14.501 14 14.501 14 14.501C14 14.501 14 14.501 14 14.501V14.501C14 14.501 14 14.501 14 14.501C14 14.501 14 14.501 14 14.501V14.501C14 14.501 14 14.501 14 14.501C14 14.501 14 14.501 14 14.501V14.501C14 14.501 14 14.501 14 14.501V14.501C14 14.501 14 14.501 14 14.501V14.501C14 14.501 14 14.501 14 14.501V14.501C14 14.501 14 14.501 14 14.501V14.501C14 14.501 14 14.501 14 14.501V14.501V14.501C14 14.501 14 14.501 14 14.501V14.501C14 14.501 14 14.501 14 14.501C14 14.501 14 14.501 14 14.501C14 14.501 14 14.501 14 14.501V14.501C14 14.501 14 14.501 14 14.501C14 14.501 14 14.501 14 14.501C14 14.501 14 14.501 14 14.5011V14.5011V14.5011V14.5011C14 14.5011 14 14.5011 14 14.5011C14 14.5011 14 14.5011 14 14.5011C14 14.5011 14 14.5011 14 14.5011C14 14.5011 14 14.5011 14 14.5011C14 14.5011 14 14.5011 14 14.5011C14 14.5011 14 14.5011 14 14.5011C14 14.5011 14 14.5011 14 14.5011C14 14.5011 14 14.5011 14 14.5011C14 14.5011 14 14.5011 14 14.5011C14 14.5011 14 14.5011 14 14.5011C14 14.5011 14 14.5011 14 14.5011V14.5011V14.5011C14 14.5011 14 14.5011 14 14.5011C14 14.5011 14 14.5011 14 14.5011C14 14.5011 14 14.5011 14 14.5011V14.5011C14 14.5011 14 14.5011 14 14.5011C14 14.5011 14 14.5011 14 14.5011V14.5011C14 14.5011 14 14.5011 14 14.5011V14.5011C14 14.5011 14 14.5011 14 14.5011V14.5011C14 14.5011 14 14.5011 14 14.5011C14 14.5011 14 14.5011 14 14.5011C14 14.5011 14 14.5011 14 14.5011C14 14.5011 14 14.5011 14 14.5011C14 14.5011 14 14.5011 14 14.5011C14 14.5011 14 14.5011 14 14.5011V14.5011V14.5011C14 14.5011 14 14.5011 14 14.5011C14 14.5011 14 14.5011 14 14.5011V14.5011C15 14.5011 16 14.5011 16 14.5011C16 14.5011 16 14.5011 16 14.5011C16 14.5011 16 14.5011 16 14.5011C16 14.5011 16 14.5011 16 14.5011C16 14.5011 16 14.5011 16 14.5011V14.5011V14.5011C16 14.5011 16 14.5011 16 14.5011C16 14.5011 16 14.5011 16 14.5011C16 14.5011 16 14.5011 16 14.5011V14.5011V14.5011V14.5011V14.5011V14.5011C16 14.5011 16 14.5011 16 14.5011C16 14.5011 16 14.5011 16 14.5011C16 14.5011 16 14.5011 16 14.5011V14.5011C16 14.5011 16 14.5011 16 14.5011C16 14.5011 16 14.5011 16 14.5011V14.5011C16 14.5011 16 14.5011 16 14.5011V14.5011C16 14.5011 16 14.5011 16 14.5011V14.5011C16 14.5011 16 14.5011 16 14.5011C16 14.5011 16 14.5011 16 14.5011V14.5011C16 14.5011 16 14.5011 16 14.5011V14.5011C16 14.5011 16 14.5011 16 14.5011C16 14.5011 16 14.5011 16 14.5011V14.5011C16 14.5011 16 14.5011 16 14.5011C16 14.5011 16 14.5011 16 14.5011C16 14.5011 16 14.5011 16 14.5011V14.5011C16 14.5011 16 14.5011 16 14.5011C16 14.5011 16 14.5011 16 14.501C16 14.501 16 14.501 16 14.501V14.501V14.501C16 14.501 16 14.501 16 14.501C16 14.501 16 14.501 16 14.501C16 14.501 16 14.501 16 14.501C16 14.501 16 14.501 16 14.501V14.501V14.501C16 14.501 16 14.501 16 14.501C16 14.501 16 14.501 16 14.501C16 14.501 16 14.501 16 14.501C16 14.501 16 14.501 16 14.501C16 14.501 16 14.501 16 14.501V14.501V14.501V14.501V14.501C16 14.501 16 14.501 16 14.501C16 14.501 16 14.501 16 14.501C16 14.501 16 14.501 16 14.501C16 14.501 16 14.501 16 14.501C16 14.501 16 14.501 16 14.501C16 14.501 16 14.501 16 14.501C16 14.501 16 14.501 16 14.501C16 14.501 16 14.501 16 14.501C16 14.501 16 14.501 16 14.501C16 14.501 16 14.501 16 14.501C16 14.501 16 14.501 16 14.501V14.501V14.501V14.501V14.501V14.501V14.501V14.501V14.501V14.501V14.501V14.501V14.501V14.501V14.501V14.501V14.501V14.501V14.501V14.501V14.501V14.501V14.501V14.501V14.501V14.501V14.501V14.501V14.501V14.501V14.501V14.501V14.501V14.501V14.501V14.501V14.501V14.501V14.501V14.501V14.501V14.501V14.501V14.501V14.501V14.501V14.501V14.501V14.501V14.501V14.501V14.501V14.501V14.501V14.501V14.501V14.501V14.501V14.501V14.501V14.501V14.501V14.501V14.501V14.501C16 14.501 16 14.501 16 14.501C16 14.501 16 14.501 16 14.501C16 14.501 16 14.501 16 14.501C16 14.501 16 14.501 16 14.501C16 14.501 16 14.501 16 14.501C16 14.501 16 14.501 16 14.501C16 14.501 16 14.501 16 14.501C16 14.501 16 14.501 16 14.501C16 14.501 16 14.501 16 14.501C16 14.501 16 14.501 16 14.501C16 14.501 16 14.501 16 14.501V14.5009V14.5009V14.5009V14.5009C16 14.5009 16 14.5009 16 14.5009C16 14.5009 16 14.5009 16 14.5009C16 14.5009 16 14.5009 16 14.5009C16 14.5009 16 14.5009 16 14.5009C16 14.5009 16 14.5009 16 14.5009V14.5009V14.5009C16 14.5009 16 14.5009 16 14.5009C16 14.5009 16 14.5009 16 14.5009C16 14.5009 16 14.5009 16 14.5009C16 14.5009 16 14.5009 16 14.5009V14.5009V14.5009C16 14.5009 16 14.5009 16 14.5009C16 14.5009 16 14.5009 16 14.5009C16 14.5009 16 14.5009 16 14.5009V14.5009C16 14.5009 16 14.5009 16 14.5009C16 14.5009 16 14.5009 16 14.5009C16 14.5009 16 14.5009 16 14.5009V14.5009C16 14.5009 16 14.5009 16 14.5009C16 14.5009 16 14.5009 16 14.5009V14.5009C16 14.5009 16 14.5009 16 14.5009V14.5009C16 14.5009 16 14.5009 16 14.5009C16 14.5009 16 14.5009 16 14.5009V14.5009C16 14.5009 16 14.5009 16 14.5009V14.5009C16 14.5009 16 14.5009 16 14.5009V14.5009C16 14.5009 16 14.5009 16 14.5009C16 14.5009 16 14.5009 16 14.5009V14.5009C16 14.5009 16 14.5009 16 14.5009C16 14.5009 16 14.5009 16 14.5009C16 14.5009 16 14.5009 16 14.5009V14.5009V14.5009V14.5009V14.5009V14.5009C16 14.5009 16 14.5009 16 14.5009C16 14.5009 16 14.5009 16 14.5009C16 14.5009 16 14.5009 16 14.5009V14.5009V14.5009C16 14.5009 16 14.5009 16 14.5009C16 14.5009 16 14.5009 16 14.5009C16 14.5009 16 14.5009 16 14.5009C16 14.5009 16 14.5009 16 14.5009C16 14.5009 15 14.5009 14 14.5009V14.5009C14 14.5009 14 14.5009 14 14.5009C14 14.5009 14 14.5009 14 14.5009V14.5009V14.5009C14 14.5009 14 14.5009 14 14.5009C14 14.5009 14 14.5009 14 14.5009C14 14.5009 14 14.5009 14 14.5009C14 14.5009 14 14.5009 14 14.5009C14 14.5009 14 14.5009 14 14.5009C14 14.5009 14 14.5009 14 14.5009V14.5009C14 14.5009 14 14.5009 14 14.5009V14.5009C14 14.5009 14 14.5009 14 14.5009V14.5009C14 14.5009 14 14.5009 14 14.5009C14 14.5009 14 14.5009 14 14.5009V14.5009C14 14.5009 14 14.5009 14 14.5009C14 14.5009 14 14.5009 14 14.5009C14 14.5009 14 14.5009 14 14.5009V14.5009V14.5009C14 14.5009 14 14.5009 14 14.5009C14 14.5009 14 14.5009 14 14.5009C14 14.5009 14 14.5009 14 14.5009C14 14.5009 14 14.5009 14 14.5009C14 14.5009 14 14.5009 14 14.5009C14 14.5009 14 14.5009 14 14.5009C14 14.5009 14 14.5009 14 14.5009C14 14.5009 14 14.5009 14 14.5009C14 14.5009 14 14.5009 14 14.5009C14 14.5009 14 14.5009 14 14.5009C14 14.5009 14 14.5009 14 14.5009V14.5009V14.5009V14.5009C14 14.5009 14 14.5009 14 14.5009C14 14.5009 14 14.5009 14 14.5009C14 14.5009 14 14.5009 14 14.5009V14.5009C14 14.5009 14 14.5009 14 14.5009C14 14.5009 14 14.5009 14 14.5009C14 14.5009 14 14.5009 14 14.5009V14.5009C14 14.5009 14 14.5009 14 14.5009V14.5009V14.5009C14 14.5009 14 14.5009 14 14.5009V14.5009C14 14.5009 14 14.5009 14 14.501V14.501C14 14.501 14 14.501 14 14.501V14.501C14 14.501 14 14.501 14 14.501V14.501C14 14.501 14 14.501 14 14.501V14.501C14 14.501 14 14.501 14 14.501C14 14.501 14 14.501 14 14.501V14.501C14 14.501 14 14.501 14 14.501C14 14.501 14 14.501 14 14.501V14.501C14 14.501 14 14.501 14 14.501C14 14.501 14 14.501 14 14.501C14 14.501 14 14.501 14 14.501C14 14.501 14 14.501 14 14.501V14.501C14 14.501 14 14.501 14 14.501C14 14.501 14 14.501 14 14.501C14 14.501 14 14.501 14 14.501C14 14.501 14 14.501 14 14.501C14 14.501 14 14.501 14 14.501C14 14.501 14 14.501 14 14.501C14 14.501 14 14.501 14 14.501H16ZM16 2.5C16 1.84793 15.5787 1.27056 14.9578 1.07156L14.3474 2.97615C14.1404 2.90982 14 2.71736 14 2.5H16ZM14.9578 1.07156C14.3368 0.872564 13.6584 1.09754 13.2794 1.62815L14.9069 2.79062C14.7805 2.96749 14.5544 3.04248 14.3474 2.97615L14.9578 1.07156ZM13.2794 1.62815L8.67643 8.07231L10.3039 9.23479L14.9069 2.79062L13.2794 1.62815ZM10.2902 8.05355L7.7 4.6L6.1 5.8L8.69016 9.25355L10.2902 8.05355ZM7.7 4.60001C7.40792 4.21056 6.945 3.98708 6.45838 4.00058L6.51387 5.99981C6.35167 6.00431 6.19736 5.92982 6.1 5.8L7.7 4.60001ZM6.45838 4.00058C5.97176 4.01409 5.52196 4.2629 5.25192 4.66796L6.91603 5.77735C6.82601 5.91237 6.67608 5.99531 6.51387 5.99981L6.45838 4.00058ZM5.25193 4.66795L0.16795 12.2939L1.83205 13.4033L6.91603 5.77735L5.25193 4.66795ZM0 0V12.8486H2V0H0ZM16 14.501V2.5H14L14 14.501H16Z" fill="#0076E1" mask="url(#path-1-inside-1_3399:34623)"/>
</svg>
