<svg width="13" height="13" viewBox="0 0 13 13" fill="none" xmlns="http://www.w3.org/2000/svg">
<path d="M6.65024 1.78504V1.3523V0.650315C6.65024 0.61045 6.63441 0.572216 6.60622 0.544026C6.57803 0.515836 6.53979 0.5 6.49993 0.5C6.46006 0.5 6.42183 0.515837 6.39364 0.544026C6.36545 0.572215 6.34961 0.610448 6.34961 0.650315V1.3523V1.78511L5.92128 1.84714C4.95837 1.98659 4.07778 2.46782 3.44039 3.20291C2.80311 3.93787 2.45146 4.87753 2.44967 5.85029C2.44967 5.85047 2.44967 5.85065 2.44967 5.85083L1.94967 5.84997L6.65024 1.78504ZM6.65024 1.78504L7.0785 1.84713C8.04137 1.98673 8.9219 2.46801 9.55928 3.20308C10.1966 3.93803 10.5483 4.87765 10.5502 5.8504M6.65024 1.78504L10.5502 5.8504M10.5502 7.6611C10.5496 8.36837 10.7036 9.06721 11.0014 9.70875C11.2991 10.3503 11.7335 10.919 12.274 11.3751C12.3737 11.4595 12.4452 11.5724 12.4787 11.6987C12.5122 11.8251 12.5061 11.9587 12.4612 12.0815C12.4163 12.2043 12.3347 12.3103 12.2276 12.3853C12.1205 12.4601 11.993 12.5004 11.8623 12.5005C11.8623 12.5005 11.8622 12.5005 11.8621 12.5005H1.13751C1.00723 12.5005 0.88009 12.4605 0.77319 12.3861C0.666286 12.3117 0.584755 12.2062 0.539573 12.0841C0.49439 11.9619 0.487724 11.8288 0.520472 11.7027C0.553068 11.5772 0.623155 11.4646 0.721363 11.38L11.0502 7.66149M10.5502 7.6611L11.0502 7.66149M10.5502 7.6611V7.66149H11.0502M10.5502 7.6611L10.5502 5.8509L11.0502 5.84997M11.0502 7.66149V5.84997M11.0502 5.84997H10.5502V5.8504M11.0502 5.84997L10.5502 5.8504" fill="#E6ECFF" stroke="#0076E1"/>
</svg>
