<svg xmlns="http://www.w3.org/2000/svg" xmlns:xlink="http://www.w3.org/1999/xlink" viewBox="0 0 169.2 198.1">
<style type="text/css">
	.st0{fill:#E6ECFF;stroke:#0076E1;stroke-width:12;}
	.st1{fill:#0076E1;}
</style>
<path class="st0" d="M90.2,20.4v2.2l2.1,0.3c12.9,1.9,24.7,8.3,33.2,18.2s13.2,22.4,13.3,35.5v22.6c0,8.3,1.8,16.5,5.3,24
	c3.5,7.5,8.6,14.2,14.9,19.5c1.8,1.5,3.1,3.6,3.8,5.9c0.6,2.3,0.5,4.8-0.3,7c-0.8,2.2-2.3,4.2-4.3,5.6c-2,1.4-4.3,2.1-6.7,2.1h0
	H17.7c-2.4,0-4.7-0.7-6.7-2.1c-2-1.4-3.5-3.3-4.3-5.5c-0.8-2.2-1-4.7-0.4-7c0.6-2.3,1.9-4.4,3.7-5.9c6.3-5.3,11.4-12,14.9-19.5
	c3.5-7.5,5.3-15.7,5.3-24c0,0,0,0,0,0V76.5c0-13,4.7-25.6,13.3-35.5c8.5-9.8,20.3-16.3,33.2-18.2l2.1-0.3v-2.2v-8.8
	c0-1.5,0.6-2.9,1.6-4c1.1-1.1,2.5-1.6,4-1.6c1.5,0,2.9,0.6,4,1.6c1.1,1.1,1.6,2.5,1.6,4V20.4z"/>
<path class="st1" d="M84.6,198.1c7,0,13.8-2.4,19.2-6.9c5.4-4.4,9.2-10.6,10.6-17.5H54.8c1.4,6.9,5.1,13,10.6,17.5
	S77.6,198.1,84.6,198.1L84.6,198.1z"/>
</svg>
