<svg width="15" height="15" viewBox="0 0 15 15" fill="none" xmlns="http://www.w3.org/2000/svg">
<path d="M9.37355 0C8.42849 0.000894386 7.63594 0.515379 7.01345 1.15899C6.57457 0.970672 6.11174 0.834595 5.62651 0.833997C4.29269 0.834714 3.14024 1.60339 2.64023 2.74002C1.4122 3.15174 0.466892 4.17389 0.466892 5.46721C0.466892 7.13515 1.96905 8.43518 3.7507 8.43518H7.03085V9.37355H1.87581C1.81387 9.37319 1.75248 9.38511 1.69517 9.40862C1.63787 9.43213 1.5858 9.46676 1.54196 9.51052C1.49812 9.55427 1.46338 9.60628 1.43976 9.66354C1.41614 9.72079 1.4041 9.78216 1.40434 9.8441V11.3162C0.600976 11.5278 0 12.2577 0 13.1242C0 14.1542 0.845885 14.9991 1.87581 14.9991C2.90573 14.9991 3.7507 14.1542 3.7507 13.1242C3.7507 12.2563 3.14791 11.5256 2.3427 11.3153V10.311H7.03085V11.3153C6.22641 11.5256 5.62651 12.2563 5.62651 13.1242C5.62651 14.1542 6.46782 14.9991 7.49774 14.9991C8.52766 14.9991 9.37355 14.1542 9.37355 13.1242C9.37355 12.2576 8.77177 11.5277 7.96829 11.3162V10.311H12.6574V11.3153C11.852 11.5256 11.2484 12.2563 11.2484 13.1242C11.2484 14.1542 12.0943 14.9991 13.1242 14.9991C14.1542 14.9991 14.9991 14.1542 14.9991 13.1242C14.9991 12.2577 14.3982 11.5278 13.5948 11.3162V9.8441C13.595 9.78224 13.583 9.72094 13.5595 9.66375C13.5359 9.60655 13.5012 9.55458 13.4575 9.51084C13.4138 9.4671 13.3618 9.43245 13.3046 9.40889C13.2474 9.38532 13.1861 9.37331 13.1242 9.37355H7.96829V8.43518H11.2484C13.0301 8.43518 14.5286 7.13515 14.5286 5.46721C14.5286 4.26991 13.6983 3.33338 12.6088 2.86452C12.5374 1.25792 11.1081 2.53237e-06 9.37355 0ZM9.37355 0.937446C10.7016 0.937448 11.719 1.87323 11.719 2.96888C11.7178 3.00355 11.7159 3.03751 11.7126 3.07233C11.7015 3.17968 11.7277 3.28758 11.7869 3.37781C11.8461 3.46804 11.9347 3.53508 12.0376 3.56761C12.9675 3.85662 13.5948 4.5985 13.5948 5.46721C13.5948 6.56912 12.5829 7.49774 11.2484 7.49774H7.57464C7.53229 7.49065 7.48916 7.48942 7.44647 7.49408C7.43943 7.49514 7.43241 7.49636 7.42542 7.49774H3.7507C2.41628 7.49774 1.40434 6.56912 1.40434 5.46721C1.40434 4.56992 2.07519 3.80403 3.05494 3.53923C3.12954 3.51905 3.19801 3.48075 3.25423 3.42772C3.31045 3.37469 3.35269 3.30859 3.37719 3.23529C3.66029 2.39155 4.56368 1.77335 5.62285 1.77144C6.03504 1.77195 6.44186 1.86736 6.79557 2.04517C6.89533 2.09531 7.00971 2.1082 7.11813 2.08152C7.22654 2.05483 7.32188 1.99033 7.38697 1.89961C7.80568 1.31509 8.55506 0.938221 9.37355 0.937446ZM1.86208 12.1868C1.87183 12.1874 1.8816 12.1877 1.89137 12.1877C2.40707 12.1961 2.81325 12.6063 2.81325 13.1242C2.81325 13.6475 2.3991 14.0617 1.87581 14.0617C1.35252 14.0617 0.937446 13.6475 0.937446 13.1242C0.937446 12.6056 1.34542 12.1941 1.86208 12.1868ZM7.48492 12.1868C7.49437 12.1874 7.50383 12.1877 7.5133 12.1877C8.029 12.1961 8.43518 12.6063 8.43518 13.1242C8.43518 13.6475 8.02103 14.0617 7.49774 14.0617C6.97445 14.0617 6.56395 13.6475 6.56395 13.1242C6.56395 12.6053 6.96791 12.1937 7.48492 12.1868ZM13.1114 12.1868C13.1209 12.1874 13.1303 12.1877 13.1398 12.1877C13.6555 12.1961 14.0617 12.6063 14.0617 13.1242C14.0617 13.6475 13.6475 14.0617 13.1242 14.0617C12.601 14.0617 12.1859 13.6475 12.1859 13.1242C12.1859 12.6053 12.5944 12.1937 13.1114 12.1868Z" fill="#0076E1"/>
</svg>
