<svg width="24" height="24" viewBox="0 0 24 24" fill="none" xmlns="http://www.w3.org/2000/svg">
<g clip-path="url(#clip0_865_40985)">
<path d="M16.0128 16.322C18.2861 16.0654 19.4521 14.3005 19.9058 12.9916H21.5727C22.9111 12.9916 24 11.9027 24 10.5642C24 9.22582 22.9111 8.13693 21.5727 8.13693C21.4626 8.13693 21.3527 8.14453 21.2439 8.15948C21.1608 8.06033 21.0708 7.9678 20.976 7.88085C21.0663 7.5341 21.1156 7.17103 21.1156 6.79641C21.1156 4.41419 19.1775 2.47617 16.7953 2.47617C16.3977 2.47617 16.0006 2.532 15.6183 2.64013C14.6163 1.12287 12.901 0.178711 11.0517 0.178711C9.20234 0.178711 7.48703 1.12287 6.48501 2.64013C6.10287 2.532 5.70562 2.47617 5.30804 2.47617C2.92582 2.47617 0.987798 4.41427 0.987798 6.79641C0.987798 9.17855 2.9259 11.1167 5.30804 11.1167H9.61842L9.27733 17.9803H7.51725C6.48137 17.8407 6.00178 17.3579 5.77956 16.9423H6.52541C7.72646 16.9423 8.70368 15.9652 8.70368 14.7642C8.70368 13.5631 7.72646 12.5859 6.52541 12.5859C6.45236 12.5859 6.37939 12.5896 6.30675 12.597C5.81794 12.0471 5.10828 11.7164 4.35184 11.7164C3.59539 11.7164 2.88582 12.047 2.39693 12.597C2.3242 12.5896 2.25123 12.5859 2.17818 12.5859C0.977212 12.5858 0 13.563 0 14.7641C0 15.9651 0.977212 16.9423 2.17826 16.9423H3.92477C4.18376 17.9895 5.10141 19.447 7.35564 19.722C7.39079 19.7263 7.42618 19.7284 7.46149 19.7284H9.19046L9.03265 22.9049C9.02069 23.1439 9.10739 23.3773 9.2724 23.5508C9.43741 23.7241 9.66626 23.8223 9.90562 23.8223H13.2708C13.5101 23.8223 13.7388 23.7242 13.9038 23.5509C14.0688 23.3777 14.1556 23.1443 14.1438 22.9053L13.8213 16.322H16.0128ZM1.74812 14.7641C1.74812 14.5268 1.94101 14.3339 2.17826 14.3339C2.24703 14.3339 2.31273 14.3497 2.37358 14.3809C2.58545 14.4894 2.83265 14.5068 3.05762 14.4291C3.28267 14.3512 3.46634 14.1849 3.5659 13.9686C3.70691 13.6623 4.01552 13.4644 4.35192 13.4644C4.68832 13.4644 4.99677 13.6623 5.13778 13.9685C5.23741 14.1849 5.42093 14.3512 5.64598 14.4291C5.87087 14.5068 6.11806 14.4894 6.3301 14.3809C6.39095 14.3497 6.45657 14.3339 6.52541 14.3339C6.76259 14.3339 6.95556 14.5268 6.95556 14.7641C6.95556 15.0012 6.76267 15.1941 6.52541 15.1941H2.17826C1.94109 15.1941 1.74812 15.0013 1.74812 14.7641ZM2.73592 6.79633C2.73592 5.37806 3.88978 4.22421 5.30804 4.22421C5.71935 4.22421 6.11313 4.31916 6.47838 4.50623C6.69051 4.61491 6.93754 4.63229 7.16259 4.55447C7.38764 4.47665 7.57131 4.31035 7.67087 4.09394C8.27709 2.7775 9.60412 1.92675 11.0516 1.92675C12.4991 1.92675 13.8261 2.77742 14.4324 4.09394C14.532 4.31035 14.7156 4.47657 14.9408 4.55447C15.1657 4.63221 15.413 4.61483 15.6249 4.50623C15.9901 4.31916 16.3838 4.22421 16.7952 4.22421C18.2134 4.22421 19.3673 5.37806 19.3673 6.79633C19.3673 6.9076 19.3598 7.0171 19.3459 7.12465C19.2267 7.10978 19.1059 7.10138 18.9838 7.10138C18.1014 7.10138 17.2758 7.50041 16.7238 8.15948C16.6149 8.14445 16.505 8.13685 16.3949 8.13685C15.4911 8.13685 14.7017 8.63374 14.2839 9.36837H5.30804C3.88978 9.36845 2.73592 8.21451 2.73592 6.79633ZM10.8242 22.0741L11.3606 11.2794H11.8228L12.3528 22.0741H10.8242ZM15.8169 14.5704C15.4291 14.6139 14.4607 14.6031 13.7354 14.5856L13.5651 11.1166H14.0319C14.2827 12.1896 15.2467 12.9916 16.3951 12.9916H18.0051C17.6538 13.6623 16.998 14.4371 15.8169 14.5704ZM21.5727 11.2434H16.3951C16.0206 11.2434 15.7159 10.9388 15.7159 10.5642C15.7159 10.1897 16.0206 9.88505 16.3951 9.88505C16.5037 9.88505 16.6074 9.9101 16.7037 9.95932C16.9158 10.0679 17.1628 10.0855 17.3879 10.0076C17.6129 9.92974 17.7966 9.76336 17.8962 9.54703C18.0913 9.12328 18.5181 8.84958 18.9839 8.84958C19.4495 8.84958 19.8765 9.12336 20.0717 9.54711C20.1713 9.76344 20.355 9.92974 20.58 10.0076C20.8052 10.0854 21.0524 10.068 21.2643 9.95924C21.3603 9.91002 21.4641 9.88505 21.5726 9.88505C21.9472 9.88505 22.2518 10.1897 22.2518 10.5642C22.2519 10.9388 21.9472 11.2434 21.5727 11.2434Z" fill="#0076E1"/>
</g>
<defs>
<clipPath id="clip0_865_40985">
<rect width="24" height="24" fill="white"/>
</clipPath>
</defs>
</svg>
