<svg width="19" height="16" xmlns="http://www.w3.org/2000/svg" xmlns:xlink="http://www.w3.org/1999/xlink" viewBox="0 0 17 17"><path fill="#E6ECFF" stroke="#0076E1" stroke-linejoin="round" d="M15.7,4.4C15.9,4.4,16,4.2,16,4s-0.1-0.4-0.3-0.5L8.9,0.6c-0.3-0.1-0.5-0.1-0.8,0L1.3,3.5C1.1,3.6,1,3.8,1,4  s0.1,0.4,0.3,0.5l7,3c0.1,0.1,0.3,0.1,0.4,0L15.7,4.4z M1.2,4.4C1,4.3,0.9,4.4,0.7,4.5C0.6,4.5,0.5,4.7,0.5,4.9v7.8  c0,0.4,0.2,0.8,0.6,0.9l6.7,2.9c0.2,0.1,0.3,0.1,0.5,0c0.1-0.1,0.2-0.2,0.2-0.4c0,0.2,0.1,0.3,0.2,0.4c0.1,0.1,0.3,0.1,0.5,0  l6.7-2.9c0.4-0.2,0.6-0.5,0.6-0.9V4.9c0-0.2-0.1-0.3-0.2-0.4c-0.1-0.1-0.3-0.1-0.5,0L8.5,7.5c-0.2,0.1,0,8.5,0,8.7  c0-0.2,0.2-8.7,0-8.7L1.2,4.4z M15.8,4.4L8.5,7.5c0,0.6,0,8.5,0,8.7"/></svg>