<svg xmlns="http://www.w3.org/2000/svg" width="18.481" height="16.101" viewBox="0 0 18.481 16.101">
  <g id="Group_5074" data-name="Group 5074" transform="translate(-6720.9 7224.1)">
    <g id="security" transform="translate(6720 -7225)">
      <path id="Path_48989" data-name="Path 48989" d="M15.97,8.131l-.049.754.713-.249a1.67,1.67,0,0,1,.538-.1,1.609,1.609,0,0,1,0,3.219H3.813a2.313,2.313,0,0,1,0-4.625l.091,0h.029l.033,0H4l.834.135-.286-.8a3.618,3.618,0,0,1-.234-1.237,3.719,3.719,0,0,1,7.438,0,.9.9,0,0,1-.012.127l-.005.035c-.008.05-.018.12-.024.187l-.092.982.847-.506a2.322,2.322,0,0,1,3.506,1.988c0,.05,0,.068,0,.078A.155.155,0,0,1,15.97,8.131Z" fill="#e6ecff" stroke="#0076e1" stroke-width="1.2"/>
      <path id="Path_48991" data-name="Path 48991" d="M9.81,8.1a.75.75,0,0,0-.744,0l-3.5,2a.75.75,0,0,0-.378.651v.36a5.576,5.576,0,0,0,4.044,5.361.75.75,0,0,0,.412,0,5.576,5.576,0,0,0,4.044-5.361v-.36a.75.75,0,0,0-.378-.651Z" fill="#e6ecff" stroke="#0076e1" stroke-linecap="round" stroke-linejoin="round" stroke-width="1"/>
    </g>
    <path id="check" d="M8.445,6.5a.266.266,0,0,0-.139.055L6.36,8.016l-.9-.9a.266.266,0,1,0-.377.377L6.147,8.556a.266.266,0,0,0,.347.025l2.131-1.6A.266.266,0,0,0,8.472,6.5Z" transform="translate(6722.73 -7220.191)" fill="#0076e1"/>
  </g>
</svg>
