<svg width="17" height="18" viewBox="0 0 17 18" fill="none" xmlns="http://www.w3.org/2000/svg">
<path d="M12.2434 12.1301C11.6753 12.1301 11.1071 12.1239 10.539 12.1338C10.4561 12.1416 10.3728 12.1241 10.3006 12.0835C10.2283 12.0429 10.1707 11.9814 10.1356 11.9073C9.63758 11.0484 9.12564 10.1964 8.62632 9.33873C8.45147 9.03861 8.5209 8.92599 8.86809 8.92228C9.20455 8.91919 9.541 8.93033 9.87809 8.91857C9.96111 8.90917 10.045 8.92586 10.1178 8.96623C10.1905 9.0066 10.2482 9.06856 10.2827 9.14319C10.51 9.54912 10.7574 9.94452 10.9834 10.3511C11.0926 10.5472 11.2359 10.6252 11.4651 10.6202C12.0012 10.6075 12.5371 10.6075 13.0728 10.6202C13.3058 10.6264 13.4396 10.5373 13.5475 10.3443C13.7691 9.947 14.0166 9.56335 14.2369 9.16546C14.3341 8.99035 14.449 8.90867 14.6579 8.91795C15.0152 8.9328 15.3731 8.91795 15.731 8.92476C15.9835 8.93094 16.0669 9.04851 15.9444 9.26262C15.4274 10.1586 14.8984 11.0484 14.3757 11.9414C14.2855 12.0954 14.1504 12.1344 13.9787 12.1332C13.3998 12.127 12.8216 12.1301 12.2434 12.1301Z" stroke="#0076E1" stroke-width="0.8" stroke-miterlimit="10"/>
<path d="M12.2869 4.71423C12.8443 4.71423 13.4017 4.72104 13.9584 4.71114C14.1705 4.7068 14.3044 4.76806 14.4136 4.95865C14.8946 5.80268 15.3996 6.63805 15.8882 7.47651C16.0908 7.82241 16.0226 7.9307 15.6098 7.93318C15.2942 7.93318 14.9785 7.92513 14.6629 7.93627C14.58 7.94627 14.496 7.9299 14.4232 7.88957C14.3505 7.84925 14.2929 7.7871 14.2589 7.71227C14.0329 7.30572 13.7804 6.91341 13.5563 6.50563C13.4377 6.29029 13.2912 6.19252 13.0318 6.2018C12.5173 6.22037 12.0016 6.21913 11.4871 6.2018C11.2415 6.19376 11.0982 6.28658 10.9859 6.49016C10.7605 6.8967 10.5118 7.29459 10.2877 7.69927C10.2517 7.77881 10.1905 7.84485 10.1132 7.88765C10.0359 7.93044 9.94655 7.94771 9.85846 7.93689C9.52263 7.92328 9.18554 7.93689 8.84846 7.93194C8.52778 7.92575 8.45582 7.7989 8.61742 7.52168C9.118 6.66466 9.62742 5.81196 10.123 4.95308C10.2303 4.76745 10.3672 4.70557 10.5825 4.70557C11.1513 4.7198 11.7188 4.71361 12.2869 4.71423Z" stroke="#0076E1" stroke-width="0.8" stroke-miterlimit="10"/>
<path d="M4.89469 1.00322C5.46282 1.00322 6.03094 1.00941 6.59907 1.00013C6.78844 0.997032 6.90775 1.05025 7.00433 1.21794C7.49986 2.07806 8.00802 2.93075 8.50797 3.7884C8.68535 4.09222 8.60708 4.21722 8.24222 4.22155C7.92659 4.22526 7.61097 4.21103 7.29534 4.2265C7.07567 4.23702 6.94373 4.14915 6.84084 3.96785C6.6016 3.54583 6.34594 3.13186 6.1067 2.70923C6.0738 2.63948 6.01982 2.58134 5.95206 2.5427C5.8843 2.50407 5.80605 2.48681 5.72795 2.49327C5.15982 2.50069 4.59169 2.50131 4.02357 2.49327C3.94014 2.48661 3.85663 2.50509 3.78421 2.54622C3.71178 2.58736 3.6539 2.6492 3.61831 2.72346C3.37717 3.14547 3.12088 3.55882 2.88353 3.98208C2.84727 4.06174 2.78637 4.12821 2.70945 4.17207C2.63253 4.21594 2.54348 4.23498 2.45491 4.2265C2.11909 4.21598 1.782 4.23021 1.44491 4.22155C1.14696 4.21351 1.06237 4.07675 1.20819 3.82491C1.72203 2.94003 2.24786 2.06135 2.76044 1.17524C2.85007 1.02116 2.97064 1.00075 3.12656 1.00198C3.71804 1.00693 4.30637 1.00322 4.89469 1.00322Z" stroke="#0076E1" stroke-width="0.8" stroke-miterlimit="10"/>
<path d="M4.16488 8.41477C3.80984 8.42953 3.44007 8.53532 3.10165 8.42694C2.82203 8.3374 2.64233 8.08093 2.47439 7.75576C2.10069 7.03301 1.65377 6.34615 1.24283 5.64259C1.05345 5.32082 1.11657 5.21377 1.48459 5.20944C1.81032 5.20634 2.13605 5.2181 2.46051 5.20511C2.54794 5.19384 2.63676 5.21036 2.71391 5.25224C2.79105 5.29412 2.85247 5.35915 2.88913 5.43777C3.38339 6.29727 3.89282 7.14873 4.3934 8.00452C4.55563 8.28112 4.48556 8.40364 4.16488 8.41477V8.41477Z" stroke="#0076E1" stroke-width="0.8" stroke-miterlimit="10"/>
<path d="M8.47436 5.22844C8.63105 5.28753 8.55957 5.51733 8.47536 5.66208V5.66208C8.09324 6.31222 7.71029 6.96215 7.32649 7.61188C7.151 7.90767 7.00644 7.91385 6.83727 7.62611C6.62832 7.27031 6.29881 6.91822 6.26914 6.54509C6.23947 6.17196 6.64031 5.85576 6.81075 5.49315C6.92185 5.25924 7.08219 5.19118 7.33216 5.20541C7.66673 5.22459 8.00382 5.21098 8.34217 5.20974C8.39126 5.20952 8.43633 5.2141 8.47436 5.22844Z" stroke="#0076E1" stroke-width="0.8" stroke-miterlimit="10"/>
<path d="M4.66087 6.90846C5.01401 6.89721 5.37758 6.79919 5.71905 6.88993C6.00199 6.96512 6.19579 7.19581 6.33432 7.53591C6.4107 7.72526 6.54515 7.8911 6.64994 8.07116C6.76798 8.27908 6.66762 8.4016 6.46057 8.41026C6.05088 8.42759 5.63994 8.41769 5.23089 8.41335C5.11474 8.41335 5.04152 8.33663 4.98849 8.24071C4.80227 7.91832 4.60974 7.60088 4.42668 7.27478C4.29222 7.03221 4.36987 6.91712 4.66087 6.90846V6.90846Z" stroke="#0076E1" stroke-width="0.8" stroke-miterlimit="10"/>
<path d="M4.90574 16.6048C4.35971 16.6048 3.81304 16.5961 3.26449 16.6091C3.03787 16.6147 2.89331 16.5423 2.77969 16.3467C2.22293 15.3814 1.65691 14.4186 1.08163 13.4582C1.02847 13.3828 1 13.2934 1 13.2017C1 13.1101 1.02847 13.0206 1.08163 12.9452C1.6548 11.9861 2.22124 11.0235 2.78095 10.0573C2.82134 9.97404 2.88632 9.90455 2.96747 9.85788C3.04862 9.81121 3.1422 9.78951 3.23608 9.79559C4.37234 9.80177 5.5069 9.80177 6.63979 9.79559C6.72804 9.78926 6.8162 9.80907 6.89285 9.85242C6.96949 9.89578 7.03109 9.9607 7.06967 10.0388C7.64453 11.0202 8.22444 11.9987 8.80939 12.9743C8.8567 13.0418 8.88203 13.1217 8.88203 13.2036C8.88203 13.2854 8.8567 13.3654 8.80939 13.4328C8.22612 14.4089 7.64642 15.3868 7.0703 16.3665C7.03209 16.4449 6.97027 16.51 6.89318 16.5529C6.8161 16.5959 6.72744 16.6146 6.63915 16.6066C6.06156 16.5979 5.48396 16.6048 4.90574 16.6048ZM4.11426 15.0744C4.62004 15.2756 5.19622 15.0555 5.74025 15.0739V15.0739C5.82888 15.0837 5.91844 15.0667 5.99689 15.0251C6.07533 14.9835 6.13888 14.9193 6.17897 14.8412C6.45736 14.3697 6.73511 13.8975 7.02674 13.4347C7.13721 13.2602 7.12143 13.1197 7.01664 12.9527C6.76982 12.5585 6.51732 12.1662 6.30522 11.7541C6.13605 11.4242 5.90943 11.2813 5.53383 11.3308C5.32477 11.3639 5.11164 11.3639 4.90258 11.3308C4.07375 11.1736 3.65523 11.5567 3.24492 12.2441C2.8264 12.9446 2.79421 13.4483 3.23924 14.1482C3.50594 14.5679 3.74893 14.929 4.11426 15.0744Z" stroke="#0076E1" stroke-width="0.8" stroke-miterlimit="10"/>
<path d="M5.69791 15.0767C5.15305 15.0584 4.57575 15.2765 4.06952 15.0741C3.70521 14.9285 3.46237 14.5685 3.19689 14.151C2.75502 13.4511 2.78405 12.9474 3.20257 12.247C3.61288 11.5595 4.0314 11.1765 4.86024 11.3336C5.0693 11.3668 5.28243 11.3668 5.49149 11.3336C5.86708 11.2841 6.0937 11.4271 6.26287 11.7569C6.47497 12.169 6.72748 12.5613 6.97429 12.9555C7.07908 13.1226 7.09487 13.2649 6.9844 13.4375C6.69276 13.9004 6.41627 14.3725 6.13662 14.844C6.09653 14.9221 6.03299 14.9863 5.95454 15.0279C5.8761 15.0695 5.78653 15.0865 5.69791 15.0767V15.0767Z" stroke="#0076E1" stroke-width="0.8" stroke-miterlimit="10"/>
</svg>
