<svg width="15" height="15" viewBox="0 0 15 15" fill="none" xmlns="http://www.w3.org/2000/svg">
<path d="M7.50817 0.59375C8.02809 0.599417 8.54588 0.659625 9.05305 0.772958C9.1611 0.797077 9.25891 0.854348 9.33282 0.936768C9.40673 1.01919 9.45305 1.12264 9.4653 1.23267L9.58572 2.31429C9.60268 2.46688 9.65525 2.61334 9.73918 2.7419C9.82311 2.87045 9.93606 2.97749 10.0689 3.0544C10.2018 3.13131 10.3509 3.17594 10.5042 3.18469C10.6574 3.19345 10.8106 3.16608 10.9514 3.10479L11.943 2.66917C12.0438 2.62479 12.1559 2.61281 12.2637 2.63489C12.3716 2.65697 12.4699 2.71202 12.5451 2.79242C13.2619 3.55819 13.7957 4.47656 14.1063 5.47842C14.1389 5.5837 14.1379 5.69651 14.1035 5.80121C14.0691 5.90591 14.003 5.99733 13.9143 6.06279L13.0346 6.71163C12.9109 6.80256 12.8104 6.92132 12.7411 7.05831C12.6718 7.1953 12.6358 7.34667 12.6358 7.50018C12.6359 7.65369 12.6721 7.80503 12.7415 7.94195C12.8109 8.07888 12.9115 8.19755 13.0353 8.28837L13.9158 8.9365C14.0046 9.00201 14.0708 9.09354 14.1052 9.19839C14.1396 9.30324 14.1404 9.4162 14.1077 9.52158C13.7972 10.5233 13.2637 11.4417 12.5473 12.2076C12.4722 12.288 12.374 12.343 12.2663 12.3652C12.1586 12.3874 12.0466 12.3757 11.9459 12.3315L10.95 11.8945C10.8094 11.8329 10.6564 11.8052 10.5031 11.8137C10.3499 11.8223 10.2009 11.8667 10.068 11.9436C9.93518 12.0204 9.8223 12.1274 9.73851 12.256C9.65472 12.3846 9.60238 12.531 9.58572 12.6836L9.4653 13.7645C9.45327 13.8732 9.40797 13.9756 9.33558 14.0576C9.26319 14.1397 9.16724 14.1973 9.06084 14.2228C8.03485 14.4669 6.96591 14.4669 5.93992 14.2228C5.83339 14.1975 5.73729 14.1398 5.66476 14.0578C5.59223 13.9758 5.54683 13.8733 5.53476 13.7645L5.41434 12.685C5.39692 12.533 5.34412 12.3872 5.26017 12.2593C5.17623 12.1315 5.06349 12.025 4.93098 11.9486C4.79848 11.8721 4.6499 11.8278 4.49717 11.8191C4.34443 11.8105 4.1918 11.8378 4.05151 11.8987L3.05488 12.3351C2.95414 12.3792 2.84219 12.391 2.73447 12.3688C2.62676 12.3466 2.52858 12.2915 2.45351 12.2111C1.73672 11.4444 1.20319 10.525 0.893049 9.52229C0.860318 9.41691 0.861214 9.30395 0.895614 9.1991C0.930013 9.09425 0.996209 9.00272 1.08501 8.93721L1.96617 8.28837C2.09002 8.19759 2.19074 8.0789 2.26017 7.94193C2.32959 7.80496 2.36577 7.65356 2.36577 7.5C2.36577 7.34644 2.32959 7.19504 2.26017 7.05807C2.19074 6.9211 2.09002 6.80241 1.96617 6.71163L1.08572 6.06421C0.996792 5.99879 0.930456 5.9073 0.895927 5.80244C0.861398 5.69759 0.860392 5.58458 0.893049 5.47913C1.20388 4.47721 1.7379 3.55884 2.45492 2.79312C2.53008 2.71287 2.62829 2.65792 2.73601 2.63585C2.84372 2.61377 2.95563 2.62566 3.0563 2.66988L4.04797 3.1055C4.18894 3.16661 4.34228 3.1938 4.49567 3.18489C4.64905 3.17599 4.79822 3.13123 4.93117 3.05421C5.06412 2.9772 5.17715 2.87007 5.26119 2.74145C5.34523 2.61282 5.39792 2.46627 5.41505 2.31358L5.53547 1.23267C5.54762 1.12242 5.59398 1.01874 5.66804 0.936168C5.7421 0.853598 5.84014 0.79628 5.94842 0.77225C6.45701 0.659625 6.97551 0.600125 7.50817 0.59375ZM7.50817 1.65625C7.18663 1.65999 6.86581 1.68769 6.54838 1.73913L6.47117 2.43117C6.43581 2.74961 6.32609 3.05528 6.15087 3.32352C5.97565 3.59176 5.73983 3.81505 5.46244 3.97539C5.18505 4.13574 4.87386 4.22863 4.55396 4.24658C4.23407 4.26454 3.91443 4.20705 3.62084 4.07875L2.98476 3.79967C2.57958 4.29134 2.25709 4.84565 2.02992 5.44088L2.59517 5.85667C2.85316 6.04626 3.06292 6.2939 3.20749 6.57957C3.35206 6.86523 3.42739 7.1809 3.42739 7.50106C3.42739 7.82123 3.35206 8.1369 3.20749 8.42256C3.06292 8.70822 2.85316 8.95586 2.59517 9.14546L2.02992 9.56196C2.25659 10.1584 2.57888 10.7137 2.98476 11.2067L3.6258 10.9255C3.91865 10.7978 4.2374 10.7405 4.5564 10.7585C4.8754 10.7764 5.18574 10.8689 5.46246 11.0286C5.73918 11.1883 5.97454 11.4108 6.14961 11.678C6.32469 11.9453 6.43459 12.2499 6.47047 12.5674L6.54838 13.2644C7.1788 13.3707 7.82197 13.3707 8.45238 13.2644L8.52959 12.5674C8.56485 12.2494 8.67438 11.9442 8.84934 11.6763C9.0243 11.4085 9.25978 11.1855 9.53678 11.0255C9.81378 10.8654 10.1245 10.7727 10.444 10.7548C10.7634 10.737 11.0826 10.7945 11.3757 10.9227L12.0167 11.2032C12.4217 10.7112 12.7439 10.1567 12.9708 9.56125L12.4056 9.14475C12.1476 8.95515 11.9378 8.70751 11.7933 8.42185C11.6487 8.13619 11.5734 7.82052 11.5734 7.50035C11.5734 7.18019 11.6487 6.86452 11.7933 6.57886C11.9378 6.2932 12.1476 6.04556 12.4056 5.85596L12.9694 5.44017C12.7423 4.84494 12.4198 4.29063 12.0146 3.79896L11.3799 4.07733C11.0865 4.20579 10.767 4.26344 10.4472 4.24564C10.1273 4.22784 9.81619 4.13509 9.53883 3.97486C9.26147 3.81464 9.02567 3.59144 8.85048 3.32328C8.67529 3.05512 8.56561 2.74953 8.5303 2.43117L8.45238 1.73983C8.14014 1.68879 7.82453 1.66108 7.50817 1.65696V1.65625ZM8.6153 4.66667C8.66429 4.6665 8.71183 4.68326 8.74988 4.71413L8.78317 4.74883L10.7509 7.28254C10.7921 7.33543 10.8174 7.39892 10.8239 7.46562C10.8304 7.53233 10.8179 7.59951 10.7878 7.65938L10.7509 7.71746L8.78317 10.2512C8.75323 10.2896 8.71096 10.3167 8.66347 10.3277L8.6153 10.3333H6.69997C6.66421 10.3334 6.62902 10.3244 6.59767 10.3072C6.56631 10.29 6.5398 10.2652 6.52059 10.235C6.50138 10.2048 6.49009 10.1703 6.48777 10.1346C6.48544 10.099 6.49216 10.0633 6.5073 10.0309L6.5328 9.98908L8.49701 7.5L6.29763 4.66667H8.6153ZM5.8528 5.23617L7.04988 6.79521L6.49738 7.5L6.9493 8.07587C6.97894 8.11339 6.99507 8.15981 6.99507 8.20762C6.99507 8.25544 6.97894 8.30186 6.9493 8.33938L6.00226 9.52937C5.98488 9.55126 5.96336 9.5695 5.93892 9.58306C5.91449 9.59661 5.88762 9.60522 5.85985 9.60838C5.83209 9.61154 5.80397 9.60919 5.77711 9.60146C5.75026 9.59374 5.72519 9.5808 5.70334 9.56337L5.66863 9.52796L4.25055 7.71817C4.20184 7.65588 4.17538 7.57907 4.17538 7.5C4.17538 7.42092 4.20184 7.34412 4.25055 7.28183L5.85351 5.23617H5.8528Z" fill="#0076E1"/>
</svg>
