<svg width="15" height="16" viewBox="0 0 15 16" fill="none" xmlns="http://www.w3.org/2000/svg">
<path d="M0.5 10L0.146447 9.64645L0 9.79289V10H0.5ZM9.5 1L9.85355 0.646447C9.65829 0.451184 9.34171 0.451184 9.14645 0.646447L9.5 1ZM14.5 6L14.8536 6.35355C15.0488 6.15829 15.0488 5.84171 14.8536 5.64645L14.5 6ZM5.5 15V15.5H5.70711L5.85355 15.3536L5.5 15ZM0.5 15H0C0 15.2761 0.223858 15.5 0.5 15.5L0.5 15ZM0.853553 10.3536L9.85355 1.35355L9.14645 0.646447L0.146447 9.64645L0.853553 10.3536ZM9.14645 1.35355L14.1464 6.35355L14.8536 5.64645L9.85355 0.646447L9.14645 1.35355ZM14.1464 5.64645L5.14645 14.6464L5.85355 15.3536L14.8536 6.35355L14.1464 5.64645ZM5.5 14.5H0.5V15.5H5.5V14.5ZM1 15V10H0V15H1ZM6.14645 4.35355L11.1464 9.35355L11.8536 8.64645L6.85355 3.64645L6.14645 4.35355ZM8 15.5H15V14.5H8V15.5Z" fill="#0076E1"/>
</svg>

