<svg width="26" height="26" viewBox="0 0 26 26" fill="none" xmlns="http://www.w3.org/2000/svg">
<circle cx="13" cy="13" r="12.5" fill="white" stroke="black"/>
<path d="M5.974 17.104L5.87 15.999L6.715 15.947C7.56433 15.8777 7.989 15.3923 7.989 14.491V7.835H9.328V14.491C9.328 15.2797 9.12433 15.8907 8.717 16.324C8.30967 16.7573 7.70733 17 6.91 17.052L5.974 17.104ZM15.5666 17.117C14.6392 17.117 13.8462 16.9263 13.1876 16.545C12.5289 16.1637 12.0219 15.622 11.6666 14.92C11.3199 14.2093 11.1466 13.373 11.1466 12.411C11.1466 11.449 11.3199 10.617 11.6666 9.915C12.0219 9.213 12.5289 8.67133 13.1876 8.29C13.8462 7.90867 14.6392 7.718 15.5666 7.718C16.1906 7.718 16.7712 7.81767 17.3086 8.017C17.8546 8.20767 18.3096 8.485 18.6736 8.849L18.2056 9.928C17.8069 9.57267 17.3952 9.317 16.9706 9.161C16.5546 8.99633 16.0996 8.914 15.6056 8.914C14.6176 8.914 13.8636 9.21733 13.3436 9.824C12.8236 10.4307 12.5636 11.293 12.5636 12.411C12.5636 13.529 12.8236 14.3957 13.3436 15.011C13.8636 15.6177 14.6176 15.921 15.6056 15.921C16.0996 15.921 16.5546 15.843 16.9706 15.687C17.3952 15.5223 17.8069 15.2623 18.2056 14.907L18.6736 15.986C18.3096 16.3413 17.8546 16.6187 17.3086 16.818C16.7712 17.0173 16.1906 17.117 15.5666 17.117Z" fill="#0076E1"/>
</svg>
