<svg width="15" height="16" viewBox="0 0 15 16" fill="none" xmlns="http://www.w3.org/2000/svg">
<path d="M14 8L8.24264 13.7574C7.44699 14.553 6.36786 15 5.24264 15C2.8995 15 1 13.1005 1 10.7574C1 9.63214 1.44699 8.55301 2.24264 7.75736L8.17157 1.82843C8.70201 1.29799 9.42143 1 10.1716 1C11.7337 1 13 2.26633 13 3.82843C13 4.57857 12.702 5.29799 12.1716 5.82843L6.41421 11.5858C6.149 11.851 5.78929 12 5.41421 12C4.63316 12 4 11.3668 4 10.5858C4 10.2107 4.149 9.851 4.41421 9.58579L10 4" stroke="#7C7C7C"/>
</svg>
