<svg width="15" height="14" viewBox="0 0 15 14" fill="none" xmlns="http://www.w3.org/2000/svg">
<path d="M14 1L14.4542 1.20907C14.5255 1.05426 14.513 0.873818 14.421 0.730311C14.3291 0.586804 14.1704 0.5 14 0.5V1ZM1 1V0.5C0.723858 0.5 0.5 0.723858 0.5 1H1ZM14 9.06897V9.56897C14.1704 9.56897 14.3291 9.48216 14.421 9.33865C14.513 9.19515 14.5255 9.0147 14.4542 8.85989L14 9.06897ZM12.1429 5.03448L11.6887 4.82541C11.6276 4.9581 11.6276 5.11087 11.6887 5.24355L12.1429 5.03448ZM14 0.5H1V1.5H14V0.5ZM0.5 1V9.06897H1.5V1H0.5ZM1 9.56897H14V8.56897H1V9.56897ZM14.4542 8.85989L12.597 4.82541L11.6887 5.24355L13.5458 9.27804L14.4542 8.85989ZM12.597 5.24355L14.4542 1.20907L13.5458 0.790928L11.6887 4.82541L12.597 5.24355ZM1.5 14V9.06897H0.5V14H1.5Z" fill="#7C7C7C"/>
</svg>
