<svg width="19" height="15" viewBox="0 0 19 15" fill="none" xmlns="http://www.w3.org/2000/svg">
<path d="M16.6 10.3125V10.8125H17.1H18.05C18.2994 10.8125 18.5 11.0135 18.5 11.2594V14.0531C18.5 14.299 18.2994 14.5 18.05 14.5H14.25C14.0006 14.5 13.8 14.299 13.8 14.0531V11.2594C13.8 11.0135 14.0006 10.8125 14.25 10.8125H15.2H15.7V10.3125V8.4375V7.9375H15.2H10.45H9.95V8.4375V10.3125V10.8125H10.45H11.4C11.6494 10.8125 11.85 11.0135 11.85 11.2594V14.0531C11.85 14.299 11.6494 14.5 11.4 14.5H7.6C7.35063 14.5 7.15 14.299 7.15 14.0531V11.2594C7.15 11.0135 7.35063 10.8125 7.6 10.8125H8.55H9.05V10.3125V8.4375V7.9375H8.55H3.8H3.3V8.4375V10.3125V10.8125H3.8H4.75C4.99937 10.8125 5.2 11.0135 5.2 11.2594V14.0531C5.2 14.299 4.99937 14.5 4.75 14.5H0.95C0.700634 14.5 0.5 14.299 0.5 14.0531V11.2594C0.5 11.0135 0.700634 10.8125 0.95 10.8125H1.9H2.4V10.3125V8.4375C2.4 7.68862 3.02488 7.0625 3.8 7.0625H8.55H9.05V6.5625V4.6875V4.1875H8.55H7.6C7.35063 4.1875 7.15 3.98648 7.15 3.74062V0.946875C7.15 0.701016 7.35063 0.5 7.6 0.5H11.4C11.6494 0.5 11.85 0.701016 11.85 0.946875V3.74062C11.85 3.98648 11.6494 4.1875 11.4 4.1875H10.45H9.95V4.6875V6.5625V7.0625H10.45H15.2C15.9751 7.0625 16.6 7.68862 16.6 8.4375V10.3125Z" stroke="#686868"/>
</svg>
