<svg width="16" height="16" viewBox="0 0 16 16" fill="none" xmlns="http://www.w3.org/2000/svg">
<path d="M8 1L8.29062 0.593133C8.11677 0.468956 7.88323 0.468956 7.70938 0.593133L8 1ZM15 6H15.5C15.5 5.83852 15.422 5.68699 15.2906 5.59313L15 6ZM15 10L15.2906 10.4069C15.422 10.313 15.5 10.1615 15.5 10H15ZM8 15L7.70938 15.4069C7.88323 15.531 8.11677 15.531 8.29062 15.4069L8 15ZM1 10H0.5C0.5 10.1615 0.577983 10.313 0.709381 10.4069L1 10ZM1 6L0.709381 5.59313C0.577983 5.68699 0.5 5.83852 0.5 6H1ZM7.70938 1.40687L14.7094 6.40687L15.2906 5.59313L8.29062 0.593133L7.70938 1.40687ZM14.5 6V10H15.5V6H14.5ZM14.7094 9.59313L7.70938 14.5931L8.29062 15.4069L15.2906 10.4069L14.7094 9.59313ZM8.29062 14.5931L1.29062 9.59313L0.709381 10.4069L7.70938 15.4069L8.29062 14.5931ZM1.5 10V6H0.5V10H1.5ZM1.29062 6.40687L8.29062 1.40687L7.70938 0.593133L0.709381 5.59313L1.29062 6.40687ZM1.29062 10.4069L8.29062 5.40687L7.70938 4.59313L0.709381 9.59313L1.29062 10.4069ZM7.70938 5.40687L14.7094 10.4069L15.2906 9.59313L8.29062 4.59313L7.70938 5.40687ZM0.709381 6.40687L7.70938 11.4069L8.29062 10.5931L1.29062 5.59313L0.709381 6.40687ZM8.29062 11.4069L15.2906 6.40687L14.7094 5.59313L7.70938 10.5931L8.29062 11.4069ZM7.5 1V5H8.5V1H7.5ZM7.5 11V15H8.5V11H7.5Z" fill="#7C7C7C"/>
</svg>
