<svg width="14" height="12" viewBox="0 0 14 12" fill="none" xmlns="http://www.w3.org/2000/svg">
<path d="M13.5 0.1875H0.5C0.223437 0.1875 0 0.410937 0 0.6875V8.4375C0 8.71406 0.223437 8.9375 0.5 8.9375H6.4375V10.6875H3.75C3.6125 10.6875 3.5 10.8 3.5 10.9375V11.6875C3.5 11.7563 3.55625 11.8125 3.625 11.8125H10.375C10.4438 11.8125 10.5 11.7563 10.5 11.6875V10.9375C10.5 10.8 10.3875 10.6875 10.25 10.6875H7.5625V8.9375H13.5C13.7766 8.9375 14 8.71406 14 8.4375V0.6875C14 0.410937 13.7766 0.1875 13.5 0.1875ZM12.875 7.8125H1.125V1.3125H12.875V7.8125Z" fill="black"/>
</svg>
