<svg width="16" height="16" viewBox="0 0 16 16" fill="none" xmlns="http://www.w3.org/2000/svg">
<path fill-rule="evenodd" clip-rule="evenodd" d="M1.49853 1.01908C1.27069 1.08192 1.06569 1.29249 1.01391 1.51685C1.00525 1.55438 1.00027 3.8899 1.00005 8.01563C0.999727 14.2978 1.00035 14.4579 1.02603 14.5404C1.09143 14.7505 1.25965 14.9108 1.48491 14.9776C1.5536 14.998 1.95932 15 6.02196 15C10.4333 15 10.4846 14.9997 10.5728 14.9724C10.7357 14.9221 10.8797 14.8077 10.9664 14.6597C11.0134 14.5796 11.056 14.4321 11.056 14.3498C11.056 14.3071 11.0611 14.2913 11.0733 14.296C11.0829 14.2997 11.1357 14.3174 11.1907 14.3353L11.2906 14.368L11.3768 14.618C11.4732 14.8978 11.4945 14.9408 11.5537 14.9757C11.5905 14.9974 11.6394 15 12.0026 14.9999C12.3824 14.9999 12.4133 14.998 12.4547 14.9728C12.5116 14.9381 12.5229 14.9151 12.6188 14.6389C12.6625 14.5128 12.7036 14.3995 12.7101 14.3871C12.7166 14.3747 12.7549 14.3541 12.7952 14.3413C12.8356 14.3285 12.9347 14.2865 13.0155 14.248L13.1623 14.1779L13.4147 14.3042C13.678 14.436 13.7184 14.4471 13.7979 14.4094C13.8565 14.3816 14.3974 13.8375 14.4164 13.7872C14.445 13.7116 14.4319 13.6676 14.3049 13.414L14.1787 13.1618L14.2423 13.0287C14.2772 12.9556 14.3203 12.8551 14.3378 12.8054L14.3698 12.7151L14.5776 12.6419C14.8914 12.5315 14.9338 12.5117 14.9693 12.4589C15.0001 12.4132 15.0007 12.405 15.0007 12.0028C15.0007 11.6224 14.9988 11.5902 14.9739 11.55C14.9367 11.49 14.9037 11.4738 14.6174 11.3754L14.3661 11.2891L14.3418 11.2104C14.3284 11.1671 14.2863 11.0654 14.2482 10.9845L14.1789 10.8373L14.3051 10.5853C14.4367 10.3223 14.4478 10.2819 14.4101 10.2024C14.3985 10.1779 14.2656 10.0351 14.1149 9.88501C13.8471 9.61849 13.7826 9.5687 13.7059 9.56931C13.6885 9.56945 13.559 9.62215 13.4182 9.6864C13.1641 9.80231 13.1618 9.80306 13.1195 9.78101C13.0961 9.76877 12.9957 9.7262 12.8964 9.68639L12.7158 9.61401L12.6212 9.34499C12.5197 9.05634 12.4917 9.01002 12.4041 8.98567C12.3498 8.9706 11.6836 8.96642 11.6122 8.9807C11.5259 8.99796 11.4834 9.05889 11.4103 9.27043C11.3011 9.58653 11.2905 9.6123 11.2664 9.62001C11.2538 9.62405 11.2044 9.64237 11.1565 9.66072C11.1087 9.67907 11.0665 9.69407 11.0628 9.69407C11.059 9.69407 11.056 8.43813 11.056 6.90311C11.056 5.28663 11.0507 4.09862 11.0435 4.07999C11.0299 4.04485 10.7719 3.7874 9.10445 2.14473C8.4933 1.54266 7.97451 1.0386 7.95159 1.02458C7.91149 1.00007 7.79075 0.999163 4.73609 1.0003C2.22183 1.00125 1.54902 1.00515 1.49853 1.01908ZM7.64235 2.8384C7.64599 4.25262 7.64618 4.26134 7.67478 4.30031C7.6906 4.32188 7.72498 4.35046 7.75118 4.3638C7.7956 4.38646 7.8937 4.3881 9.20515 4.38811L10.6115 4.38814V7.04076V9.69338L10.5803 9.68086C10.5631 9.67397 10.4977 9.64287 10.435 9.61176C10.2814 9.53554 10.2225 9.535 10.1301 9.60901C10.0206 9.69669 9.58604 10.1443 9.57035 10.1856C9.53948 10.2668 9.55297 10.3136 9.68106 10.5695L9.80624 10.8196L9.77575 10.8784C9.75898 10.9107 9.71598 11.0116 9.6802 11.1026L9.61515 11.268L9.35286 11.3602C9.2086 11.4109 9.07632 11.4614 9.05892 11.4726C9.04153 11.4837 9.01496 11.5182 8.99989 11.5493C8.97469 11.6012 8.9725 11.6357 8.97258 11.9799C8.97262 12.1856 8.97883 12.3762 8.98637 12.4034C9.01076 12.4912 9.057 12.5191 9.34005 12.6172C9.48492 12.6674 9.60756 12.7131 9.6126 12.7188C9.61763 12.7244 9.63256 12.7642 9.64578 12.8073C9.65899 12.8503 9.69947 12.9472 9.73573 13.0226L9.80167 13.1596L9.67877 13.406C9.54857 13.667 9.53386 13.7237 9.57578 13.8027C9.60607 13.8598 10.1546 14.3993 10.1992 14.416C10.2691 14.442 10.3181 14.4317 10.4587 14.3611C10.5348 14.3229 10.6003 14.2916 10.6043 14.2916C10.6206 14.2916 10.6092 14.3718 10.5854 14.4241C10.5545 14.4923 10.4892 14.5496 10.4199 14.5697C10.3837 14.5801 9.06431 14.5833 5.97229 14.5804L1.57614 14.5764L1.52393 14.5439C1.49522 14.526 1.45612 14.4848 1.43706 14.4523L1.40239 14.3932L1.40595 8.01902C1.40883 2.82879 1.41284 1.63517 1.42756 1.59254C1.45029 1.52673 1.52768 1.44825 1.58664 1.43122C1.61398 1.42333 2.81344 1.41772 4.63519 1.41696L7.63868 1.41571L7.64235 2.8384ZM9.19474 2.85331L10.3128 3.97144H9.19124H8.06966V2.85331C8.06966 2.23833 8.07316 1.73517 8.07316 1.73517C8.07316 1.73517 8.5798 2.23833 9.19474 2.85331ZM2.48643 2.61371C2.3492 2.68407 2.33456 2.88328 2.46005 2.97277L2.50676 3.0061H4.52835C6.45347 3.0061 6.55176 3.0049 6.58819 2.98104C6.72071 2.8942 6.71038 2.68446 6.57008 2.61371L6.5081 2.58246H4.52774H2.54738L2.48643 2.61371ZM2.47062 4.08631C2.44466 4.10365 2.41249 4.13959 2.39915 4.16618C2.3506 4.2628 2.38125 4.38025 2.47062 4.43995L2.51782 4.47148H4.52653C6.44543 4.47148 6.53738 4.47034 6.58258 4.4461C6.71321 4.37604 6.71321 4.15022 6.58258 4.08016C6.53738 4.05592 6.44543 4.05478 4.52653 4.05478H2.51782L2.47062 4.08631ZM2.49173 5.55446C2.44761 5.57231 2.39087 5.64731 2.38075 5.70113C2.362 5.80113 2.40377 5.89437 2.48647 5.93714C2.52125 5.95512 2.96218 5.95769 6.01696 5.95769C9.37117 5.95769 9.50954 5.95671 9.55501 5.93232C9.68565 5.86226 9.68565 5.63644 9.55501 5.56637C9.50954 5.54198 9.37201 5.54103 6.01418 5.54187C4.09274 5.54236 2.50764 5.54803 2.49173 5.55446ZM2.49173 7.04067C2.44761 7.05852 2.39087 7.13353 2.38075 7.18735C2.362 7.28734 2.40377 7.38059 2.48647 7.42335C2.52125 7.44134 2.96192 7.44391 6.01464 7.44391C9.12062 7.44391 9.50786 7.44158 9.54683 7.42262C9.61282 7.39052 9.64407 7.33812 9.6498 7.25008C9.65591 7.15588 9.62413 7.08966 9.55501 7.05259C9.50954 7.0282 9.37201 7.02724 6.01418 7.02809C4.09274 7.02857 2.50764 7.03424 2.49173 7.04067ZM5.9292 8.58663C5.90324 8.60396 5.87107 8.63991 5.85772 8.6665C5.80918 8.76312 5.83983 8.88057 5.9292 8.94027L5.9764 8.9718L7.77655 8.97174C9.53636 8.9717 9.57771 8.97109 9.6211 8.94463C9.68927 8.90306 9.71515 8.85322 9.71515 8.76345C9.71515 8.67368 9.68927 8.62384 9.6211 8.58227C9.57771 8.55581 9.53636 8.5552 7.77655 8.55516L5.9764 8.5551L5.9292 8.58663ZM4.81248 8.61678C4.78956 8.6272 4.4615 8.94567 4.08346 9.32449L3.39609 10.0133L3.02088 9.6392C2.81451 9.43347 2.62806 9.25852 2.60656 9.25043C2.51114 9.21449 2.41673 9.24248 2.35345 9.32545C2.3101 9.38228 2.30312 9.47021 2.33688 9.53435C2.34893 9.55725 2.57023 9.78628 2.82865 10.0433C3.26244 10.4747 3.30294 10.5113 3.35659 10.5201C3.4698 10.5386 3.47935 10.5304 4.30825 9.69906C4.73374 9.27233 5.08846 8.90558 5.0965 8.88408C5.11923 8.82326 5.11349 8.76145 5.07964 8.70239C5.02601 8.60884 4.91104 8.572 4.81248 8.61678ZM12.2579 9.65373C12.3554 9.94621 12.3741 9.97167 12.5176 10.0061C12.6503 10.0379 12.828 10.1113 12.9658 10.1913C13.1252 10.2837 13.137 10.2822 13.4258 10.1364L13.6636 10.0163L13.8142 10.1674L13.9649 10.3185L13.8505 10.5515C13.708 10.8418 13.7076 10.8461 13.8122 11.0603C13.8537 11.1454 13.9137 11.29 13.9456 11.3817C14.0309 11.6274 14.0245 11.6215 14.3131 11.7172L14.5562 11.7978V12.0012V12.2045L14.3262 12.2846C14.0579 12.378 14.0287 12.3995 14.0019 12.5227C13.9762 12.6409 13.8967 12.8359 13.8166 12.977C13.7191 13.1489 13.7199 13.1564 13.8656 13.451L13.9844 13.6912L13.8382 13.8272L13.6919 13.9632L13.4755 13.8553C13.184 13.7099 13.1679 13.7085 12.9658 13.8095C12.8818 13.8515 12.7351 13.9129 12.6398 13.9458C12.5384 13.9809 12.4498 14.0208 12.4262 14.0419C12.3943 14.0704 12.3688 14.128 12.3062 14.3133L12.2267 14.5486L12.0246 14.5524L11.8225 14.5562L11.7425 14.3164C11.6538 14.0503 11.6292 14.0126 11.527 13.9866C11.3733 13.9474 11.192 13.876 11.0596 13.8024C10.9803 13.7582 10.8995 13.7221 10.88 13.7221C10.8606 13.7221 10.7394 13.7753 10.6107 13.8402C10.482 13.9051 10.3702 13.9583 10.3623 13.9583C10.3543 13.9583 10.2734 13.8976 10.1824 13.8235L10.0169 13.6887L10.1284 13.466C10.2315 13.2602 10.2399 13.2369 10.2394 13.1598C10.2389 13.0867 10.2295 13.0579 10.1643 12.9304C10.1233 12.8502 10.0629 12.7056 10.0302 12.6092C9.98883 12.4872 9.95916 12.4227 9.93282 12.3975C9.90706 12.3728 9.81943 12.3355 9.65942 12.2812L9.42392 12.2012V12.001V11.8008L9.63921 11.7289C9.96654 11.6195 9.9679 11.6184 10.0133 11.4409C10.0477 11.3065 10.1082 11.1612 10.1881 11.0209C10.2863 10.8485 10.2868 10.8529 10.1417 10.5608L10.0168 10.3094L10.1637 10.1625L10.3106 10.0157L10.5339 10.1275C10.7372 10.2293 10.7646 10.2394 10.8406 10.24C10.9129 10.2406 10.9379 10.233 11.0282 10.1834C11.0855 10.152 11.2074 10.0974 11.2991 10.0623C11.5429 9.96878 11.5693 9.9562 11.5978 9.91999C11.612 9.9019 11.6589 9.78117 11.7021 9.65169L11.7806 9.41627H11.9797H12.1788L12.2579 9.65373ZM5.98537 10.1099C5.91559 10.1314 5.88621 10.1555 5.86029 10.2126C5.82686 10.2862 5.82707 10.3386 5.86106 10.4135C5.88222 10.4601 5.90167 10.4791 5.95027 10.5006C6.01082 10.5274 6.04229 10.528 7.16504 10.5243C8.30597 10.5206 8.31805 10.5202 8.35686 10.4918C8.44417 10.4277 8.47109 10.2926 8.41343 10.2079C8.39625 10.1826 8.36454 10.1489 8.34297 10.1329C8.30399 10.104 8.29684 10.1038 7.16233 10.1014C6.53455 10.1 6.00491 10.1039 5.98537 10.1099ZM11.7478 11.0212C11.5627 11.0661 11.3667 11.1853 11.23 11.3362C11.1256 11.4514 11.023 11.6592 10.9919 11.8187C10.9199 12.1873 11.071 12.5908 11.3642 12.8125C11.6901 13.059 12.0886 13.0961 12.4589 12.9143C12.5545 12.8673 12.6009 12.8323 12.7031 12.7301C12.8095 12.6238 12.8395 12.5833 12.8941 12.472C12.9807 12.2957 13.0054 12.1934 13.0051 12.0137C13.0047 11.835 12.9768 11.7114 12.9031 11.5623C12.7711 11.2954 12.5312 11.1011 12.2426 11.0273C12.1143 10.9944 11.8705 10.9915 11.7478 11.0212ZM12.2383 11.4535C12.3979 11.5284 12.5049 11.6514 12.5575 11.8205C12.6786 12.2095 12.3509 12.6131 11.9417 12.5788C11.7463 12.5624 11.5504 12.425 11.457 12.2388C11.4123 12.1499 11.4102 12.1386 11.4102 11.9926C11.4102 11.8485 11.4128 11.8342 11.4545 11.7495C11.5106 11.6355 11.5775 11.5573 11.6691 11.4985C11.7893 11.4214 11.8643 11.4013 12.0144 11.4061C12.1278 11.4097 12.1592 11.4164 12.2383 11.4535ZM5.87861 11.6754C5.74455 11.7415 5.74144 11.9793 5.87375 12.0477C5.91034 12.0666 6.05556 12.0692 7.07931 12.0692C8.20925 12.0691 8.24459 12.0683 8.28774 12.042C8.41679 11.9633 8.4026 11.7466 8.26384 11.6769C8.21897 11.6543 8.1332 11.6526 7.06959 11.6529C6.04786 11.6531 5.91878 11.6556 5.87861 11.6754ZM4.75692 11.7093C4.74164 11.7181 4.41512 12.0385 4.03132 12.4214L3.33349 13.1175L2.94791 12.7333C2.53306 12.3199 2.52877 12.3168 2.40933 12.3392C2.34568 12.3511 2.2678 12.429 2.25587 12.4927C2.23319 12.6136 2.23047 12.61 2.72667 13.1086C2.98005 13.3632 3.21056 13.5835 3.2389 13.5982C3.30006 13.6299 3.34584 13.6319 3.40658 13.6055C3.4322 13.5944 3.79052 13.2461 4.24647 12.7892C5.08747 11.9464 5.05146 11.9878 5.04176 11.8748C5.03722 11.822 5.0052 11.7693 4.95676 11.7348C4.90674 11.6991 4.79876 11.6854 4.75692 11.7093ZM5.93756 13.207C5.82779 13.234 5.77797 13.2989 5.77788 13.4149C5.77781 13.5111 5.81439 13.5726 5.88949 13.6027C5.93887 13.6224 6.07214 13.6249 7.08431 13.6249C8.17729 13.6249 8.22564 13.6238 8.27509 13.5984C8.41524 13.5265 8.41328 13.3127 8.2717 13.2269C8.23158 13.2026 8.17108 13.2012 7.10431 13.199C6.48552 13.1978 5.96048 13.2014 5.93756 13.207Z" fill="#FF2D2E" stroke="#FF2D2E" stroke-opacity="0.76" stroke-width="0.2"/>
</svg>
