<svg width="16" height="16" viewBox="0 0 16 16" fill="none" xmlns="http://www.w3.org/2000/svg">
<path d="M5.00261 8.00457L9.00523 8.00457M11.5069 4.50229L9.00523 7.99999L11.5069 11.5069M15.0091 3C15.0091 4.104 14.1126 5 13.0078 5C11.9031 5 11.0065 4.104 11.0065 3C11.0065 1.896 11.9031 1 13.0078 1C14.1126 1 15.0091 1.896 15.0091 3ZM15.0091 13C15.0091 14.104 14.1126 15 13.0078 15C11.9031 15 11.0065 14.104 11.0065 13C11.0065 11.896 11.9031 11 13.0078 11C14.1126 11 15.0091 11.896 15.0091 13ZM5.00261 8C5.00261 9.104 4.10603 10 3.00131 10C1.89659 10 1 9.104 1 8C1 6.896 1.89659 6 3.00131 6C4.10603 6 5.00261 6.896 5.00261 8Z" stroke="#0076E1" stroke-linecap="square"/>
</svg>
