<svg width="22" height="22" viewBox="0 0 22 22" fill="none" xmlns="http://www.w3.org/2000/svg">
<path d="M11.75 15.2857V14.5357H10.25V15.2857H11.75ZM10.25 15.3V16.05H11.75V15.3H10.25ZM10.25 6V11.7143H11.75V6H10.25ZM10.25 15.2857V15.3H11.75V15.2857H10.25ZM11 20.25C5.89137 20.25 1.75 16.1086 1.75 11H0.25C0.25 16.9371 5.06294 21.75 11 21.75V20.25ZM20.25 11C20.25 16.1086 16.1086 20.25 11 20.25V21.75C16.9371 21.75 21.75 16.9371 21.75 11H20.25ZM11 1.75C16.1086 1.75 20.25 5.89137 20.25 11H21.75C21.75 5.06294 16.9371 0.25 11 0.25V1.75ZM11 0.25C5.06294 0.25 0.25 5.06294 0.25 11H1.75C1.75 5.89137 5.89137 1.75 11 1.75V0.25Z" fill="#0076E1"/>
</svg>
