<svg width="16" height="16" viewBox="0 0 14 16" fill="none" xmlns="http://www.w3.org/2000/svg">
<path d="M4 7.49542H3.5V8.49542H4V7.49542ZM10 8.49542H10.5V7.49542H10V8.49542ZM4.00054 10.4935L3.50054 10.4929L3.49946 11.4929L3.99946 11.4935L4.00054 10.4935ZM9.99946 11.5L10.4995 11.5005L10.5005 10.5005L10.0005 10.5L9.99946 11.5ZM4.00033 4.49738L3.50033 4.49705L3.49967 5.49705L3.99967 5.49738L4.00033 4.49738ZM7.99967 5.5L8.49967 5.50033L8.50033 4.50033L8.00033 4.5L7.99967 5.5ZM10 1L10.3536 0.646447L10.2071 0.5H10V1ZM13 4H13.5V3.79289L13.3536 3.64645L13 4ZM4 8.49542H10V7.49542H4V8.49542ZM3.99946 11.4935L9.99946 11.5L10.0005 10.5L4.00054 10.4935L3.99946 11.4935ZM3.99967 5.49738L7.99967 5.5L8.00033 4.5L4.00033 4.49738L3.99967 5.49738ZM12 14.5H2V15.5H12V14.5ZM1.5 14V2H0.5V14H1.5ZM2 1.5H10V0.5H2V1.5ZM12.5 4V14H13.5V4H12.5ZM9.64645 1.35355L12.6464 4.35355L13.3536 3.64645L10.3536 0.646447L9.64645 1.35355ZM2 14.5C1.72386 14.5 1.5 14.2761 1.5 14H0.5C0.5 14.8284 1.17157 15.5 2 15.5V14.5ZM12 15.5C12.8284 15.5 13.5 14.8284 13.5 14H12.5C12.5 14.2761 12.2761 14.5 12 14.5V15.5ZM1.5 2C1.5 1.72386 1.72386 1.5 2 1.5V0.5C1.17157 0.5 0.5 1.17157 0.5 2H1.5Z" fill="#0076E1"/>
</svg>
