<svg width="16" height="16" viewBox="0 0 16 16" fill="none" xmlns="http://www.w3.org/2000/svg">
<path d="M5 6V5.5C4.72386 5.5 4.5 5.72386 4.5 6H5ZM5 7L5.35355 7.35355L5.5 7.20711V7H5ZM3.29289 7.29289L2.93934 7.64645L2.93934 7.64645L3.29289 7.29289ZM7 13.5H7.5V13.2929L7.35355 13.1464L7 13.5ZM6 12.5H5.5V12.7071L5.64645 12.8536L6 12.5ZM6 11H6.5V10.7929L6.35355 10.6464L6 11ZM5 10H4.5V10.2071L4.64645 10.3536L5 10ZM5 9V8.5C4.72386 8.5 4.5 8.72386 4.5 9H5ZM9.5 1V3H10.5V1H9.5ZM9 3.5H8V4.5H9V3.5ZM6 5.5H5V6.5H6V5.5ZM4.5 6V7H5.5V6H4.5ZM4.64645 6.64645L4.35355 6.93934L5.06066 7.64645L5.35355 7.35355L4.64645 6.64645ZM3.64645 6.93934L1.85355 5.14645L1.14645 5.85355L2.93934 7.64645L3.64645 6.93934ZM6.5 5C6.5 5.27614 6.27614 5.5 6 5.5V6.5C6.82843 6.5 7.5 5.82843 7.5 5H6.5ZM8 3.5C7.17157 3.5 6.5 4.17157 6.5 5H7.5C7.5 4.72386 7.72386 4.5 8 4.5V3.5ZM4.35355 6.93934C4.15829 7.1346 3.84171 7.1346 3.64645 6.93934L2.93934 7.64645C3.52513 8.23223 4.47487 8.23223 5.06066 7.64645L4.35355 6.93934ZM9.5 3C9.5 3.27614 9.27614 3.5 9 3.5V4.5C9.82843 4.5 10.5 3.82843 10.5 3H9.5ZM7.5 15V13.5H6.5V15H7.5ZM7.35355 13.1464L6.35355 12.1464L5.64645 12.8536L6.64645 13.8536L7.35355 13.1464ZM6.5 12.5V11H5.5V12.5H6.5ZM6.35355 10.6464L5.35355 9.64645L4.64645 10.3536L5.64645 11.3536L6.35355 10.6464ZM5.5 10V9H4.5V10H5.5ZM5 9.5H9V8.5H5V9.5ZM9.5 10V10.6667H10.5V10H9.5ZM11.3333 12.5H14V11.5H11.3333V12.5ZM10.5 11.6667C10.5 12.1269 10.8731 12.5 11.3333 12.5V11.5C11.4254 11.5 11.5 11.5746 11.5 11.6667H10.5ZM10.3333 11.5C10.4254 11.5 10.5 11.5746 10.5 11.6667H11.5C11.5 11.0223 10.9777 10.5 10.3333 10.5V11.5ZM9.5 10.6667C9.5 11.1269 9.8731 11.5 10.3333 11.5V10.5C10.4254 10.5 10.5 10.5746 10.5 10.6667H9.5ZM9 9.5C9.27614 9.5 9.5 9.72386 9.5 10H10.5C10.5 9.17157 9.82843 8.5 9 8.5V9.5ZM8 14.5C4.41015 14.5 1.5 11.5899 1.5 8H0.5C0.5 12.1421 3.85786 15.5 8 15.5V14.5ZM14.5 8C14.5 11.5899 11.5899 14.5 8 14.5V15.5C12.1421 15.5 15.5 12.1421 15.5 8H14.5ZM8 1.5C11.5899 1.5 14.5 4.41015 14.5 8H15.5C15.5 3.85786 12.1421 0.5 8 0.5V1.5ZM8 0.5C3.85786 0.5 0.5 3.85786 0.5 8H1.5C1.5 4.41015 4.41015 1.5 8 1.5V0.5Z" fill="#0076E1"/>
</svg>
