<svg width="14" height="11" viewBox="0 0 14 11" fill="none" xmlns="http://www.w3.org/2000/svg">
<path fill-rule="evenodd" clip-rule="evenodd" d="M1.48435 0.602819C0.910494 0.934397 0.380405 1.26287 0.306329 1.33276C0.2323 1.40266 0.133532 1.5439 0.0868861 1.64661C0.00700844 1.82238 0.00199578 2.04897 0.0010211 5.50251L0 9.17163L0.117055 9.40658C0.18143 9.53579 0.270359 9.67425 0.314637 9.71435C0.513844 9.89462 2.49087 11 2.61415 11C2.77701 11 3.01688 10.7733 3.01688 10.6194C3.01688 10.5593 2.98662 10.4669 2.94962 10.4141C2.91263 10.3613 2.46878 10.0803 1.96334 9.78968C1.45785 9.49908 0.98689 9.2051 0.916667 9.13636L0.78903 9.01137V5.52372C0.78903 3.31694 0.805878 2.00465 0.83484 1.95043C0.860089 1.90337 1.33843 1.59899 1.89785 1.2741C2.91231 0.684924 3.01688 0.600034 3.01688 0.365553C3.01688 0.236987 2.77038 0 2.63666 0C2.57674 0 2.05821 0.271287 1.48435 0.602819ZM10.9536 0.0816414C10.7553 0.180873 10.684 0.354274 10.763 0.545034C10.8082 0.654245 11.0199 0.797523 11.8385 1.27289C12.3991 1.59848 12.8783 1.90337 12.9036 1.95043C12.9325 2.00465 12.9494 3.31694 12.9494 5.52372V9.01137L12.8217 9.13636C12.7516 9.2051 12.2805 9.49908 11.7751 9.78968C11.2696 10.0803 10.8258 10.3613 10.7888 10.4141C10.6205 10.6543 10.8033 11 11.0986 11C11.2046 11 11.5311 10.8371 12.2262 10.4372C12.7644 10.1277 13.2704 9.82537 13.3507 9.76549C13.431 9.70562 13.5511 9.54749 13.6176 9.41414L13.7384 9.17163V5.50552C13.7384 1.88286 13.7372 1.83705 13.6415 1.63923C13.5882 1.52914 13.464 1.37115 13.3655 1.28811C13.1809 1.13244 11.3745 0.0776034 11.2084 0.028405C11.1571 0.0132278 11.0424 0.0371773 10.9536 0.0816414Z" fill="#0076E1"/>
<path d="M11.0797 3.70981C11.0919 3.67329 11.0984 3.6345 11.0984 3.59466C11.0984 3.4492 11.012 3.31763 10.8785 3.25978L7.25022 1.68692C7.09052 1.61769 6.90948 1.61769 6.74978 1.68692L3.1215 3.25976C2.98804 3.31761 2.90167 3.44918 2.90167 3.59464C2.90167 3.63447 2.90815 3.67325 2.92029 3.70976C2.87793 3.71924 2.83703 3.73632 2.7997 3.76082C2.69691 3.8283 2.635 3.943 2.635 4.06596V8.20377C2.635 8.45528 2.78326 8.68549 3.01645 8.78658L6.58816 10.3349C6.70098 10.3838 6.83084 10.3726 6.93363 10.3051C6.95818 10.289 6.9804 10.2702 7 10.2492C7.0196 10.2702 7.04182 10.289 7.06637 10.3051C7.16916 10.3726 7.29902 10.3838 7.41184 10.3349L10.9836 8.78658C11.2167 8.68549 11.365 8.45528 11.365 8.20377V4.066C11.365 3.94303 11.3031 3.82834 11.2003 3.76086C11.163 3.73636 11.1221 3.71929 11.0797 3.70981Z" fill="#E6ECFF" stroke="#0076E1" stroke-width="0.73" stroke-linejoin="round"/>

</svg>

