<svg width="22" height="24" viewBox="0 0 22 24" fill="none" xmlns="http://www.w3.org/2000/svg">
<path d="M1 10.2858L0.646447 9.93223C0.451184 10.1275 0.451184 10.4441 0.646447 10.6393L1 10.2858ZM10.2858 19.5716L9.93223 19.9251C10.1275 20.1204 10.4441 20.1204 10.6393 19.9251L10.2858 19.5716ZM19.5716 10.2858L19.9251 10.6393C20.0189 10.5456 20.0716 10.4184 20.0716 10.2858H19.5716ZM10.2858 1V0.5C10.1532 0.5 10.026 0.552678 9.93223 0.646447L10.2858 1ZM0.646447 10.6393L9.93223 19.9251L10.6393 19.218L1.35355 9.93223L0.646447 10.6393ZM10.6393 19.9251L19.9251 10.6393L19.218 9.93223L9.93223 19.218L10.6393 19.9251ZM20.0716 10.2858V2.32654H19.0716V10.2858H20.0716ZM18.245 0.5H10.2858V1.5H18.245V0.5ZM9.93223 0.646447L0.646447 9.93223L1.35355 10.6393L10.6393 1.35355L9.93223 0.646447ZM20.0716 2.32654C20.0716 1.31777 19.2538 0.5 18.245 0.5V1.5C18.7015 1.5 19.0716 1.87006 19.0716 2.32654H20.0716ZM14.2654 7.1327C13.8089 7.1327 13.4389 6.76265 13.4389 6.30616H12.4389C12.4389 7.31493 13.2566 8.1327 14.2654 8.1327V7.1327ZM15.0919 6.30616C15.0919 6.76265 14.7219 7.1327 14.2654 7.1327V8.1327C15.2742 8.1327 16.0919 7.31493 16.0919 6.30616H15.0919ZM14.2654 5.47962C14.7219 5.47962 15.0919 5.84968 15.0919 6.30616H16.0919C16.0919 5.29739 15.2742 4.47962 14.2654 4.47962V5.47962ZM14.2654 4.47962C13.2566 4.47962 12.4389 5.29739 12.4389 6.30616H13.4389C13.4389 5.84968 13.8089 5.47962 14.2654 5.47962V4.47962Z" fill="#0076E1"/>
<path d="M19.7351 22.564C19.9446 22.8641 19.7299 23.2758 19.364 23.2758L3.98863 23.2758C3.62268 23.2758 3.408 22.8641 3.61748 22.564L11.3051 11.5525C11.4853 11.2944 11.8673 11.2944 12.0474 11.5525L19.7351 22.564L20.2142 22.2295L19.7351 22.564Z" fill="#E6ECFF" stroke="#0076E1" stroke-width="1.16863" stroke-linejoin="round"/>
<path d="M12.0667 21.0771V20.4927H10.8981V21.0771H12.0667ZM10.8981 21.0877V21.672H12.0667V21.0877H10.8981ZM10.8981 14.1577V18.4158H12.0667V14.1577H10.8981ZM10.8981 21.0771V21.0877H12.0667V21.0771H10.8981Z" fill="#0076E1"/>
</svg>
