<svg width="21" height="24" viewBox="0 0 21 24" fill="none" xmlns="http://www.w3.org/2000/svg">
<path d="M1 10.2858L0.646447 9.93223C0.451184 10.1275 0.451184 10.4441 0.646447 10.6393L1 10.2858ZM10.2858 19.5716L9.93223 19.9251C10.1275 20.1204 10.4441 20.1204 10.6393 19.9251L10.2858 19.5716ZM19.5716 10.2858L19.9251 10.6393C20.0189 10.5456 20.0716 10.4184 20.0716 10.2858H19.5716ZM10.2858 1V0.5C10.1532 0.5 10.026 0.552678 9.93223 0.646447L10.2858 1ZM0.646447 10.6393L9.93223 19.9251L10.6393 19.218L1.35355 9.93223L0.646447 10.6393ZM10.6393 19.9251L19.9251 10.6393L19.218 9.93223L9.93223 19.218L10.6393 19.9251ZM20.0716 10.2858V2.32654H19.0716V10.2858H20.0716ZM18.245 0.5H10.2858V1.5H18.245V0.5ZM9.93223 0.646447L0.646447 9.93223L1.35355 10.6393L10.6393 1.35355L9.93223 0.646447ZM20.0716 2.32654C20.0716 1.31777 19.2538 0.5 18.245 0.5V1.5C18.7015 1.5 19.0716 1.87006 19.0716 2.32654H20.0716ZM14.2654 7.1327C13.8089 7.1327 13.4389 6.76265 13.4389 6.30616H12.4389C12.4389 7.31493 13.2566 8.1327 14.2654 8.1327V7.1327ZM15.0919 6.30616C15.0919 6.76265 14.7219 7.1327 14.2654 7.1327V8.1327C15.2742 8.1327 16.0919 7.31493 16.0919 6.30616H15.0919ZM14.2654 5.47962C14.7219 5.47962 15.0919 5.84968 15.0919 6.30616H16.0919C16.0919 5.29739 15.2742 4.47962 14.2654 4.47962V5.47962ZM14.2654 4.47962C13.2566 4.47962 12.4389 5.29739 12.4389 6.30616H13.4389C13.4389 5.84968 13.8089 5.47962 14.2654 5.47962V4.47962Z" fill="#0076E1"/>
<mask id="path-2-inside-1_211_168180" fill="white">
<path fill-rule="evenodd" clip-rule="evenodd" d="M10.0033 21L12.0046 24L14.0059 21H18.0085C18.5618 21 19.0091 20.553 19.0091 20V11C19.0091 10.447 18.5618 10 18.0085 10H6.00065C5.44729 10 5 10.447 5 11V20C5 20.553 5.44729 21 6.00065 21H10.0033Z"/>
</mask>
<path fill-rule="evenodd" clip-rule="evenodd" d="M10.0033 21L12.0046 24L14.0059 21H18.0085C18.5618 21 19.0091 20.553 19.0091 20V11C19.0091 10.447 18.5618 10 18.0085 10H6.00065C5.44729 10 5 10.447 5 11V20C5 20.553 5.44729 21 6.00065 21H10.0033Z" fill="#E6ECFF"/>
<path d="M9.50293 17.5708H14.5062V16.4383H9.50293V17.5708ZM8.50228 14.5688H15.5068V13.4364H8.50228V14.5688ZM10.0033 21L10.9453 20.3715C10.7353 20.0567 10.3818 19.8675 10.0033 19.8675V21ZM12.0046 24L11.0625 24.6285C11.2726 24.9433 11.626 25.1325 12.0046 25.1325C12.3831 25.1325 12.7366 24.9433 12.9466 24.6285L12.0046 24ZM14.0059 21V19.8675C13.6274 19.8675 13.2739 20.0567 13.0638 20.3715L14.0059 21ZM9.06119 21.6285L11.0625 24.6285L12.9466 23.3715L10.9453 20.3715L9.06119 21.6285ZM12.9466 24.6285L14.9479 21.6285L13.0638 20.3715L11.0625 23.3715L12.9466 24.6285ZM14.0059 22.1325H18.0085V19.8675H14.0059V22.1325ZM18.0085 22.1325C19.1866 22.1325 20.1416 21.1791 20.1416 20H17.8767C17.8767 19.9269 17.9371 19.8675 18.0085 19.8675V22.1325ZM20.1416 20V11H17.8767V20H20.1416ZM20.1416 11C20.1416 9.82087 19.1866 8.86755 18.0085 8.86755V11.1325C17.9371 11.1325 17.8767 11.0731 17.8767 11H20.1416ZM18.0085 8.86755H6.00065V11.1325H18.0085V8.86755ZM6.00065 8.86755C4.82255 8.86755 3.86755 9.82087 3.86755 11H6.13245C6.13245 11.0731 6.07203 11.1325 6.00065 11.1325V8.86755ZM3.86755 11V20H6.13245V11H3.86755ZM3.86755 20C3.86755 21.1791 4.82255 22.1325 6.00065 22.1325V19.8675C6.07203 19.8675 6.13245 19.9269 6.13245 20H3.86755ZM6.00065 22.1325H10.0033V19.8675H6.00065V22.1325Z" fill="#0076E1" mask="url(#path-2-inside-1_211_168180)"/>
</svg>
