<svg width="19" height="19" viewBox="0 0 19 19" fill="none" xmlns="http://www.w3.org/2000/svg">
<path d="M9.5 1L9.79062 0.593133C9.61677 0.468956 9.38323 0.468956 9.20938 0.593133L9.5 1ZM18 7.07143H18.5C18.5 6.90995 18.422 6.75842 18.2906 6.66456L18 7.07143ZM18 11.9286L18.2906 12.3354C18.422 12.2416 18.5 12.09 18.5 11.9286H18ZM9.5 18L9.20938 18.4069C9.38323 18.531 9.61677 18.531 9.79062 18.4069L9.5 18ZM1 11.9286H0.5C0.5 12.09 0.577983 12.2416 0.709381 12.3354L1 11.9286ZM1 7.07143L0.709381 6.66456C0.577983 6.75842 0.5 6.90995 0.5 7.07143H1ZM9.20938 1.40687L17.7094 7.4783L18.2906 6.66456L9.79062 0.593133L9.20938 1.40687ZM17.5 7.07143V11.9286H18.5V7.07143H17.5ZM17.7094 11.5217L9.20938 17.5931L9.79062 18.4069L18.2906 12.3354L17.7094 11.5217ZM9.79062 17.5931L1.29062 11.5217L0.709381 12.3354L9.20938 18.4069L9.79062 17.5931ZM1.5 11.9286V7.07143H0.5V11.9286H1.5ZM1.29062 7.4783L9.79062 1.40687L9.20938 0.593133L0.709381 6.66456L1.29062 7.4783ZM1.29062 12.3354L9.79062 6.26401L9.20938 5.45028L0.709381 11.5217L1.29062 12.3354ZM9.20938 6.26401L17.7094 12.3354L18.2906 11.5217L9.79062 5.45028L9.20938 6.26401ZM0.709381 7.4783L9.20938 13.5497L9.79062 12.736L1.29062 6.66456L0.709381 7.4783ZM9.79062 13.5497L18.2906 7.4783L17.7094 6.66456L9.20938 12.736L9.79062 13.5497ZM9 1V5.85714H10V1H9ZM9 13.1429V18H10V13.1429H9Z" fill="#7C7C7C"/>
</svg>
