<svg width="16" height="16" viewBox="0 0 16 16" fill="none" xmlns="http://www.w3.org/2000/svg">
<path d="M2.79688 10.9004H13.1969V9.90039H2.79688V10.9004ZM4.49687 10.4004V6.40039H3.49687V10.4004H4.49687ZM11.4969 6.40039V10.4004H12.4969V6.40039H11.4969ZM7.99687 2.90039C9.92987 2.90039 11.4969 4.46739 11.4969 6.40039H12.4969C12.4969 3.91511 10.4822 1.90039 7.99687 1.90039V2.90039ZM4.49687 6.40039C4.49687 4.46739 6.06388 2.90039 7.99687 2.90039V1.90039C5.51159 1.90039 3.49687 3.91511 3.49687 6.40039H4.49687ZM5.89687 11.6004V12.0004H6.89687V11.6004H5.89687ZM10.0969 12.0004V11.6004H9.09687V12.0004H10.0969ZM7.99687 14.1004C9.15667 14.1004 10.0969 13.1602 10.0969 12.0004H9.09687C9.09687 12.6079 8.60439 13.1004 7.99687 13.1004V14.1004ZM5.89687 12.0004C5.89687 13.1602 6.83708 14.1004 7.99687 14.1004V13.1004C7.38936 13.1004 6.89687 12.6079 6.89687 12.0004H5.89687Z" fill="#959FAE"/>
</svg>
