<svg width="25" height="25" viewBox="0 0 25 25" fill="none" xmlns="http://www.w3.org/2000/svg">
<path d="M0 12.4863C0 5.85553 5.15164 0.429291 11.6667 0V6.70574C8.83976 7.11054 6.66667 9.54437 6.66667 12.4863C6.66667 15.7115 9.27834 18.326 12.5 18.326C13.8103 18.326 15.0197 17.8935 15.9935 17.1634L20.7301 21.9051C18.5313 23.8322 15.6519 25 12.5 25C5.59644 25 0 19.3974 0 12.4863Z" fill="#0076E1"/>
<path d="M21.9086 20.7253C23.8335 18.5242 25 15.6416 25 12.4863C25 10.7619 24.6516 9.11895 24.0214 7.62417L17.9253 10.3365C18.1886 11.0018 18.3333 11.7272 18.3333 12.4863C18.3333 13.798 17.9013 15.0087 17.172 15.9836L21.9086 20.7253Z" fill="#0076E1"/>
<path d="M13.3333 6.70574V0C17.5693 0.279118 21.2289 2.67065 23.2709 6.13221L17.0902 8.88222C16.1844 7.72771 14.8534 6.9234 13.3333 6.70574Z" fill="#0076E1"/>
</svg>
