<svg width="24" height="15" viewBox="0 0 24 15" fill="none" xmlns="http://www.w3.org/2000/svg">
<path d="M6.62774 5.10778C6.62774 5.3972 6.65902 5.63186 6.71378 5.80394C6.77635 5.97603 6.85457 6.16376 6.96408 6.36713C7.00319 6.4297 7.01884 6.49228 7.01884 6.54704C7.01884 6.62526 6.97191 6.70348 6.87022 6.7817L6.37743 7.11022C6.30703 7.15715 6.23663 7.18062 6.17406 7.18062C6.09584 7.18062 6.01762 7.14151 5.9394 7.07111C5.82989 6.95378 5.73603 6.82863 5.65781 6.70348C5.57958 6.5705 5.50136 6.42188 5.41532 6.24198C4.8052 6.9616 4.03865 7.32142 3.11565 7.32142C2.4586 7.32142 1.93452 7.13369 1.55124 6.75823C1.16796 6.38277 0.972412 5.88216 0.972412 5.2564C0.972412 4.59153 1.20707 4.05181 1.68422 3.64506C2.16136 3.23832 2.79494 3.03495 3.60061 3.03495C3.86656 3.03495 4.14033 3.05841 4.42975 3.09752C4.71916 3.13663 5.0164 3.19921 5.32928 3.26961V2.6986C5.32928 2.10412 5.20413 1.68956 4.96164 1.44707C4.71134 1.20459 4.28895 1.08726 3.68665 1.08726C3.41288 1.08726 3.13129 1.11855 2.84188 1.18895C2.55246 1.25935 2.27087 1.34539 1.9971 1.4549C1.87194 1.50965 1.77808 1.54094 1.72333 1.55658C1.66857 1.57223 1.62946 1.58005 1.59817 1.58005C1.48867 1.58005 1.43391 1.50183 1.43391 1.33757V0.954287C1.43391 0.829135 1.44956 0.73527 1.48867 0.680516C1.52778 0.625762 1.59817 0.571008 1.70768 0.516254C1.98145 0.375457 2.30998 0.258127 2.69326 0.164263C3.07654 0.0625762 3.48328 0.015644 3.91349 0.015644C4.84431 0.015644 5.52483 0.226839 5.96286 0.649228C6.39308 1.07162 6.61209 1.71302 6.61209 2.57345V5.10778H6.62774ZM3.45199 6.29673C3.71012 6.29673 3.97607 6.2498 4.25766 6.15593C4.53926 6.06207 4.78956 5.88998 5.00075 5.65532C5.12591 5.50671 5.21977 5.34244 5.2667 5.15471C5.31364 4.96699 5.34492 4.74015 5.34492 4.4742V4.14567C5.11809 4.09092 4.8756 4.04399 4.6253 4.0127C4.37499 3.98141 4.13251 3.96577 3.89003 3.96577C3.36595 3.96577 2.98267 4.06745 2.72455 4.27865C2.46642 4.48984 2.34127 4.78708 2.34127 5.17818C2.34127 5.54582 2.43513 5.81959 2.63068 6.00732C2.81841 6.20287 3.09218 6.29673 3.45199 6.29673V6.29673ZM9.73308 7.14151C9.59228 7.14151 9.49842 7.11804 9.43584 7.06329C9.37327 7.01636 9.31851 6.90685 9.27158 6.75823L7.4334 0.711804C7.38647 0.555364 7.36301 0.453677 7.36301 0.398923C7.36301 0.273771 7.42558 0.203373 7.55073 0.203373H8.31729C8.46591 0.203373 8.5676 0.226839 8.62235 0.281593C8.68493 0.328525 8.73186 0.438033 8.77879 0.586652L10.0929 5.76483L11.3131 0.586652C11.3522 0.430211 11.3992 0.328525 11.4617 0.281593C11.5243 0.234661 11.6338 0.203373 11.7746 0.203373H12.4004C12.549 0.203373 12.6507 0.226839 12.7133 0.281593C12.7758 0.328525 12.8306 0.438033 12.8619 0.586652L14.0978 5.82741L15.451 0.586652C15.4979 0.430211 15.5527 0.328525 15.6074 0.281593C15.67 0.234661 15.7717 0.203373 15.9125 0.203373H16.6399C16.7651 0.203373 16.8355 0.265949 16.8355 0.398923C16.8355 0.438033 16.8277 0.477144 16.8198 0.524076C16.812 0.571008 16.7964 0.633584 16.7651 0.719626L14.88 6.76605C14.833 6.92249 14.7783 7.02418 14.7157 7.07111C14.6531 7.11804 14.5514 7.14933 14.4185 7.14933H13.7458C13.5972 7.14933 13.4955 7.12586 13.4329 7.07111C13.3703 7.01636 13.3156 6.91467 13.2843 6.75823L12.0719 1.71302L10.8673 6.75041C10.8282 6.90685 10.7812 7.00853 10.7187 7.06329C10.6561 7.11804 10.5466 7.14151 10.4058 7.14151H9.73308ZM19.7844 7.3527C19.3776 7.3527 18.9709 7.30577 18.5798 7.21191C18.1887 7.11804 17.8836 7.01636 17.6803 6.89903C17.5551 6.82863 17.4691 6.75041 17.4378 6.68001C17.4065 6.60961 17.3908 6.53139 17.3908 6.46099V6.06207C17.3908 5.89781 17.4534 5.81959 17.5707 5.81959C17.6177 5.81959 17.6646 5.82741 17.7115 5.84305C17.7585 5.8587 17.8289 5.88999 17.9071 5.92127C18.173 6.0386 18.4625 6.13247 18.7675 6.19504C19.0804 6.25762 19.3855 6.28891 19.6983 6.28891C20.1911 6.28891 20.5744 6.20287 20.8404 6.03078C21.1063 5.8587 21.2471 5.60839 21.2471 5.28769C21.2471 5.06867 21.1767 4.88877 21.0359 4.74015C20.8951 4.59153 20.6292 4.45855 20.2459 4.3334L19.1117 3.98141C18.5407 3.8015 18.1183 3.53556 17.8602 3.18356C17.602 2.8394 17.4691 2.45612 17.4691 2.04937C17.4691 1.72085 17.5395 1.43143 17.6803 1.18113C17.8211 0.930821 18.0088 0.711804 18.2434 0.53972C18.4781 0.359813 18.7441 0.226839 19.0569 0.132974C19.3698 0.0391101 19.6983 0 20.0425 0C20.2146 0 20.3945 0.00782202 20.5666 0.0312881C20.7465 0.0547542 20.9108 0.0860423 21.075 0.11733C21.2315 0.15644 21.3801 0.195551 21.5209 0.242483C21.6617 0.289415 21.7712 0.336347 21.8494 0.383279C21.9589 0.445855 22.0371 0.508432 22.0841 0.57883C22.131 0.641406 22.1545 0.727448 22.1545 0.836957V1.20459C22.1545 1.36885 22.0919 1.4549 21.9745 1.4549C21.912 1.4549 21.8103 1.42361 21.6773 1.36103C21.2315 1.15766 20.7308 1.05597 20.1755 1.05597C19.7296 1.05597 19.3776 1.12637 19.1352 1.27499C18.8927 1.42361 18.7675 1.65045 18.7675 1.97115C18.7675 2.19017 18.8457 2.3779 19.0022 2.52651C19.1586 2.67513 19.448 2.82375 19.8626 2.95673L20.9733 3.30872C21.5365 3.48862 21.9433 3.73893 22.1857 4.05963C22.4282 4.38033 22.5456 4.74797 22.5456 5.15471C22.5456 5.49106 22.4752 5.79612 22.3422 6.06207C22.2014 6.32802 22.0137 6.56268 21.7712 6.75041C21.5287 6.94596 21.2393 7.08675 20.9029 7.18844C20.5509 7.29795 20.1833 7.3527 19.7844 7.3527V7.3527Z" fill="#252F3E"/>
<path fill-rule="evenodd" clip-rule="evenodd" d="M21.2628 11.1543C18.6893 13.055 14.9504 14.064 11.7355 14.064C7.23005 14.064 3.17042 12.398 0.104191 9.62896C-0.138292 9.40994 0.0807246 9.11271 0.37014 9.28479C3.68668 11.209 7.7776 12.3745 12.0093 12.3745C14.8643 12.3745 18.001 11.78 20.8873 10.5598C21.3175 10.3642 21.6852 10.8414 21.2628 11.1543V11.1543Z" fill="#FF9900"/>
<path fill-rule="evenodd" clip-rule="evenodd" d="M22.3344 9.93391C22.0059 9.51152 20.1599 9.73054 19.323 9.83222C19.0727 9.86351 19.0335 9.6445 19.2604 9.48023C20.7309 8.44773 23.1479 8.74496 23.4295 9.08913C23.7111 9.44112 23.3513 11.8581 21.9746 13.0158C21.7634 13.1957 21.5601 13.1018 21.6539 12.8672C21.9668 12.0928 22.663 10.3485 22.3344 9.93391V9.93391Z" fill="#FF9900"/>
</svg>
