<svg width="24" height="19" viewBox="0 0 24 19" fill="none" xmlns="http://www.w3.org/2000/svg">
<path d="M11.103 17.5967C12.9897 17.264 14.8762 16.9302 16.7625 16.5951L16.8156 16.5838L13.9045 13.1211C12.3034 11.2167 10.9935 9.65111 10.9935 9.64221C10.9935 9.62514 13.9994 1.34736 14.0163 1.31785C14.0219 1.3081 16.0676 4.83979 18.975 9.87913C21.6971 14.5969 23.9412 18.4868 23.9621 18.5232L24 18.5894L14.7484 18.5882L5.49673 18.587L11.103 17.5967ZM0 16.5407C0 16.5359 1.37168 14.1548 3.04821 11.2494L6.09642 5.96675L9.64873 2.98572C11.6024 1.34614 13.2063 0.00250558 13.2127 6.68168e-05C13.2191 -0.00237195 13.1935 0.0622553 13.1555 0.14371C13.1177 0.225287 11.382 3.9483 9.29828 8.41722L5.50966 16.5426L2.75483 16.5461C1.23975 16.5481 0 16.5456 0 16.5407Z" fill="#0089D6"/>
</svg>
