<svg width="24" height="24" viewBox="0 0 24 24" fill="none" xmlns="http://www.w3.org/2000/svg">
<path d="M14.1018 7.81604L14.6321 7.28571L13.5714 6.22505L13.0411 6.75538L14.1018 7.81604ZM8.85714 12L8.32682 11.4697L7.79648 12L8.32681 12.5303L8.85714 12ZM13.0411 17.2446L13.5714 17.7749L14.6321 16.7143L14.1018 16.184L13.0411 17.2446ZM13.0411 6.75538L8.32682 11.4697L9.38748 12.5303L14.1018 7.81604L13.0411 6.75538ZM8.32681 12.5303L13.0411 17.2446L14.1018 16.184L9.38748 11.4697L8.32681 12.5303ZM12 22.25C6.33908 22.25 1.75 17.6609 1.75 12L0.25 12C0.249999 18.4893 5.51065 23.75 12 23.75L12 22.25ZM22.25 12C22.25 17.6609 17.6609 22.25 12 22.25L12 23.75C18.4893 23.75 23.75 18.4893 23.75 12H22.25ZM12 1.75C17.6609 1.75 22.25 6.33908 22.25 12H23.75C23.75 5.51066 18.4893 0.250001 12 0.25V1.75ZM12 0.25C5.51066 0.249999 0.250001 5.51065 0.25 12L1.75 12C1.75 6.33908 6.33908 1.75 12 1.75V0.25Z" fill="#0076E1"/>
</svg>
