<svg width="22" height="22" viewBox="0 0 22 22" fill="none" xmlns="http://www.w3.org/2000/svg">
<path d="M4.99977 4.00002V6.00002M8.99977 4.00002V6.00002M4.99977 16V18M8.99977 16V18M12.9998 5.00002H16.9998M12.9998 17H16.9998M18.3198 9.00002H3.68977C2.20977 9.00002 1.00977 7.79002 1.00977 6.32002V3.69002C1.00977 2.21002 2.21977 1.01001 3.68977 1.01001H18.3198C19.7998 1.01001 20.9998 2.22002 20.9998 3.69002V6.32002C20.9998 7.79002 19.7898 9.00002 18.3198 9.00002ZM18.3198 21H3.68977C2.20977 21 1.00977 19.79 1.00977 18.32V15.69C1.00977 14.21 2.21977 13.01 3.68977 13.01H18.3198C19.7998 13.01 20.9998 14.22 20.9998 15.69V18.32C20.9998 19.79 19.7898 21 18.3198 21Z" stroke="#0076E1" stroke-width="1.5" stroke-linecap="round" stroke-linejoin="round"/>
</svg>
