<svg width="30" height="26" viewBox="0 0 30 26" fill="none" xmlns="http://www.w3.org/2000/svg">
<path d="M21.0541 25.3041H5.17913C2.3127 25.3041 0.714844 23.7063 0.714844 21.7327V4.28627C0.714844 3.33907 1.09112 2.43066 1.76089 1.76089C2.43066 1.09112 3.33907 0.714844 4.28627 0.714844L21.7241 0.714844C22.6713 0.714844 23.5797 1.09112 24.2495 1.76089C24.9193 2.43066 25.2956 3.33907 25.2956 4.28627V15.4648" stroke="#1D85E5" stroke-linecap="round" stroke-linejoin="round"/>
<path d="M29.2508 21.2514C29.2508 19.062 27.476 17.2871 25.2866 17.2871C23.0971 17.2871 21.3223 19.062 21.3223 21.2514C21.3223 23.4408 23.0971 25.2157 25.2866 25.2157C27.476 25.2157 29.2508 23.4408 29.2508 21.2514Z" stroke="#1D85E5" stroke-linecap="round" stroke-linejoin="round"/>
<path d="M13.0457 12.2769C14.224 12.2769 15.1793 11.3217 15.1793 10.1433C15.1793 8.965 14.224 8.00977 13.0457 8.00977C11.8673 8.00977 10.9121 8.965 10.9121 10.1433C10.9121 11.3217 11.8673 12.2769 13.0457 12.2769Z" stroke="#1D85E5" stroke-linecap="round" stroke-linejoin="round"/>
<path d="M25.2871 21.4744V23.0637M8.28711 18.0094C8.65162 17.035 9.30549 16.1955 10.1609 15.6034C11.0164 15.0114 12.0325 14.6952 13.0728 14.6973V14.6973C15.13 14.6973 16.9871 15.928 17.7871 17.8223L8.28711 18.0094Z" stroke="#1D85E5" stroke-linecap="round" stroke-linejoin="round"/>
<path d="M25.2866 20.6786C25.681 20.6786 26.0008 20.3588 26.0008 19.9643C26.0008 19.5698 25.681 19.25 25.2866 19.25C24.8921 19.25 24.5723 19.5698 24.5723 19.9643C24.5723 20.3588 24.8921 20.6786 25.2866 20.6786Z" fill="#0076E1"/>
</svg>
