<svg width="19" height="23" viewBox="0 0 19 23" fill="none" xmlns="http://www.w3.org/2000/svg">
<path d="M9.56745 5.50977C7.11643 5.50977 5.12305 7.8506 5.12305 10.7283C5.12305 13.1933 7.17352 15.7299 7.23136 15.8738C7.29227 16.0236 7.42076 16.1193 7.56242 16.1193H11.8659C12.0141 16.1193 12.1479 16.0146 12.2046 15.8534C12.2541 15.714 14.0124 12.8916 14.0124 10.7283C14.0126 7.85082 12.0181 5.50977 9.56745 5.50977Z" fill="#FBE308"/>
<path d="M11.6829 16.8516H7.68883C7.48607 16.8516 7.32227 17.0448 7.32227 17.282C7.32227 17.5194 7.48607 17.7122 7.68883 17.7122H11.683C11.8858 17.7122 12.0498 17.5194 12.0498 17.282C12.0496 17.0448 11.8856 16.8516 11.6829 16.8516Z" fill="#0076E1"/>
<path d="M11.3167 18.4434H8.05485C7.85248 18.4434 7.68848 18.6355 7.68848 18.8736C7.68848 19.1112 7.85248 19.304 8.05485 19.304H11.3167C11.5195 19.304 11.6827 19.1112 11.6827 18.8736C11.6827 18.6357 11.5195 18.4434 11.3167 18.4434Z" fill="#0076E1"/>
<path d="M10.4771 20.168H8.80464C8.60188 20.168 8.4375 20.3608 8.4375 20.5988C8.4375 21.3774 8.97761 22.0106 9.64067 22.0106C10.3037 22.0106 10.8436 21.3774 10.8436 20.5988C10.8436 20.3608 10.6795 20.168 10.4771 20.168Z" fill="#0076E1"/>
<path d="M3.25378 10.3848H1.12809C0.926291 10.3848 0.761719 10.5776 0.761719 10.8152C0.761719 11.0524 0.926291 11.2452 1.12809 11.2452H3.25378C3.45654 11.2452 3.62015 11.0524 3.62015 10.8152C3.62015 10.5776 3.45654 10.3848 3.25378 10.3848Z" fill="#0076E1"/>
<path d="M5.34149 5.2682L3.83858 3.50305C3.69482 3.33492 3.46323 3.33492 3.32043 3.50305C3.17705 3.67118 3.17705 3.94355 3.32043 4.11191L4.82296 5.87661C4.96576 6.04474 5.1983 6.04474 5.34149 5.87661C5.48449 5.70848 5.48449 5.43611 5.34149 5.2682Z" fill="#0076E1"/>
<path d="M9.53138 3.81361C9.73318 3.81317 9.89737 3.6206 9.89737 3.38297V0.887C9.89737 0.649598 9.73318 0.457031 9.53138 0.457031C9.32863 0.457031 9.16406 0.649598 9.16406 0.887V3.3832C9.16406 3.62082 9.32863 3.81317 9.53138 3.81361Z" fill="#0076E1"/>
<path d="M15.7572 3.46011C15.6144 3.29198 15.3821 3.29198 15.2387 3.45989L13.7362 5.22506C13.5932 5.39252 13.5932 5.66535 13.7362 5.83325C13.8793 6.00139 14.1109 6.00139 14.2543 5.83325L15.7572 4.06853C15.9006 3.9004 15.9006 3.62802 15.7572 3.46011Z" fill="#0076E1"/>
<path d="M17.9862 10.3223H15.8605C15.6581 10.3223 15.4941 10.5151 15.4941 10.7522C15.4941 10.9894 15.6581 11.1827 15.8605 11.1827H17.9862C18.1886 11.1827 18.3529 10.9894 18.3526 10.7522C18.3526 10.5148 18.1886 10.3223 17.9862 10.3223Z" fill="#0076E1"/>
</svg>
