<svg width="16" height="18" viewBox="0 0 16 18" fill="none" xmlns="http://www.w3.org/2000/svg">
<path d="M10.3323 17.3384C9.35278 17.3384 8.39529 17.0479 7.58087 16.5037C6.76646 15.9596 6.1317 15.1861 5.75686 14.2812C5.38203 13.3762 5.28395 12.3805 5.47504 11.4198C5.66613 10.4591 6.1378 9.57672 6.8304 8.88411C7.52301 8.19151 8.40544 7.71984 9.3661 7.52875C10.3268 7.33767 11.3225 7.43574 12.2275 7.81057C13.1324 8.18541 13.9058 8.82017 14.45 9.63458C14.9942 10.449 15.2846 11.4065 15.2846 12.386C15.2846 13.6994 14.7629 14.9591 13.8341 15.8878C12.9054 16.8166 11.6457 17.3384 10.3323 17.3384ZM10.3323 8.67169C9.59765 8.67169 8.87953 8.88953 8.26872 9.29766C7.65791 9.70579 7.18184 10.2859 6.90071 10.9646C6.61959 11.6433 6.54603 12.3901 6.68935 13.1106C6.83267 13.8311 7.18642 14.4929 7.70587 15.0124C8.22532 15.5318 8.88714 15.8856 9.60764 16.0289C10.3281 16.1722 11.075 16.0987 11.7537 15.8175C12.4324 15.5364 13.0124 15.0603 13.4206 14.4495C13.8287 13.8387 14.0466 13.1206 14.0466 12.386C14.0466 11.4009 13.6552 10.4561 12.9587 9.75958C12.2621 9.06302 11.3174 8.67169 10.3323 8.67169Z" fill="#1D1929"/>
<path d="M11.6147 14.3662L10.332 12.9003V10.4043H11.3225V12.4362L12.313 13.5682L11.6147 14.3662Z" fill="#1D1929"/>
<path d="M14.2944 2.78571C14.2944 2.48261 14.1727 2.19192 13.9559 1.97759C13.7392 1.76326 13.4453 1.64286 13.1388 1.64286H10.8277V0.5H9.67218V1.64286H5.04996V0.5H3.8944V1.64286H1.58329C1.27682 1.64286 0.982897 1.76326 0.766189 1.97759C0.54948 2.19192 0.427734 2.48261 0.427734 2.78571V14.2143C0.427734 14.5174 0.54948 14.8081 0.766189 15.0224C0.982897 15.2367 1.27682 15.3571 1.58329 15.3571H3.8944V14.2143H1.58329V2.78571H3.8944V3.92857H5.04996V2.78571H9.67218V3.92857H10.8277V2.78571H13.1388V6.21429H14.2944V2.78571Z" fill="#1D1929"/>
</svg>
