<svg width="13" height="13" viewBox="0 0 13 13" fill="none" xmlns="http://www.w3.org/2000/svg">
<path d="M1 12H0.586207V12.4138H1V12ZM5.96552 4.55172L6.29655 4.30345C6.21598 4.19601 6.08828 4.13436 5.95404 4.13809C5.8198 4.14182 5.69571 4.21046 5.62122 4.32219L5.96552 4.55172ZM8.44828 7.86207L8.11724 8.11034C8.1964 8.2159 8.32116 8.27737 8.45309 8.27583C8.58502 8.2743 8.70831 8.20994 8.78499 8.10258L8.44828 7.86207ZM0.586207 0V12H1.41379V0H0.586207ZM1 12.4138H13V11.5862H1V12.4138ZM2.99947 9.74677L6.30981 4.78126L5.62122 4.32219L2.31088 9.28771L2.99947 9.74677ZM5.63448 4.8L8.11724 8.11034L8.77931 7.61379L6.29655 4.30345L5.63448 4.8ZM8.78499 8.10258L12.9229 2.30948L12.2495 1.82845L8.11156 7.62156L8.78499 8.10258Z" fill="#1D1929"/>
</svg>
