<svg width="31" height="24" viewBox="0 0 31 24" fill="none" xmlns="http://www.w3.org/2000/svg">
<path d="M25.88 10.507C26.085 9.96367 26.2 9.36953 26.2 8.75C26.2 6.05859 24.05 3.875 21.4 3.875C20.415 3.875 19.495 4.17969 18.735 4.69766C17.35 2.26016 14.765 0.625 11.8 0.625C7.38 0.625 3.8 4.26094 3.8 8.75C3.8 8.88711 3.805 9.02422 3.81 9.16133C1.01 10.1617 -1 12.8734 -1 16.0625C-1 20.0996 2.225 23.375 6.2 23.375H24.6C28.135 23.375 31 20.4652 31 16.875C31 13.7316 28.8 11.1063 25.88 10.507ZM18.67 13.625H15.4V19.3125C15.4 19.7594 15.04 20.125 14.6 20.125H12.2C11.76 20.125 11.4 19.7594 11.4 19.3125V13.625H8.13C7.415 13.625 7.06 12.7516 7.565 12.2387L12.835 6.88633C13.145 6.57148 13.655 6.57148 13.965 6.88633L19.235 12.2387C19.74 12.7516 19.38 13.625 18.67 13.625Z" fill="#0076E1"/>
</svg>
