<svg width="15" height="15" viewBox="0 0 15 15" fill="none" xmlns="http://www.w3.org/2000/svg">
<path d="M1.37191 1.01533L1.37191 9.68628C0.575439 9.92467 0 10.5944 0 11.3818C0 12.1691 0.575439 12.8388 1.37191 13.0772V14.4307C1.37191 14.7451 1.65865 15 2.01233 15C2.36601 15 2.65275 14.7451 2.65275 14.4307V13.0772C3.44922 12.8388 4.02466 12.1691 4.02466 11.3817C4.02466 10.5943 3.44922 9.92463 2.65275 9.68625L2.65275 1.01529C2.65275 0.700881 2.36601 0.445984 2.01233 0.445984C1.65865 0.445984 1.37191 0.700881 1.37191 1.01533ZM2.74382 11.3818C2.74382 11.7403 2.41567 12.032 2.01233 12.032C1.60899 12.032 1.28084 11.7403 1.28084 11.3818C1.28084 11.0232 1.60899 10.7315 2.01233 10.7315C2.41567 10.7315 2.74382 11.0232 2.74382 11.3818Z" fill="#1D1929"/>
<path d="M6.85921 1.01533V2.36883C6.06274 2.60722 5.4873 3.27696 5.4873 4.06431C5.4873 4.85166 6.06274 5.52135 6.85921 5.75974V14.4307C6.85921 14.7451 7.14595 15 7.49963 15C7.85332 15 8.14005 14.7451 8.14005 14.4307V5.75974C8.93652 5.52135 9.51196 4.85162 9.51196 4.06427C9.51196 3.27692 8.93652 2.60719 8.14005 2.3688V1.01529C8.14005 0.700881 7.85332 0.445984 7.49963 0.445984C7.14595 0.445984 6.85921 0.700881 6.85921 1.01533ZM8.23112 4.06427C8.23112 4.42282 7.90297 4.71453 7.49963 4.71453C7.0963 4.71453 6.76815 4.42282 6.76815 4.06427C6.76815 3.70572 7.0963 3.41401 7.49963 3.41401C7.90297 3.41401 8.23112 3.70572 8.23112 4.06427Z" fill="#1D1929"/>
<path d="M12.3465 1.01533V7.24711C11.55 7.4855 10.9746 8.15519 10.9746 8.94258C10.9746 9.72997 11.55 10.3997 12.3465 10.638V14.4307C12.3465 14.7451 12.6333 15 12.9869 15C13.3406 15 13.6274 14.7451 13.6274 14.4307V10.638C14.4238 10.3997 14.9993 9.72997 14.9993 8.94258C14.9993 8.15519 14.4238 7.4855 13.6274 7.24711V1.01529C13.6274 0.700881 13.3406 0.445984 12.9869 0.445984C12.6333 0.445984 12.3465 0.700881 12.3465 1.01533ZM13.7185 8.94258C13.7185 9.30113 13.3903 9.59284 12.987 9.59284C12.5836 9.59284 12.2555 9.30113 12.2555 8.94258C12.2555 8.58403 12.5836 8.29232 12.9869 8.29232C13.3903 8.29232 13.7185 8.58403 13.7185 8.94258Z" fill="#1D1929"/>
</svg>
