<svg width="25" height="24" viewBox="0 0 25 24" fill="none" xmlns="http://www.w3.org/2000/svg">
<path d="M19.4287 22.75C19.0187 22.75 18.6787 22.41 18.6787 22V11C18.6787 10.59 19.0187 10.25 19.4287 10.25C19.8387 10.25 20.1787 10.59 20.1787 11V22C20.1787 22.41 19.8387 22.75 19.4287 22.75Z" fill="#0076E1"/>
<path d="M19.4287 7.75C19.0187 7.75 18.6787 7.41 18.6787 7V2C18.6787 1.59 19.0187 1.25 19.4287 1.25C19.8387 1.25 20.1787 1.59 20.1787 2V7C20.1787 7.41 19.8387 7.75 19.4287 7.75Z" fill="#0076E1"/>
<path d="M12.4287 22.75C12.0187 22.75 11.6787 22.41 11.6787 22V17C11.6787 16.59 12.0187 16.25 12.4287 16.25C12.8387 16.25 13.1787 16.59 13.1787 17V22C13.1787 22.41 12.8387 22.75 12.4287 22.75Z" fill="#0076E1"/>
<path d="M12.4287 13.75C12.0187 13.75 11.6787 13.41 11.6787 13V2C11.6787 1.59 12.0187 1.25 12.4287 1.25C12.8387 1.25 13.1787 1.59 13.1787 2V13C13.1787 13.41 12.8387 13.75 12.4287 13.75Z" fill="#0076E1"/>
<path d="M5.42871 22.75C5.01871 22.75 4.67871 22.41 4.67871 22V11C4.67871 10.59 5.01871 10.25 5.42871 10.25C5.83871 10.25 6.17871 10.59 6.17871 11V22C6.17871 22.41 5.83871 22.75 5.42871 22.75Z" fill="#0076E1"/>
<path d="M5.42871 7.75C5.01871 7.75 4.67871 7.41 4.67871 7V2C4.67871 1.59 5.01871 1.25 5.42871 1.25C5.83871 1.25 6.17871 1.59 6.17871 2V7C6.17871 7.41 5.83871 7.75 5.42871 7.75Z" fill="#0076E1"/>
<path d="M7.42871 11.75H3.42871C3.01871 11.75 2.67871 11.41 2.67871 11C2.67871 10.59 3.01871 10.25 3.42871 10.25H7.42871C7.83871 10.25 8.17871 10.59 8.17871 11C8.17871 11.41 7.83871 11.75 7.42871 11.75Z" fill="#0076E1"/>
<path d="M21.4287 11.75H17.4287C17.0187 11.75 16.6787 11.41 16.6787 11C16.6787 10.59 17.0187 10.25 17.4287 10.25H21.4287C21.8387 10.25 22.1787 10.59 22.1787 11C22.1787 11.41 21.8387 11.75 21.4287 11.75Z" fill="#0076E1"/>
<path d="M14.4287 13.75H10.4287C10.0187 13.75 9.67871 13.41 9.67871 13C9.67871 12.59 10.0187 12.25 10.4287 12.25H14.4287C14.8387 12.25 15.1787 12.59 15.1787 13C15.1787 13.41 14.8387 13.75 14.4287 13.75Z" fill="#0076E1"/>
</svg>
