<svg width="49" height="49" viewBox="0 0 49 49" fill="none" xmlns="http://www.w3.org/2000/svg">
<circle cx="24.5" cy="24.5" r="24.5" fill="#0076E1"/>
<path d="M34.6602 23.37C34.6938 23.3109 34.7174 23.2467 34.7302 23.18L35.4802 19.18C35.5279 18.9148 35.4683 18.6415 35.3146 18.4202C35.1608 18.1989 34.9254 18.0477 34.6602 18C34.395 17.9523 34.1216 18.0118 33.9003 18.1656C33.6791 18.3194 33.5279 18.5548 33.4802 18.82L33.1102 20.82C32.2778 19.2999 31.0338 18.0452 29.521 17.1998C28.0081 16.3544 26.2876 15.9524 24.5567 16.0401C22.8259 16.1278 21.1548 16.7016 19.7351 17.6956C18.3154 18.6896 17.2047 20.0636 16.5302 21.66C16.4312 21.9054 16.4336 22.1799 16.5366 22.4236C16.6397 22.6673 16.8352 22.8601 17.0802 22.96C17.2022 23.0105 17.3331 23.0364 17.4652 23.0361C17.5973 23.0357 17.728 23.0092 17.8498 22.9581C17.9716 22.907 18.0821 22.8322 18.1748 22.7381C18.2676 22.644 18.3408 22.5325 18.3902 22.41C18.9287 21.0868 19.8549 19.9575 21.0471 19.1704C22.2394 18.3833 23.6418 17.9753 25.0702 18C26.3335 17.9941 27.5759 18.3221 28.6717 18.9508C29.7674 19.5794 30.6777 20.4864 31.3102 21.58L29.6602 21.31C29.5288 21.289 29.3947 21.294 29.2653 21.3249C29.1359 21.3557 29.0139 21.4118 28.9062 21.4898C28.7985 21.5678 28.7072 21.6662 28.6375 21.7795C28.5679 21.8928 28.5212 22.0187 28.5002 22.15C28.4792 22.2813 28.4842 22.4155 28.5151 22.5449C28.5459 22.6742 28.6019 22.7963 28.6799 22.904C28.7579 23.0117 28.8564 23.103 28.9697 23.1726C29.083 23.2423 29.2088 23.289 29.3402 23.31L33.5902 24.02H33.7502C33.8663 24.0214 33.9816 24.001 34.0902 23.96C34.1268 23.9461 34.1607 23.9258 34.1902 23.9C34.2619 23.8733 34.3293 23.8363 34.3902 23.79L34.4702 23.69C34.522 23.6414 34.5689 23.5878 34.6102 23.53C34.6345 23.4794 34.6513 23.4255 34.6602 23.37ZM32.8802 27.07C32.7575 27.0197 32.6261 26.9944 32.4935 26.9954C32.3609 26.9964 32.2299 27.0237 32.108 27.0758C31.9861 27.1279 31.8757 27.2038 31.7834 27.2989C31.6911 27.394 31.6186 27.5066 31.5702 27.63C31.0279 28.9393 30.1051 30.0557 28.9213 30.8348C27.7375 31.6139 26.3472 32.0198 24.9302 32C23.6669 32.0059 22.4245 31.6779 21.3287 31.0492C20.2329 30.4206 19.3227 29.5136 18.6902 28.42L20.3402 28.69H20.5002C20.7654 28.7112 21.0282 28.6262 21.2307 28.4537C21.4332 28.2811 21.559 28.0352 21.5802 27.77C21.6014 27.5048 21.5164 27.242 21.3438 27.0395C21.1713 26.8369 20.9254 26.7112 20.6602 26.69L16.4102 26C16.3011 25.9799 16.1893 25.9799 16.0802 26H16.0002C15.887 26.0301 15.7791 26.0773 15.6802 26.14C15.6127 26.1921 15.5523 26.2526 15.5002 26.32L15.4102 26.42C15.3793 26.4803 15.3558 26.5441 15.3402 26.61C15.3051 26.6611 15.2813 26.719 15.2702 26.78L14.5202 30.78C14.4881 30.9129 14.4835 31.051 14.5069 31.1857C14.5302 31.3204 14.581 31.4489 14.6559 31.5633C14.7309 31.6776 14.8285 31.7754 14.9428 31.8505C15.057 31.9256 15.1855 31.9765 15.3202 32H15.5002C15.737 32.0039 15.9674 31.9236 16.1506 31.7734C16.3337 31.6232 16.4576 31.413 16.5002 31.18L16.8702 29.18C17.7017 30.7004 18.9449 31.9558 20.4572 32.802C21.9695 33.6482 23.6897 34.0511 25.4205 33.9645C27.1513 33.8779 28.8226 33.3052 30.2428 32.3121C31.6631 31.3191 32.7747 29.9459 33.4502 28.35C33.5418 28.1045 33.5334 27.8329 33.4268 27.5935C33.3202 27.3541 33.1239 27.1661 32.8802 27.07Z" fill="white"/>
</svg>
