<svg width="24" height="24" viewBox="0 0 24 24" fill="none" xmlns="http://www.w3.org/2000/svg">
<path d="M16.9004 16.9C19.6004 14.2 19.6004 9.7 16.9004 7" stroke="#0076E1" stroke-width="1.5" stroke-miterlimit="10" stroke-linecap="round" stroke-linejoin="round"/>
<path d="M7.09922 7.1001C4.39922 9.8001 4.39922 14.3001 7.09922 17.0001" stroke="#0076E1" stroke-width="1.5" stroke-miterlimit="10" stroke-linecap="round" stroke-linejoin="round"/>
<path d="M9.69922 13.6C9.69922 14.5 10.3992 15.2 11.2992 15.2H12.9992C13.6992 15.2 14.3992 14.6 14.3992 13.8C14.3992 12.9 13.9992 12.6 13.4992 12.4L10.6992 11.4C9.99922 11.3 9.69922 11 9.69922 10.2C9.69922 9.40005 10.2992 8.80005 11.0992 8.80005H12.8992C13.7992 8.80005 14.4992 9.50005 14.4992 10.4" stroke="#0076E1" stroke-width="1.5" stroke-linecap="round" stroke-linejoin="round"/>
<path d="M12 7.80005V16.2" stroke="#0076E1" stroke-width="1.5" stroke-linecap="round" stroke-linejoin="round"/>
<path d="M12 22C17.5228 22 22 17.5228 22 12C22 6.47715 17.5228 2 12 2C6.47715 2 2 6.47715 2 12C2 17.5228 6.47715 22 12 22Z" stroke="#0076E1" stroke-width="1.5" stroke-miterlimit="10" stroke-linecap="round" stroke-linejoin="round"/>
</svg>
