<svg width="26" height="26" viewBox="0 0 26 26" fill="none" xmlns="http://www.w3.org/2000/svg">
<circle cx="13" cy="13" r="12" stroke="#0076E1" stroke-width="2"/>
<path d="M12.8497 12.175C11.1472 11.7325 10.5997 11.275 10.5997 10.5625C10.5997 9.745 11.3572 9.175 12.6247 9.175C13.9597 9.175 14.4547 9.8125 14.4997 10.75H16.1572C16.1047 9.46 15.3172 8.275 13.7497 7.8925V6.25H11.4997V7.87C10.0447 8.185 8.87475 9.13 8.87475 10.5775C8.87475 12.31 10.3072 13.1725 12.3997 13.675C14.2747 14.125 14.6497 14.785 14.6497 15.4825C14.6497 16 14.2822 16.825 12.6247 16.825C11.0797 16.825 10.4722 16.135 10.3897 15.25H8.73975C8.82975 16.8925 10.0597 17.815 11.4997 18.1225V19.75H13.7497V18.1375C15.2122 17.86 16.3747 17.0125 16.3747 15.475C16.3747 13.345 14.5522 12.6175 12.8497 12.175Z" fill="#0076E1"/>
</svg>
