<svg width="17" height="18" viewBox="0 0 17 18" fill="none" xmlns="http://www.w3.org/2000/svg">
<path d="M16.5265 11.117L14.5979 9.18846C14.4774 9.06795 14.3139 9.00024 14.1434 9.00024C13.9729 9.00024 13.8095 9.06795 13.6889 9.18846L7.71484 15.1625V18.0001H10.5524L16.5265 12.026C16.647 11.9055 16.7147 11.742 16.7147 11.5715C16.7147 11.4011 16.647 11.2376 16.5265 11.117ZM10.0201 16.7144H9.00056V15.6948L12.2148 12.4805L13.2344 13.5001L10.0201 16.7144ZM14.1434 12.5911L13.1238 11.5715L14.1434 10.552L15.163 11.5715L14.1434 12.5911Z" fill="#0076E1"/>
<path d="M9 10.2858V7.71436H10.2857V10.2858H9Z" fill="#0076E1"/>
<path d="M6.42773 10.2856V6.42847H7.71345V10.2856H6.42773Z" fill="#0076E1"/>
<path d="M3.85742 10.2857V3.85718H5.14313V10.2857H3.85742Z" fill="#0076E1"/>
<path d="M5.14285 18H1.28571C0.944825 17.9996 0.617997 17.8641 0.376953 17.623C0.135908 17.382 0.000340378 17.0552 0 16.7143V1.28571C0.000340378 0.944825 0.135908 0.617997 0.376953 0.376953C0.617997 0.135908 0.944825 0.000340378 1.28571 0H11.5714C11.9123 0.000340378 12.2391 0.135908 12.4802 0.376953C12.7212 0.617997 12.8568 0.944825 12.8571 1.28571V7.71428H11.5714V1.28571H1.28571V16.7143H5.14285V18Z" fill="#0076E1"/>
</svg>
