<svg width="24" height="25" viewBox="0 0 24 25" fill="none" xmlns="http://www.w3.org/2000/svg">
<path fill-rule="evenodd" clip-rule="evenodd" d="M17.0881 5.50999V3.1798C17.0881 1.89287 16.0448 0.849609 14.7579 0.849609H8.54403C7.2571 0.849609 6.21384 1.89287 6.21384 3.1798V5.50999H0V7.06345H1.55346V21.8213C1.55346 23.1082 2.59672 24.1515 3.88365 24.1515H19.4182C20.7052 24.1515 21.7484 23.1082 21.7484 21.8213V7.06345H23.3019V5.50999H17.0881ZM7.7673 3.1798C7.7673 2.75082 8.11505 2.40307 8.54403 2.40307H14.7579C15.1868 2.40307 15.5346 2.75082 15.5346 3.1798V5.50999H7.7673V3.1798ZM10.8742 11.7238V19.4911H12.4277V11.7238H10.8742ZM6.21384 19.4911V14.8307H7.7673V19.4911H6.21384ZM15.5346 14.8307V19.4911H17.0881V14.8307H15.5346Z" fill="#FF2D2E" fill-opacity="0.76"/>
</svg>
