<svg width="8" height="5" viewBox="0 0 8 5" fill="none" xmlns="http://www.w3.org/2000/svg">
<path d="M4.31214 4.86425L7.87219 1.07682C7.95404 0.989385 8 0.871007 8 0.747603C8 0.624198 7.95404 0.505821 7.87219 0.418382L7.61008 0.139466C7.52793 0.0522982 7.41664 0.00334611 7.30062 0.00334611C7.18459 0.00334611 7.0733 0.0522982 6.99115 0.139466L4.00154 3.31996L1.00884 0.135979C0.926641 0.0488938 0.815357 0 0.699347 0C0.583339 0 0.472054 0.0488938 0.389852 0.135979L0.127809 0.414896C0.0459542 0.502334 -2.86102e-06 0.620712 -2.86102e-06 0.744116C-2.86102e-06 0.867521 0.0459542 0.985899 0.127809 1.07334L3.69107 4.86425C3.77372 4.95128 3.88531 5.0001 4.0016 5.0001C4.11789 5.0001 4.22949 4.95128 4.31214 4.86425Z" fill="#9B9B9B"/>
</svg>
