<svg width="16" height="16" viewBox="0 0 16 16" fill="none" xmlns="http://www.w3.org/2000/svg">
<path d="M1 10L0.646447 9.64645L0.5 9.79289V10H1ZM10 1L10.3536 0.646447C10.1583 0.451184 9.84171 0.451184 9.64645 0.646447L10 1ZM15 6L15.3536 6.35355C15.5488 6.15829 15.5488 5.84171 15.3536 5.64645L15 6ZM6 15V15.5H6.20711L6.35355 15.3536L6 15ZM1 15H0.5C0.5 15.2761 0.723858 15.5 1 15.5V15ZM1.35355 10.3536L10.3536 1.35355L9.64645 0.646447L0.646447 9.64645L1.35355 10.3536ZM9.64645 1.35355L14.6464 6.35355L15.3536 5.64645L10.3536 0.646447L9.64645 1.35355ZM14.6464 5.64645L5.64645 14.6464L6.35355 15.3536L15.3536 6.35355L14.6464 5.64645ZM6 14.5H1V15.5H6V14.5ZM1.5 15V10H0.5V15H1.5ZM6.64645 4.35355L11.6464 9.35355L12.3536 8.64645L7.35355 3.64645L6.64645 4.35355ZM8.5 15.5H15.5V14.5H8.5V15.5Z" fill="#0076E1"/>
</svg>
