<svg width="24" height="25" viewBox="0 0 24 25" fill="none" xmlns="http://www.w3.org/2000/svg">
<path d="M5.53999 20.0196C4.92999 20.0196 4.35999 19.8096 3.94999 19.4196C3.42999 18.9296 3.17999 18.1896 3.26999 17.3896L3.63999 14.1496C3.70999 13.5396 4.07999 12.7296 4.50999 12.2896L12.72 3.59956C14.77 1.42956 16.91 1.36956 19.08 3.41956C21.25 5.46956 21.31 7.60956 19.26 9.77956L11.05 18.4696C10.63 18.9196 9.84999 19.3396 9.23999 19.4396L6.01999 19.9896C5.84999 19.9996 5.69999 20.0196 5.53999 20.0196ZM15.93 3.40956C15.16 3.40956 14.49 3.88956 13.81 4.60956L5.59999 13.3096C5.39999 13.5196 5.16999 14.0196 5.12999 14.3096L4.75999 17.5496C4.71999 17.8796 4.79999 18.1496 4.97999 18.3196C5.15999 18.4896 5.42999 18.5496 5.75999 18.4996L8.97999 17.9496C9.26999 17.8996 9.74999 17.6396 9.94999 17.4296L18.16 8.73956C19.4 7.41956 19.85 6.19956 18.04 4.49956C17.24 3.72956 16.55 3.40956 15.93 3.40956Z" fill="#0076E1"/>
<path d="M17.3399 11.4498C17.3199 11.4498 17.2899 11.4498 17.2699 11.4498C14.1499 11.1398 11.6399 8.76985 11.1599 5.66985C11.0999 5.25985 11.3799 4.87985 11.7899 4.80985C12.1999 4.74985 12.5799 5.02985 12.6499 5.43985C13.0299 7.85985 14.9899 9.71985 17.4299 9.95985C17.8399 9.99985 18.1399 10.3698 18.0999 10.7798C18.0499 11.1598 17.7199 11.4498 17.3399 11.4498Z" fill="#0076E1"/>
<path d="M21 23.25H3C2.59 23.25 2.25 22.91 2.25 22.5C2.25 22.09 2.59 21.75 3 21.75H21C21.41 21.75 21.75 22.09 21.75 22.5C21.75 22.91 21.41 23.25 21 23.25Z" fill="#0076E1"/>
</svg>
