<svg width="16" height="14" viewBox="0 0 16 14" fill="none" xmlns="http://www.w3.org/2000/svg">
<path d="M15.6805 10.4083L10.0989 1.15171C9.87318 0.798629 9.56222 0.508056 9.19467 0.306779C8.82712 0.105502 8.41482 0 7.99576 0C7.57671 0 7.16441 0.105502 6.79686 0.306779C6.42931 0.508056 6.11835 0.798629 5.89265 1.15171L0.311031 10.4083C0.113858 10.737 0.00669041 11.1118 0.000303227 11.495C-0.00608396 11.8783 0.0885344 12.2564 0.274645 12.5915C0.489817 12.9686 0.801267 13.2819 1.17717 13.4993C1.55306 13.7166 1.97993 13.8303 2.41414 13.8286H13.5774C14.0087 13.8332 14.4337 13.7239 14.8093 13.5119C15.185 13.2998 15.498 12.9923 15.7169 12.6206C15.9085 12.282 16.0061 11.8984 15.9997 11.5095C15.9933 11.1206 15.8831 10.7404 15.6805 10.4083V10.4083ZM7.99576 10.9177C7.85184 10.9177 7.71114 10.875 7.59146 10.7951C7.47179 10.7151 7.37852 10.6015 7.32344 10.4685C7.26836 10.3355 7.25395 10.1892 7.28203 10.048C7.31011 9.90687 7.37941 9.7772 7.48119 9.67542C7.58296 9.57365 7.71263 9.50434 7.85379 9.47626C7.99496 9.44818 8.14128 9.4626 8.27425 9.51767C8.40723 9.57275 8.52088 9.66603 8.60084 9.7857C8.68081 9.90537 8.72349 10.0461 8.72349 10.19C8.72349 10.383 8.64682 10.5681 8.51034 10.7046C8.37387 10.8411 8.18877 10.9177 7.99576 10.9177ZM8.72349 8.00684C8.72349 8.19984 8.64682 8.38494 8.51034 8.52141C8.37387 8.65789 8.18877 8.73456 7.99576 8.73456C7.80276 8.73456 7.61766 8.65789 7.48119 8.52141C7.34471 8.38494 7.26804 8.19984 7.26804 8.00684V5.09596C7.26804 4.90295 7.34471 4.71785 7.48119 4.58138C7.61766 4.4449 7.80276 4.36823 7.99576 4.36823C8.18877 4.36823 8.37387 4.4449 8.51034 4.58138C8.64682 4.71785 8.72349 4.90295 8.72349 5.09596V8.00684Z" fill="#0076E1"/>
</svg>
