<svg width="22" height="22" viewBox="0 0 22 22" fill="none" xmlns="http://www.w3.org/2000/svg">
<path d="M20.4728 14.8121L13.6817 3.54971C13.4071 3.12012 13.0288 2.76658 12.5816 2.52169C12.1344 2.2768 11.6327 2.14844 11.1229 2.14844C10.613 2.14844 10.1114 2.2768 9.66418 2.52169C9.21699 2.76658 8.83865 3.12012 8.56404 3.54971L1.77296 14.8121C1.53306 15.212 1.40267 15.668 1.3949 16.1343C1.38713 16.6006 1.50225 17.0607 1.72869 17.4683C1.99049 17.9272 2.36942 18.3084 2.82677 18.5728C3.28412 18.8373 3.80349 18.9755 4.33179 18.9735H17.914C18.4388 18.9791 18.9558 18.8462 19.4128 18.5881C19.8699 18.3301 20.2508 17.956 20.5171 17.5037C20.7502 17.0918 20.869 16.6251 20.8612 16.1519C20.8534 15.6787 20.7193 15.2161 20.4728 14.8121ZM11.1229 15.4319C10.9478 15.4319 10.7766 15.38 10.631 15.2827C10.4854 15.1854 10.3719 15.0471 10.3049 14.8853C10.2379 14.7235 10.2203 14.5455 10.2545 14.3737C10.2886 14.202 10.373 14.0442 10.4968 13.9204C10.6206 13.7966 10.7784 13.7123 10.9501 13.6781C11.1219 13.6439 11.2999 13.6615 11.4617 13.7285C11.6235 13.7955 11.7618 13.909 11.8591 14.0546C11.9564 14.2002 12.0083 14.3714 12.0083 14.5465C12.0083 14.7813 11.915 15.0065 11.749 15.1726C11.5829 15.3386 11.3577 15.4319 11.1229 15.4319ZM12.0083 11.8903C12.0083 12.1251 11.915 12.3503 11.749 12.5163C11.5829 12.6824 11.3577 12.7757 11.1229 12.7757C10.8881 12.7757 10.6628 12.6824 10.4968 12.5163C10.3308 12.3503 10.2375 12.1251 10.2375 11.8903V8.34862C10.2375 8.1138 10.3308 7.88859 10.4968 7.72254C10.6628 7.5565 10.8881 7.46321 11.1229 7.46321C11.3577 7.46321 11.5829 7.5565 11.749 7.72254C11.915 7.88859 12.0083 8.1138 12.0083 8.34862V11.8903Z" fill="#D23412"/>
</svg>
