<svg width="16" height="16" viewBox="0 0 16 16" fill="none" xmlns="http://www.w3.org/2000/svg">
<path d="M13.5984 13.6004V14.1004H14.0984V13.6004L13.5984 13.6004ZM13.5984 2.40039H14.0984V1.90039H13.5984V2.40039ZM2.39844 2.40039V1.90039H1.89844V2.40039H2.39844ZM2.39844 13.6004H1.89844V14.1004H2.39844V13.6004ZM13.5984 13.1004H10.3318V14.1004H13.5984V13.1004ZM14.0984 13.6004L14.0984 10.3337L13.0984 10.3337L13.0984 13.6004L14.0984 13.6004ZM13.952 13.2468L10.2187 9.5135L9.51155 10.2206L13.2449 13.9539L13.952 13.2468ZM10.3318 2.90039H13.5984V1.90039H10.3318V2.90039ZM13.0984 2.40039V5.66706H14.0984V2.40039H13.0984ZM10.2187 6.48728L13.952 2.75394L13.2449 2.04684L9.51155 5.78017L10.2187 6.48728ZM5.6651 1.90039H2.39844V2.90039H5.6651V1.90039ZM1.89844 2.40039V5.66706H2.89844V2.40039H1.89844ZM2.04488 2.75394L5.77822 6.48728L6.48532 5.78017L2.75199 2.04684L2.04488 2.75394ZM1.89844 10.3337V13.6004H2.89844V10.3337H1.89844ZM2.39844 14.1004H5.6651V13.1004H2.39844V14.1004ZM2.75199 13.9539L6.48532 10.2206L5.77822 9.5135L2.04488 13.2468L2.75199 13.9539Z" fill="#0076E1"/>
</svg>
