<svg width="13" height="15" viewBox="0 0 13 15" fill="none" xmlns="http://www.w3.org/2000/svg">
<path d="M3.5 6.99542H3V7.99542H3.5V6.99542ZM9.5 7.99542H10V6.99542H9.5V7.99542ZM3.50054 9.99347L3.00054 9.99293L2.99946 10.9929L3.49946 10.9935L3.50054 9.99347ZM9.49946 11L9.99946 11.0005L10.0005 10.0005L9.50054 10L9.49946 11ZM3.50033 3.99738L3.00033 3.99705L2.99967 4.99705L3.49967 4.99738L3.50033 3.99738ZM7.49967 5L7.99967 5.00033L8.00033 4.00033L7.50033 4L7.49967 5ZM9.5 0.5L9.85355 0.146447L9.70711 0H9.5V0.5ZM12.5 3.5H13V3.29289L12.8536 3.14645L12.5 3.5ZM3.5 7.99542H9.5V6.99542H3.5V7.99542ZM3.49946 10.9935L9.49946 11L9.50054 10L3.50054 9.99347L3.49946 10.9935ZM3.49967 4.99738L7.49967 5L7.50033 4L3.50033 3.99738L3.49967 4.99738ZM11.5 14H1.5V15H11.5V14ZM1 13.5V1.5H0V13.5H1ZM1.5 1H9.5V0H1.5V1ZM12 3.5V13.5H13V3.5H12ZM9.14645 0.853553L12.1464 3.85355L12.8536 3.14645L9.85355 0.146447L9.14645 0.853553ZM1.5 14C1.22386 14 1 13.7761 1 13.5H0C0 14.3284 0.671572 15 1.5 15V14ZM11.5 15C12.3284 15 13 14.3284 13 13.5H12C12 13.7761 11.7761 14 11.5 14V15ZM1 1.5C1 1.22386 1.22386 1 1.5 1V0C0.671573 0 0 0.671574 0 1.5H1Z" fill="#D23412"/>
</svg>
