<svg width="20" height="20" viewBox="0 0 15 12" fill="none" xmlns="http://www.w3.org/2000/svg">
    <path d="M12.122 7.07666H12.735C12.7895 7.07666 12.8167 7.09324 12.8167 7.12639V11.5025C12.8167 11.5356 12.7895 11.5522 12.735 11.5522H12.122C12.0675 11.5522 12.0403 11.5356 12.0403 11.5025V7.12639C12.0403 7.09324 12.0675 7.07666 12.122 7.07666Z" fill="#0076E1"></path>
    <path d="M10.277 8.94214H14.9216C14.9585 8.94214 14.9769 8.95949 14.9769 8.99418V9.38449C14.9769 9.41918 14.9585 9.43653 14.9216 9.43653H10.277C10.2401 9.43653 10.2217 9.41918 10.2217 9.38449V8.99418C10.2217 8.95949 10.2401 8.94214 10.277 8.94214Z" fill="#0076E1"></path>
    <path d="M12.1849 1H1.35156L5.6849 6.12417V9.66667L7.85156 10.75V6.12417L12.1849 1Z" stroke="#0076E1" stroke-linecap="round" stroke-linejoin="round"></path>
</svg>