<svg width="12" height="16" viewBox="0 0 12 16" fill="none" xmlns="http://www.w3.org/2000/svg">
<path d="M10.8335 15.1973L10.5211 15.5877C10.6712 15.7078 10.8769 15.7312 11.0501 15.6479C11.2233 15.5647 11.3335 15.3895 11.3335 15.1973H10.8335ZM10.8335 1.19728H11.3335V0.697277L10.8335 0.697276L10.8335 1.19728ZM0.833496 1.19727L0.833497 0.697266L0.333496 0.697265V1.19727H0.833496ZM0.833496 15.1973H0.333496C0.333496 15.3895 0.443669 15.5647 0.616902 15.6479C0.790134 15.7312 0.995759 15.7078 1.14584 15.5877L0.833496 15.1973ZM5.8335 11.1973L6.14584 10.8068C5.96323 10.6608 5.70376 10.6608 5.52115 10.8068L5.8335 11.1973ZM11.3335 15.1973V1.19728H10.3335V15.1973H11.3335ZM0.333496 1.19727V15.1973H1.3335V1.19727H0.333496ZM1.14584 15.5877L6.14584 11.5877L5.52115 10.8068L0.521149 14.8068L1.14584 15.5877ZM5.52115 11.5877L10.5211 15.5877L11.1458 14.8068L6.14584 10.8068L5.52115 11.5877ZM10.8335 0.697276L0.833497 0.697266L0.833496 1.69727L10.8335 1.69728L10.8335 0.697276Z" fill="#9F9F9F"/>
</svg>
