<svg width="14" height="14" viewBox="0 0 14 14" fill="none" xmlns="http://www.w3.org/2000/svg">
<path d="M6.73301 0.333328C3.20344 0.333328 0.333008 3.21783 0.333008 6.7647C0.333008 10.3116 3.20344 13.1961 6.73301 13.1961C10.2626 13.1961 13.133 10.3116 13.133 6.7647C13.133 3.21783 10.2626 0.333328 6.73301 0.333328ZM6.73301 1.19084C9.8014 1.19084 12.2797 3.68127 12.2797 6.7647C12.2797 9.84813 9.8014 12.3386 6.73301 12.3386C3.66461 12.3386 1.18634 9.84813 1.18634 6.7647C1.18634 3.68127 3.66461 1.19084 6.73301 1.19084ZM6.73301 3.19172C5.55985 3.19172 4.59967 4.1566 4.59967 5.33551C4.59887 5.39232 4.60932 5.44873 4.6304 5.50145C4.65149 5.55418 4.68279 5.60217 4.72249 5.64263C4.76219 5.68309 4.80949 5.71522 4.86165 5.73715C4.91382 5.75908 4.9698 5.77037 5.02634 5.77037C5.08288 5.77037 5.13886 5.75908 5.19103 5.73715C5.24319 5.71522 5.2905 5.68309 5.3302 5.64263C5.36989 5.60217 5.4012 5.55418 5.42228 5.50145C5.44336 5.44873 5.45381 5.39232 5.45301 5.33551C5.45301 4.62004 6.02103 4.04923 6.73301 4.04923C7.44499 4.04923 8.01301 4.62004 8.01301 5.33551C8.01808 5.92263 7.71715 6.22308 7.29745 6.62178C7.0876 6.82113 6.8546 7.0285 6.65745 7.30065C6.4603 7.5728 6.30634 7.92646 6.30634 8.33681C6.30554 8.39363 6.31599 8.45004 6.33707 8.50276C6.35815 8.55549 6.38945 8.60347 6.42915 8.64393C6.46885 8.6844 6.51616 8.71653 6.56832 8.73846C6.62048 8.76039 6.67646 8.77168 6.73301 8.77168C6.78955 8.77168 6.84553 8.76039 6.89769 8.73846C6.94986 8.71653 6.99716 8.6844 7.03686 8.64393C7.07656 8.60347 7.10786 8.55549 7.12894 8.50276C7.15003 8.45004 7.16047 8.39363 7.15967 8.33681C7.15967 8.12494 7.22146 7.97774 7.34634 7.80533C7.47122 7.63294 7.66568 7.45009 7.88412 7.24259C8.32024 6.82828 8.87229 6.24884 8.86634 5.33551C8.86633 5.33391 8.86635 5.33264 8.86634 5.33104C8.8639 4.15418 7.90467 3.19172 6.73301 3.19172ZM6.73301 9.19433C6.41882 9.19433 6.16412 9.45027 6.16412 9.76601C6.16412 10.0817 6.41882 10.3377 6.73301 10.3377C7.0472 10.3377 7.3019 10.0817 7.3019 9.76601C7.3019 9.45027 7.0472 9.19433 6.73301 9.19433Z" fill="#0076E1"/>
</svg>
