<svg width="19" height="19" viewBox="0 0 19 19" fill="none" xmlns="http://www.w3.org/2000/svg">
<path d="M8.4478 17.2L1.80057 10.5528C1.20971 9.96189 1.20971 9.03867 1.80057 8.4478L8.4478 1.80057C9.03867 1.20971 9.96189 1.20971 10.5528 1.80057L17.2 8.4478C17.7909 9.03867 17.7909 9.96189 17.2 10.5528L10.5528 17.2C9.96189 17.7909 9.00174 17.7909 8.4478 17.2Z" fill="#CB3B1F"/>
<path d="M8.5957 12.7321C8.5957 12.6213 8.63263 12.5105 8.66956 12.3997C8.70649 12.2889 8.78035 12.215 8.85421 12.1412C8.92806 12.0673 9.03885 11.9935 9.14964 11.9565C9.26043 11.9196 9.37121 11.8827 9.51893 11.8827C9.66665 11.8827 9.77743 11.9196 9.88822 11.9565C9.99901 11.9935 10.1098 12.0673 10.1837 12.1412C10.2575 12.215 10.3314 12.2889 10.3683 12.3997C10.4052 12.5105 10.4422 12.6213 10.4422 12.7321C10.4422 12.8428 10.4052 12.9536 10.3683 13.0644C10.3314 13.1752 10.2575 13.2491 10.1837 13.3229C10.1098 13.3968 9.99901 13.4706 9.88822 13.5076C9.77743 13.5445 9.66665 13.5814 9.51893 13.5814C9.37121 13.5814 9.26043 13.5445 9.14964 13.5076C9.03885 13.4706 8.96499 13.3968 8.85421 13.3229C8.78035 13.2491 8.70649 13.1752 8.66956 13.0644C8.63263 12.9536 8.5957 12.8798 8.5957 12.7321ZM10.1467 11.0333H8.81728L8.63263 5.45703H10.3314L10.1467 11.0333Z" fill="white"/>
<path d="M11.4004 12.7321C11.4004 12.6213 11.4373 12.5105 11.4742 12.3997C11.5112 12.2889 11.585 12.215 11.6589 12.1412C11.7328 12.0673 11.8435 11.9935 11.9543 11.9565C12.0651 11.9196 12.1759 11.8827 12.3236 11.8827C12.4713 11.8827 12.5821 11.9196 12.6929 11.9565C12.8037 11.9935 12.9145 12.0673 12.9883 12.1412C13.0622 12.215 13.1361 12.2889 13.173 12.3997C13.2099 12.5105 13.2468 12.6213 13.2468 12.7321C13.2468 12.8428 13.2099 12.9536 13.173 13.0644C13.1361 13.1752 13.0622 13.2491 12.9883 13.3229C12.9145 13.3968 12.8037 13.4706 12.6929 13.5076C12.5821 13.5445 12.4713 13.5814 12.3236 13.5814C12.1759 13.5814 12.0651 13.5445 11.9543 13.5076C11.8435 13.4706 11.7697 13.3968 11.6589 13.3229C11.585 13.2491 11.5112 13.1752 11.4742 13.0644C11.4373 12.9536 11.4004 12.8798 11.4004 12.7321ZM12.9514 11.0333H11.622L11.4373 5.45703H13.1361L12.9514 11.0333Z" fill="white"/>
<path d="M6.08008 12.7321C6.08008 12.6213 6.11701 12.5105 6.15394 12.3997C6.19086 12.2889 6.26472 12.215 6.33858 12.1412C6.41244 12.0673 6.52323 11.9935 6.63401 11.9565C6.7448 11.9196 6.85559 11.8827 7.0033 11.8827C7.15102 11.8827 7.26181 11.9196 7.37259 11.9565C7.48338 11.9935 7.59417 12.0673 7.66803 12.1412C7.74189 12.215 7.81574 12.2889 7.85267 12.3997C7.8896 12.5105 7.92653 12.6213 7.92653 12.7321C7.92653 12.8428 7.8896 12.9536 7.85267 13.0644C7.81574 13.1752 7.74189 13.2491 7.66803 13.3229C7.59417 13.3968 7.48338 13.4706 7.37259 13.5076C7.26181 13.5445 7.15102 13.5814 7.0033 13.5814C6.85559 13.5814 6.7448 13.5445 6.63401 13.5076C6.52323 13.4706 6.44937 13.3968 6.33858 13.3229C6.26472 13.2491 6.19086 13.1752 6.15394 13.0644C6.11701 12.9536 6.08008 12.8798 6.08008 12.7321ZM7.6311 11.0333H6.30165L6.11701 5.45703H7.81574L7.6311 11.0333Z" fill="white"/>
</svg>
