<svg width="14" height="14" viewBox="0 0 14 14" fill="none" xmlns="http://www.w3.org/2000/svg">
<path d="M6.50039 4.60039V5.10039H7.50039V4.60039H6.50039ZM7.50039 4.59239V4.09239H6.50039V4.59239H7.50039ZM7.50039 9.80039V6.60039H6.50039V9.80039H7.50039ZM7.50039 4.60039V4.59239H6.50039V4.60039H7.50039ZM5.80039 7.50039H7.00039V6.50039H5.80039V7.50039ZM5.80039 9.90039H8.20039V8.90039H5.80039V9.90039ZM7.00039 1.90039C9.81704 1.90039 12.1004 4.18374 12.1004 7.00039L13.1004 7.00039C13.1004 3.63145 10.3693 0.900391 7.00039 0.900391L7.00039 1.90039ZM1.90039 7.00039C1.90039 4.18374 4.18374 1.90039 7.00039 1.90039L7.00039 0.900391C3.63145 0.90039 0.900391 3.63145 0.900391 7.00039H1.90039ZM7.00039 12.1004C4.18374 12.1004 1.90039 9.81704 1.90039 7.00039H0.900391C0.90039 10.3693 3.63145 13.1004 7.00039 13.1004V12.1004ZM7.00039 13.1004C10.3693 13.1004 13.1004 10.3693 13.1004 7.00039L12.1004 7.00039C12.1004 9.81704 9.81704 12.1004 7.00039 12.1004V13.1004Z" fill="#9B9B9B"/>
</svg>
