<svg width="18" height="18" viewBox="0 0 18 18" fill="none" xmlns="http://www.w3.org/2000/svg">
<path d="M8.00333 16.2949L1.70596 9.9975C1.14619 9.43774 1.14619 8.5631 1.70596 8.00333L8.00333 1.70596C8.5631 1.14619 9.43774 1.14619 9.9975 1.70596L16.2949 8.00333C16.8546 8.5631 16.8546 9.43774 16.2949 9.9975L9.9975 16.2949C9.43774 16.8546 8.52812 16.8546 8.00333 16.2949Z" fill="#FF9900"/>
<path d="M7.2002 12.0611C7.2002 11.9561 7.23518 11.8512 7.27017 11.7462C7.30515 11.6412 7.37512 11.5713 7.44509 11.5013C7.51506 11.4313 7.62002 11.3614 7.72498 11.3264C7.82993 11.2914 7.93489 11.2564 8.07483 11.2564C8.21477 11.2564 8.31973 11.2914 8.42468 11.3264C8.52964 11.3614 8.6346 11.4313 8.70457 11.5013C8.77454 11.5713 8.84451 11.6412 8.8795 11.7462C8.91448 11.8512 8.94947 11.9561 8.94947 12.0611C8.94947 12.166 8.91448 12.271 8.8795 12.3759C8.84451 12.4809 8.77454 12.5509 8.70457 12.6208C8.6346 12.6908 8.52964 12.7608 8.42468 12.7958C8.31973 12.8308 8.21477 12.8657 8.07483 12.8657C7.93489 12.8657 7.82993 12.8308 7.72498 12.7958C7.62002 12.7608 7.55005 12.6908 7.44509 12.6208C7.37512 12.5509 7.30515 12.4809 7.27017 12.3759C7.23518 12.271 7.2002 12.201 7.2002 12.0611ZM8.66958 10.4517H7.41011L7.23518 5.16895H8.84451L8.66958 10.4517Z" fill="white"/>
<path d="M9.85742 12.0611C9.85742 11.9561 9.89241 11.8512 9.92739 11.7462C9.96238 11.6412 10.0323 11.5713 10.1023 11.5013C10.1723 11.4313 10.2772 11.3614 10.3822 11.3264C10.4872 11.2914 10.5921 11.2564 10.7321 11.2564C10.872 11.2564 10.977 11.2914 11.0819 11.3264C11.1869 11.3614 11.2918 11.4313 11.3618 11.5013C11.4318 11.5713 11.5017 11.6412 11.5367 11.7462C11.5717 11.8512 11.6067 11.9561 11.6067 12.0611C11.6067 12.166 11.5717 12.271 11.5367 12.3759C11.5017 12.4809 11.4318 12.5509 11.3618 12.6208C11.2918 12.6908 11.1869 12.7608 11.0819 12.7958C10.977 12.8308 10.872 12.8657 10.7321 12.8657C10.5921 12.8657 10.4872 12.8308 10.3822 12.7958C10.2772 12.7608 10.2073 12.6908 10.1023 12.6208C10.0323 12.5509 9.96238 12.4809 9.92739 12.3759C9.89241 12.271 9.85742 12.201 9.85742 12.0611ZM11.3268 10.4517H10.0673L9.89241 5.16895H11.5017L11.3268 10.4517Z" fill="white"/>
</svg>
