<svg width="3" height="13" viewBox="0 0 3 13" fill="none" xmlns="http://www.w3.org/2000/svg"><path d="M1.5 2C1.22386 2 1 1.77614 1 1.5C1 1.22386 1.22386 1 1.5 1C1.77614 1 2 1.22386 2 1.5C2 1.77614 1.77614 2 1.5 2Z" stroke="#1D1929"/><path d="M1.5 7C1.22386 7 1 6.77614 1 6.5C1 6.22386 1.22386 6 1.5 6C1.77614 6 2 6.22386 2 6.5C2 6.77614 1.77614 7 1.5 7Z" stroke="#1D1929"/><path d="M1.5 12C1.22386 12 1 11.7761 1 11.5C1 11.2239 1.22386 11 1.5 11C1.77614 11 2 11.2239 2 11.5C2 11.7761 1.77614 12 1.5 12Z" stroke="#1D1929"/></svg>