<svg width="22" height="26" viewBox="0 0 22 26" fill="none" xmlns="http://www.w3.org/2000/svg">
<path d="M16 1L16.7071 0.292893L16.4142 0H16V1ZM21 6H22V5.58579L21.7071 5.29289L21 6ZM19.3333 23.3333H2.66667V25.3333H19.3333V23.3333ZM2 22.6667V2.66667H0V22.6667H2ZM2.66667 2H16V0H2.66667V2ZM20 6V22.6667H22V6H20ZM15.2929 1.70711L20.2929 6.70711L21.7071 5.29289L16.7071 0.292893L15.2929 1.70711ZM2.66667 23.3333C2.29848 23.3333 2 23.0349 2 22.6667H0C0 24.1394 1.19391 25.3333 2.66667 25.3333V23.3333ZM19.3333 25.3333C20.8061 25.3333 22 24.1394 22 22.6667H20C20 23.0349 19.7015 23.3333 19.3333 23.3333V25.3333ZM2 2.66667C2 2.29848 2.29848 2 2.66667 2V0C1.19391 0 0 1.19391 0 2.66667H2ZM10 8.5V16.8333H12V8.5H10ZM6.83333 13.6667H15.1667V11.6667H6.83333V13.6667Z" fill="#0076E1"/>
</svg>
