<svg width="30" height="30" viewBox="0 0 30 30" fill="none" xmlns="http://www.w3.org/2000/svg">
<path d="M9.85857 16.875C9.28175 16.8762 8.70809 16.9602 8.15514 17.1244L8.13639 17.131L2.81982 19.171L4.67982 24.3929L9.3017 22.621L15.9926 26.3054L27.5464 21.5185L26.8283 19.7897L16.1061 24.2288L9.44795 20.5632L5.80107 21.9582L5.20014 20.2641L8.75982 18.8982C9.11678 18.7949 9.48703 18.745 9.85857 18.75C10.5176 18.75 11.2854 18.8963 11.9417 19.4907L11.9548 19.4972L11.9586 19.501C12.9242 20.34 13.6536 20.926 14.6679 21.2447C15.6823 21.5635 16.8336 21.5991 18.7555 21.5916L18.7461 19.7166C16.8598 19.7241 15.8745 19.6575 15.2304 19.4532C14.5855 19.2554 14.1279 18.9 13.1979 18.0938L13.1867 18.0872C12.102 17.1132 10.8139 16.8713 9.85857 16.875Z" fill="#0076E1"/>
<path d="M21.7626 15.625H19.4876C19.3451 15.625 19.2068 15.5763 19.0957 15.487C18.9847 15.3976 18.9075 15.273 18.877 15.1338L18.6226 13.9563C18.2833 13.8076 17.9615 13.6216 17.6632 13.4019L16.5151 13.7675C16.3792 13.8108 16.2326 13.8064 16.0996 13.7549C15.9665 13.7034 15.8551 13.6079 15.7839 13.4844L14.6439 11.515C14.5733 11.3913 14.5468 11.2474 14.5688 11.1067C14.5907 10.9661 14.6597 10.837 14.7645 10.7406L15.6551 9.92813C15.6146 9.56007 15.6146 9.18868 15.6551 8.82063L14.7645 8.01C14.6595 7.91361 14.5904 7.78442 14.5685 7.64362C14.5466 7.50281 14.5732 7.35873 14.6439 7.235L15.7814 5.26438C15.8526 5.14082 15.964 5.04537 16.0971 4.99387C16.2301 4.94237 16.3767 4.93791 16.5126 4.98125L17.6607 5.34688C17.8132 5.23438 17.972 5.12938 18.1357 5.03438C18.2939 4.94563 18.4564 4.865 18.6226 4.79313L18.8776 3.61688C18.908 3.47762 18.985 3.35293 19.0959 3.26347C19.2069 3.17401 19.3451 3.12515 19.4876 3.125H21.7626C21.9051 3.12515 22.0433 3.17401 22.1543 3.26347C22.2652 3.35293 22.3422 3.47762 22.3726 3.61688L22.6301 4.79375C22.9692 4.94244 23.2908 5.12837 23.5889 5.34813L24.7376 4.9825C24.8734 4.93932 25.0199 4.94386 25.1528 4.99535C25.2857 5.04684 25.397 5.14221 25.4682 5.26563L26.6057 7.23625C26.7507 7.49063 26.7007 7.8125 26.4851 8.01063L25.5945 8.82313C25.635 9.19118 25.635 9.56257 25.5945 9.93063L26.4851 10.7431C26.7007 10.9419 26.7507 11.2631 26.6057 11.5175L25.4682 13.4881C25.3969 13.6117 25.2855 13.7071 25.1525 13.7586C25.0195 13.8101 24.8729 13.8146 24.737 13.7713L23.5889 13.4056C23.2908 13.6252 22.9692 13.8109 22.6301 13.9594L22.3726 15.1338C22.3421 15.2729 22.265 15.3974 22.1541 15.4868C22.0432 15.5761 21.905 15.6249 21.7626 15.625ZM17.8876 12.0181L18.4001 12.3931C18.5157 12.4781 18.6357 12.5563 18.7607 12.6275C18.8782 12.6956 18.9982 12.7569 19.1226 12.8125L19.7057 13.0681L19.9914 14.375H21.2601L21.5457 13.0675L22.1289 12.8119C22.3832 12.6994 22.6251 12.56 22.8495 12.3956L23.362 12.0206L24.6382 12.4269L25.2726 11.3281L24.2832 10.4263L24.3532 9.79375C24.3845 9.51688 24.3845 9.2375 24.3532 8.96125L24.2832 8.32875L25.2732 7.425L24.6382 6.32563L23.3626 6.73188L22.8495 6.35688C22.625 6.19168 22.3834 6.05108 22.1289 5.9375L21.5457 5.68188L21.2601 4.375H19.9914L19.7039 5.6825L19.1226 5.9375C18.8677 6.04913 18.626 6.18874 18.402 6.35375L17.8889 6.72875L16.6139 6.3225L15.9782 7.425L16.9676 8.32563L16.8976 8.95875C16.8664 9.23563 16.8664 9.515 16.8976 9.79125L16.9676 10.4238L15.9782 11.3256L16.6126 12.4244L17.8876 12.0181ZM20.6226 11.875C19.9596 11.875 19.3237 11.6116 18.8548 11.1428C18.386 10.6739 18.1226 10.038 18.1226 9.375C18.1226 8.71196 18.386 8.07607 18.8548 7.60723C19.3237 7.13839 19.9596 6.875 20.6226 6.875C21.2856 6.875 21.9215 7.13839 22.3904 7.60723C22.8592 8.07607 23.1226 8.71196 23.1226 9.375C23.1226 10.038 22.8592 10.6739 22.3904 11.1428C21.9215 11.6116 21.2856 11.875 20.6226 11.875ZM20.6226 8.125C20.3778 8.12525 20.1385 8.19736 19.9343 8.33238C19.7302 8.46741 19.5701 8.6594 19.4741 8.88455C19.3781 9.1097 19.3502 9.35809 19.3941 9.59891C19.4379 9.83973 19.5515 10.0624 19.7208 10.2392C19.89 10.4161 20.1074 10.5393 20.3461 10.5937C20.5847 10.6481 20.8341 10.6313 21.0633 10.5452C21.2924 10.4592 21.4913 10.3078 21.6351 10.1097C21.779 9.91169 21.8616 9.67578 21.8726 9.43125V9.68125V9.375C21.8726 9.04348 21.7409 8.72554 21.5065 8.49112C21.2721 8.2567 20.9541 8.125 20.6226 8.125Z" fill="#0076E1"/>
</svg>
