<svg width="16" height="16" viewBox="0 0 16 16" fill="none" xmlns="http://www.w3.org/2000/svg">
<path d="M7.99998 4.66659V11.3333M4.66665 7.99992H11.3333M5.99998 14.6666H9.99998C13.3333 14.6666 14.6666 13.3333 14.6666 9.99992V5.99992C14.6666 2.66659 13.3333 1.33325 9.99998 1.33325H5.99998C2.66665 1.33325 1.33331 2.66659 1.33331 5.99992V9.99992C1.33331 13.3333 2.66665 14.6666 5.99998 14.6666ZM6.66665 11.3333H9.33331C10.4333 11.3333 11.3333 10.4333 11.3333 9.33325V6.66659C11.3333 5.56659 10.4333 4.66659 9.33331 4.66659H6.66665C5.56665 4.66659 4.66665 5.56659 4.66665 6.66659V9.33325C4.66665 10.4333 5.56665 11.3333 6.66665 11.3333Z" stroke="#0076E1" stroke-width="1.5" stroke-linecap="round" stroke-linejoin="round"/>
</svg>
