<svg width="16" height="16" viewBox="0 0 16 16" fill="none" xmlns="http://www.w3.org/2000/svg">
<path d="M8.25 4.5C8.94036 4.5 9.5 3.94036 9.5 3.25C9.5 2.55964 8.94036 2 8.25 2C7.55964 2 7 2.55964 7 3.25C7 3.94036 7.55964 4.5 8.25 4.5Z" fill="#0076E1"/>
<path d="M8.25 9.11539C8.94036 9.11539 9.5 8.55574 9.5 7.86539C9.5 7.17503 8.94036 6.61539 8.25 6.61539C7.55964 6.61539 7 7.17503 7 7.86539C7 8.55574 7.55964 9.11539 8.25 9.11539Z" fill="#0076E1"/>
<path d="M8.25 13.7305C8.94036 13.7305 9.5 13.1708 9.5 12.4805C9.5 11.7901 8.94036 11.2305 8.25 11.2305C7.55964 11.2305 7 11.7901 7 12.4805C7 13.1708 7.55964 13.7305 8.25 13.7305Z" fill="#0076E1"/>
</svg>
