<svg width="20" height="22" viewBox="0 0 20 22" fill="none" xmlns="http://www.w3.org/2000/svg">
<path d="M10.2502 9.25006V10.1801C10.2502 10.5301 10.0702 10.8601 9.76016 11.0401L9.00015 11.5001M8.49014 1.23006L3.50015 3.10006C2.35015 3.53006 1.41016 4.89006 1.41016 6.12006V13.5501C1.41016 14.7301 2.19017 16.2801 3.14017 16.9901L7.44016 20.2001C8.85015 21.2601 11.1701 21.2601 12.5801 20.2001L16.8802 16.9901C17.8302 16.2801 18.6101 14.7301 18.6101 13.5501V6.12006C18.6101 4.89006 17.6701 3.53006 16.5201 3.10006L11.5302 1.23006C10.6802 0.920059 9.32014 0.920059 8.49014 1.23006ZM14.0002 10.5001C14.0002 12.7092 12.2093 14.5001 10.0002 14.5001C7.79101 14.5001 6.00015 12.7092 6.00015 10.5001C6.00015 8.29092 7.79101 6.50006 10.0002 6.50006C12.2093 6.50006 14.0002 8.29092 14.0002 10.5001Z" stroke="#F5CC00" stroke-width="1.5" stroke-miterlimit="10" stroke-linecap="round" stroke-linejoin="round"/>
</svg>
