<svg width="28" height="26" viewBox="0 0 28 26" fill="none" xmlns="http://www.w3.org/2000/svg">
<path d="M17.7502 25.5088H5.25016V23.0088H17.7502V25.5088ZM26.5002 3L20.5814 10.4438L20.3064 10.7812L13.2689 19.7688C13.0366 20.001 12.7609 20.1853 12.4574 20.311C12.1539 20.4367 11.8286 20.5014 11.5002 20.5014C11.1717 20.5014 10.8464 20.4367 10.5429 20.311C10.2394 20.1853 9.96368 20.001 9.73141 19.7688C9.49913 19.5365 9.31488 19.2607 9.18917 18.9572C9.06347 18.6538 8.99877 18.3285 8.99877 18C8.99877 17.6715 9.06347 17.3462 9.18917 17.0428C9.31488 16.7393 9.49913 16.4635 9.73141 16.2312L26.5002 3ZM2.30641 7.0425C0.500823 9.93443 -0.148581 13.4006 0.487656 16.75H1.50016V15.5C1.48654 13.0387 2.22345 10.6318 3.61266 8.6L2.30641 7.0425ZM14.0002 0.5C12.0885 0.499577 10.1979 0.899298 8.45007 1.67345C6.7022 2.44761 5.13572 3.57905 3.85141 4.995L5.28141 6.7C6.97831 5.13967 9.19497 4.26637 11.5002 4.25C13.8178 4.26616 16.0456 5.14803 17.7464 6.7225L22.1839 3.22C19.8209 1.45407 16.9501 0.499903 14.0002 0.5ZM22.5377 12L22.2464 12.3588L21.3364 13.5212C21.4428 14.1755 21.4975 14.8371 21.5002 15.5V16.75H27.5127C28.1058 13.6217 27.5825 10.3845 26.0339 7.6025L22.5377 12Z" fill="#0076E1"/>
</svg>
