<svg width="22" height="22" viewBox="0 0 22 22" fill="none" xmlns="http://www.w3.org/2000/svg">
<path d="M5 5.25V7.25M11 21H8C3 21 1 19 1 14V8C1 3 3 1 8 1H14C19 1 21 3 21 8V11H1M9 5.25V7.25M5 15V17M9 15V17M13 6.25H17M20.5594 19.33C19.9994 20.3 18.9494 20.95 17.7494 20.95C15.9594 20.95 14.8594 19.15 14.8594 19.15M14.9294 16.09C15.4894 15.11 16.5394 14.46 17.7494 14.46C19.9194 14.46 20.9994 16.26 20.9994 16.26M20.9994 14.25V16.25H18.9994M16.8594 19.14H14.8594V21" stroke="#0076E1" stroke-width="1.5" stroke-linecap="round" stroke-linejoin="round"/>
</svg>
