<svg width="13" height="15" viewBox="0 0 13 15" fill="none" xmlns="http://www.w3.org/2000/svg">
<path d="M5.5 2.4987L5.14647 2.14512L4.79284 2.4987L5.14647 2.85228L5.5 2.4987ZM6.5 1.99878H6V2.99878H6.5V1.99878ZM1 8.49487V7.99487H0V8.49487H1ZM7.14547 0.14642L5.14647 2.14512L5.85353 2.85228L7.85253 0.85358L7.14547 0.14642ZM5.14647 2.85228L7.14547 4.85097L7.85253 4.14381L5.85353 2.14512L5.14647 2.85228ZM6.5 2.99878C9.53716 2.99878 12 5.46048 12 8.49487H13C13 4.90758 10.0888 1.99878 6.5 1.99878V2.99878ZM12 8.49487C12 11.5293 9.53716 13.991 6.5 13.991V14.991C10.0888 14.991 13 12.0822 13 8.49487H12ZM6.5 13.991C3.46283 13.991 1 11.5293 1 8.49487H0C0 12.0822 2.91117 14.991 6.5 14.991V13.991Z" fill="#C4C4C4"/>
</svg>
