<svg xmlns="http://www.w3.org/2000/svg" viewBox="0 0 100.076 79.123">
  <g id="Group_81355" data-name="Group 81355" transform="translate(2231.5 -2484.547)">
    <g id="box" transform="translate(-2211 2492.759)">
      <path id="Path_145414" data-name="Path 145414" d="M31.925.854,55.378,12.58a5.863,5.863,0,0,1,3.254,5.248V45.766a5.863,5.863,0,0,1-3.254,5.248L31.925,62.74a5.863,5.863,0,0,1-5.248,0L3.225,51.013A5.863,5.863,0,0,1,0,45.737V17.828A5.863,5.863,0,0,1,3.254,12.58L26.707.854a5.863,5.863,0,0,1,5.218,0Z" transform="translate(0 0)" fill="none" stroke="#888888" stroke-linecap="round" stroke-linejoin="round" stroke-width="3" fill-rule="evenodd"/>
      <path id="Path_145415" data-name="Path 145415" d="M.32,5.16,28.7,19.349,57.076,5.16M28.7,53.825V19.349" transform="translate(0.618 9.501)" fill="none" stroke="#888888" stroke-linecap="round" stroke-linejoin="round" stroke-width="3" fill-rule="evenodd"/>
    </g>
    <g id="box-2" data-name="box" transform="translate(-2229 2481.828)">
      <path id="Path_145414-2" data-name="Path 145414" d="M16.252,78.373,4.631,70.562A8.419,8.419,0,0,1,0,62.985V22.909a8.419,8.419,0,0,1,4.673-7.535l14.4-9.2" transform="translate(0 0)" fill="none" stroke="#888888" stroke-linecap="round" stroke-linejoin="round" stroke-width="5" fill-rule="evenodd"/>
    </g>
    <g id="box-3" data-name="box" transform="translate(-2153 2488)">
      <path id="Path_145414-3" data-name="Path 145414" d="M2.824,78.373l11.621-7.81a8.419,8.419,0,0,0,4.631-7.577V22.909A8.419,8.419,0,0,0,14.4,15.374L0,6.172" transform="translate(0 -6.172)" fill="none" stroke="#888888" stroke-linecap="round" stroke-linejoin="round" stroke-width="5" fill-rule="evenodd"/>
    </g>
  </g>
</svg>
