<svg width="22" height="16" viewBox="0 0 22 16" fill="none" xmlns="http://www.w3.org/2000/svg">
<path d="M15.2857 0.999441L15.7933 0.593389C15.6699 0.4392 15.4832 0.349441 15.2857 0.349441L15.2857 0.999441ZM21 8.1423L21.5076 8.54835C21.6975 8.31096 21.6975 7.97364 21.5076 7.73625L21 8.1423ZM15.2857 15.2852L15.2857 15.9352C15.4832 15.9352 15.6699 15.8454 15.7933 15.6912L15.2857 15.2852ZM1.65 13.8566L1.65 2.42801L0.350002 2.42801L0.350001 13.8566L1.65 13.8566ZM2.42857 1.64944L15.2857 1.64944L15.2857 0.349441L2.42857 0.34944L2.42857 1.64944ZM14.7782 1.40549L20.4924 8.54835L21.5076 7.73625L15.7933 0.593389L14.7782 1.40549ZM20.4924 7.73625L14.7781 14.8791L15.7933 15.6912L21.5076 8.54835L20.4924 7.73625ZM15.2857 14.6352L2.42857 14.6352L2.42857 15.9352L15.2857 15.9352L15.2857 14.6352ZM1.65 2.42801C1.65 1.99802 1.99858 1.64944 2.42857 1.64944L2.42857 0.34944C1.28061 0.34944 0.350002 1.28005 0.350002 2.42801L1.65 2.42801ZM0.350001 13.8566C0.35 15.0045 1.28061 15.9352 2.42857 15.9352L2.42857 14.6352C1.99858 14.6352 1.65 14.2866 1.65 13.8566L0.350001 13.8566Z" fill="#0076E1"/>
</svg>
