<svg width="16" height="16" viewBox="0 0 16 16" fill="none" xmlns="http://www.w3.org/2000/svg">
<path d="M8.25 0.5C7.26509 0.5 6.28982 0.693993 5.37987 1.0709C4.46993 1.44781 3.64314 2.00026 2.9467 2.6967C2.25026 3.39314 1.69781 4.21993 1.3209 5.12987C0.943993 6.03982 0.75 7.01509 0.75 8C0.75 8.98491 0.943993 9.96018 1.3209 10.8701C1.69781 11.7801 2.25026 12.6069 2.9467 13.3033C3.64314 13.9997 4.46993 14.5522 5.37987 14.9291C6.28982 15.306 7.26509 15.5 8.25 15.5C10.2391 15.5 12.1468 14.7098 13.5533 13.3033C14.9598 11.8968 15.75 9.98912 15.75 8C15.75 6.01088 14.9598 4.10322 13.5533 2.6967C12.1468 1.29018 10.2391 0.5 8.25 0.5ZM8.25 1.75C9.9076 1.75 11.4973 2.40848 12.6694 3.58058C13.8415 4.75269 14.5 6.3424 14.5 8C14.5 9.6576 13.8415 11.2473 12.6694 12.4194C11.4973 13.5915 9.9076 14.25 8.25 14.25C6.5924 14.25 5.00269 13.5915 3.83058 12.4194C2.65848 11.2473 2 9.6576 2 8C2 6.3424 2.65848 4.75269 3.83058 3.58058C5.00269 2.40848 6.5924 1.75 8.25 1.75ZM7 8H5.125C4.97872 7.99995 4.83705 8.05121 4.72468 8.14486C4.6123 8.23851 4.53633 8.36861 4.51 8.5125L4.5 8.625V10.5013C4.49971 10.6574 4.55791 10.8081 4.66314 10.9235C4.76836 11.0389 4.91298 11.1107 5.06853 11.1248C5.22407 11.139 5.37926 11.0943 5.50354 10.9997C5.62782 10.9051 5.71217 10.7674 5.74 10.6137L5.75 10.5013V10.205C6.05448 10.5506 6.42731 10.8293 6.84495 11.0235C7.26259 11.2177 7.71596 11.3231 8.17643 11.3332C8.6369 11.3433 9.09445 11.2578 9.52021 11.0822C9.94596 10.9065 10.3307 10.6444 10.65 10.3125C10.707 10.2534 10.7517 10.1837 10.7817 10.1073C10.8117 10.0309 10.8264 9.94932 10.8249 9.86726C10.8234 9.7852 10.8057 9.70423 10.7729 9.62899C10.7401 9.55375 10.6928 9.48571 10.6337 9.42875C10.5747 9.37179 10.5049 9.32703 10.4285 9.29702C10.3521 9.267 10.2706 9.25234 10.1885 9.25384C10.1064 9.25535 10.0255 9.27301 9.95024 9.30581C9.875 9.33861 9.80696 9.38591 9.75 9.445C9.54063 9.66236 9.28654 9.83165 9.00532 9.94115C8.72409 10.0507 8.42243 10.0978 8.1212 10.0792C7.81998 10.0607 7.52638 9.97692 7.2607 9.83375C6.99503 9.69057 6.76363 9.4914 6.5825 9.25H7C7.15618 9.25029 7.30681 9.19209 7.42223 9.08686C7.53765 8.98164 7.60948 8.83702 7.62359 8.68147C7.63771 8.52593 7.59307 8.37074 7.49848 8.24646C7.40388 8.12218 7.26618 8.03783 7.1125 8.01L7 8ZM8.25 4.6675C7.79977 4.66696 7.35411 4.75786 6.94006 4.9347C6.52601 5.11154 6.15218 5.37062 5.84125 5.69625C5.72671 5.81609 5.66447 5.97653 5.66822 6.14227C5.67008 6.22433 5.68808 6.30522 5.7212 6.38033C5.75432 6.45544 5.80191 6.52329 5.86125 6.58C5.92059 6.63671 5.99052 6.68119 6.06705 6.71087C6.14358 6.74056 6.2252 6.75489 6.30727 6.75303C6.473 6.74928 6.63046 6.67984 6.745 6.56C6.95405 6.34149 7.20816 6.1711 7.48968 6.06066C7.77119 5.95022 8.07338 5.90237 8.37524 5.92045C8.67711 5.93853 8.97142 6.0221 9.23775 6.16535C9.50407 6.3086 9.73602 6.5081 9.9175 6.75H9.505C9.34882 6.74971 9.19819 6.80791 9.08277 6.91314C8.96735 7.01836 8.89552 7.16298 8.88141 7.31853C8.86729 7.47407 8.91193 7.62926 9.00653 7.75354C9.10112 7.87782 9.23882 7.96217 9.3925 7.99L9.505 8H11.375C11.5213 8.00005 11.6629 7.94879 11.7753 7.85514C11.8877 7.76149 11.9637 7.63139 11.99 7.4875L12 7.375V5.50375C12.0003 5.34757 11.9421 5.19694 11.8369 5.08152C11.7316 4.9661 11.587 4.89427 11.4315 4.88016C11.2759 4.86604 11.1207 4.91068 10.9965 5.00527C10.8722 5.09987 10.7878 5.23757 10.76 5.39125L10.75 5.50375V5.79625C10.4373 5.44142 10.0526 5.15724 9.62157 4.96262C9.19051 4.768 8.72296 4.66739 8.25 4.6675Z" fill="#0076E1"/>
</svg>
