<svg width="22" height="22" viewBox="0 0 22 22" fill="none" xmlns="http://www.w3.org/2000/svg">
<path d="M11 14.2917L11.2937 13.7603C11.1109 13.6593 10.8891 13.6593 10.7063 13.7603L11 14.2917ZM7.90967 16L7.31045 15.9022C7.27301 16.1317 7.36992 16.3624 7.55999 16.4963C7.75006 16.6302 7.99992 16.6438 8.20341 16.5314L7.90967 16ZM8.5 12.3817L9.09922 12.4794C9.13025 12.2892 9.06914 12.0956 8.93456 11.9577L8.5 12.3817ZM6 9.81943L5.90836 9.21924C5.68339 9.25359 5.49653 9.41086 5.42427 9.62666C5.35202 9.84246 5.40651 10.0805 5.56544 10.2434L6 9.81943ZM9.45484 9.29192L9.54648 9.89211C9.74665 9.86154 9.91841 9.7332 10.0044 9.5499L9.45484 9.29192ZM11 6L11.5496 5.74202C11.4496 5.52893 11.2354 5.39286 11 5.39286C10.7646 5.39286 10.5504 5.52893 10.4504 5.74202L11 6ZM12.5452 9.29192L11.9956 9.5499C12.0816 9.7332 12.2534 9.86154 12.4535 9.89211L12.5452 9.29192ZM16 9.81943L16.4346 10.2434C16.5935 10.0805 16.648 9.84246 16.5757 9.62666C16.5035 9.41086 16.3166 9.25359 16.0916 9.21924L16 9.81943ZM13.5 12.3817L13.0654 11.9577C12.9309 12.0956 12.8697 12.2892 12.9008 12.4794L13.5 12.3817ZM14.0903 16L13.7966 16.5314C14.0001 16.6438 14.2499 16.6302 14.44 16.4963C14.6301 16.3624 14.727 16.1317 14.6895 15.9022L14.0903 16ZM10.7063 13.7603L7.61594 15.4686L8.20341 16.5314L11.2937 14.823L10.7063 13.7603ZM8.50889 16.0978L9.09922 12.4794L7.90078 12.2839L7.31045 15.9022L8.50889 16.0978ZM8.93456 11.9577L6.43456 9.39542L5.56544 10.2434L8.06544 12.8057L8.93456 11.9577ZM6.09164 10.4196L9.54648 9.89211L9.3632 8.69173L5.90836 9.21924L6.09164 10.4196ZM10.0044 9.5499L11.5496 6.25798L10.4504 5.74202L8.90523 9.03394L10.0044 9.5499ZM10.4504 6.25798L11.9956 9.5499L13.0948 9.03394L11.5496 5.74202L10.4504 6.25798ZM12.4535 9.89211L15.9084 10.4196L16.0916 9.21924L12.6368 8.69173L12.4535 9.89211ZM15.5654 9.39542L13.0654 11.9577L13.9346 12.8057L16.4346 10.2434L15.5654 9.39542ZM12.9008 12.4794L13.4911 16.0978L14.6895 15.9022L14.0992 12.2839L12.9008 12.4794ZM14.3841 15.4686L11.2937 13.7603L10.7063 14.823L13.7966 16.5314L14.3841 15.4686ZM11 20.3929C5.81247 20.3929 1.60714 16.1875 1.60714 11H0.392857C0.392857 16.8582 5.14184 21.6071 11 21.6071V20.3929ZM20.3929 11C20.3929 16.1875 16.1875 20.3929 11 20.3929V21.6071C16.8582 21.6071 21.6071 16.8582 21.6071 11H20.3929ZM11 1.60714C16.1875 1.60714 20.3929 5.81247 20.3929 11H21.6071C21.6071 5.14184 16.8582 0.392857 11 0.392857V1.60714ZM11 0.392857C5.14184 0.392857 0.392857 5.14184 0.392857 11H1.60714C1.60714 5.81247 5.81247 1.60714 11 1.60714V0.392857Z" fill="#0076E1"/>
</svg>
