<svg width="15" height="14" viewBox="0 0 15 14" fill="none" xmlns="http://www.w3.org/2000/svg">
<path d="M3.3822 6.13364H2.8822V7.13364H3.3822V6.13364ZM7.89172 7.13364H8.39172V6.13364H7.89172V7.13364ZM3.38275 8.38693L2.88275 8.38639L2.88166 9.38639L3.38166 9.38693L3.38275 8.38693ZM7.89118 9.39184L8.39118 9.39239L8.39226 8.39239L7.89227 8.39184L7.89118 9.39184ZM3.38253 3.88035L2.88253 3.88002L2.88187 4.88002L3.38187 4.88035L3.38253 3.88035ZM6.38822 4.88232L6.88822 4.88265L6.88888 3.88265L6.38888 3.88232L6.38822 4.88232ZM7.89172 1.37598L8.24527 1.02242L8.09883 0.875977H7.89172V1.37598ZM10.1465 3.63074H10.6465V3.42363L10.5 3.27718L10.1465 3.63074ZM3.3822 7.13364H7.89172V6.13364H3.3822V7.13364ZM3.38166 9.38693L7.89118 9.39184L7.89227 8.39184L3.38275 8.38693L3.38166 9.38693ZM3.38187 4.88035L6.38822 4.88232L6.38888 3.88232L3.38253 3.88035L3.38187 4.88035ZM9.39489 11.3982H1.87903V12.3982H9.39489V11.3982ZM1.62744 11.1466V2.12756H0.627441V11.1466H1.62744ZM1.87903 1.87598H7.89172V0.875977H1.87903V1.87598ZM9.64648 3.63074V11.1466H10.6465V3.63074H9.64648ZM7.53817 1.72953L9.79293 3.98429L10.5 3.27718L8.24527 1.02242L7.53817 1.72953ZM1.87903 11.3982C1.74008 11.3982 1.62744 11.2855 1.62744 11.1466H0.627441C0.627441 11.8378 1.1878 12.3982 1.87903 12.3982V11.3982ZM9.39489 12.3982C10.0861 12.3982 10.6465 11.8378 10.6465 11.1466H9.64648C9.64648 11.2855 9.53384 11.3982 9.39489 11.3982V12.3982ZM1.62744 2.12756C1.62744 1.98862 1.74008 1.87598 1.87903 1.87598V0.875977C1.1878 0.875977 0.627441 1.43633 0.627441 2.12756H1.62744Z" fill="#1D1921"/>
<path d="M7.44944 9.65115C6.52111 9.04829 6.25727 7.80701 6.86014 6.87868C7.463 5.95035 8.70428 5.68651 9.63261 6.28937C10.5609 6.89224 10.8248 8.13352 10.2219 9.06185C9.61905 9.99018 8.37777 10.254 7.44944 9.65115Z" fill="#E8E8EA"/>
<path d="M12.9534 10.8357L10.2219 9.06185M10.2219 9.06185C10.8248 8.13352 10.5609 6.89224 9.63261 6.28937C8.70428 5.68651 7.463 5.95035 6.86014 6.87868C6.25727 7.80701 6.52111 9.04829 7.44944 9.65115C8.37777 10.254 9.61905 9.99018 10.2219 9.06185Z" stroke="#1D1921"/>
</svg>
