<svg width="14" height="14" viewBox="0 0 14 14" fill="none" xmlns="http://www.w3.org/2000/svg">
<path d="M9.85567 6.26966L10.2089 6.62293L10.5625 6.26996C11.5835 5.25058 12.3503 4.48763 12.8622 3.98034C12.9621 3.88132 13.0523 3.7921 13.1327 3.71268C13.6077 5.00874 13.3072 6.50298 12.2884 7.5205L12.2882 7.52072C11.3626 8.44628 10.0294 8.79081 8.7866 8.45968L8.67451 8.42957L8.3955 8.35461L8.19123 8.55889L3.57171 13.1784L1.51041 11.1171L6.1332 6.49593L6.33756 6.29164L6.26259 6.01259L6.23248 5.9005C6.23243 5.90031 6.23238 5.90013 6.23233 5.89995C6.06881 5.28576 6.0696 4.63937 6.23463 4.02558C6.39971 3.4116 6.72333 2.85182 7.17302 2.40239L7.17312 2.40229C8.19041 1.38499 9.68332 1.08513 10.9804 1.57149L8.42249 4.12938L8.06894 4.48294L8.42249 4.83649L9.85567 6.26966Z" stroke="#0076E1"/>
</svg>
