<svg viewBox="0 0 10 11" fill="none" xmlns="http://www.w3.org/2000/svg">
<path d="M9.5 1H9.875V0.625H9.5V1ZM8 10V10.375H8.375V10H8ZM0.5 10H0.125V10.375H0.5V10ZM0.5 2.5V2.125H0.125V2.5H0.5ZM9.5 0.625H5.375V1.375H9.5V0.625ZM9.125 1V5.125H9.875V1H9.125ZM9.23483 0.734835L2.48484 7.48484L3.01517 8.01516L9.76516 1.26516L9.23483 0.734835ZM8 10C8.375 10 8.375 9.99999 8.375 9.99997C8.375 9.99996 8.375 9.99993 8.375 9.99989C8.375 9.99986 8.375 9.99981 8.375 9.99976C8.375 9.9997 8.375 9.99964 8.375 9.99957C8.375 9.9995 8.375 9.99942 8.375 9.99933C8.375 9.99924 8.375 9.99914 8.375 9.99903C8.375 9.99892 8.375 9.99881 8.375 9.99868C8.375 9.99855 8.375 9.99842 8.375 9.99828C8.375 9.99813 8.375 9.99798 8.375 9.99782C8.375 9.99766 8.375 9.99749 8.375 9.99731C8.375 9.99713 8.375 9.99695 8.375 9.99675C8.375 9.99656 8.375 9.99635 8.375 9.99614C8.375 9.99592 8.375 9.9957 8.375 9.99547C8.375 9.99524 8.375 9.995 8.375 9.99475C8.375 9.9945 8.375 9.99424 8.375 9.99398C8.375 9.99371 8.375 9.99344 8.375 9.99315C8.375 9.99287 8.375 9.99258 8.375 9.99228C8.375 9.99198 8.375 9.99167 8.375 9.99135C8.375 9.99103 8.375 9.99071 8.375 9.99037C8.375 9.99004 8.375 9.98969 8.375 9.98934C8.375 9.98899 8.375 9.98863 8.375 9.98826C8.375 9.98789 8.375 9.98751 8.375 9.98712C8.375 9.98674 8.375 9.98634 8.375 9.98594C8.375 9.98553 8.375 9.98512 8.375 9.9847C8.375 9.98428 8.375 9.98385 8.375 9.98341C8.375 9.98297 8.375 9.98253 8.375 9.98207C8.375 9.98162 8.375 9.98116 8.375 9.98068C8.375 9.98021 8.375 9.97973 8.375 9.97924C8.375 9.97876 8.375 9.97826 8.375 9.97775C8.375 9.97725 8.375 9.97674 8.375 9.97621C8.375 9.97569 8.375 9.97516 8.375 9.97462C8.375 9.97408 8.375 9.97354 8.375 9.97298C8.375 9.97243 8.375 9.97186 8.375 9.97129C8.375 9.97072 8.375 9.97014 8.375 9.96955C8.375 9.96896 8.375 9.96836 8.375 9.96776C8.375 9.96715 8.375 9.96654 8.375 9.96592C8.375 9.9653 8.375 9.96467 8.375 9.96403C8.375 9.96339 8.375 9.96275 8.375 9.96209C8.375 9.96144 8.375 9.96077 8.375 9.9601C8.375 9.95943 8.375 9.95875 8.375 9.95807C8.375 9.95738 8.375 9.95669 8.375 9.95598C8.375 9.95528 8.375 9.95457 8.375 9.95385C8.375 9.95313 8.375 9.9524 8.375 9.95166C8.375 9.95093 8.375 9.95018 8.375 9.94943C8.375 9.94868 8.375 9.94792 8.375 9.94715C8.375 9.94639 8.375 9.94561 8.375 9.94483C8.375 9.94404 8.375 9.94325 8.375 9.94245C8.375 9.94165 8.375 9.94084 8.375 9.94003C8.375 9.93921 8.375 9.93839 8.375 9.93755C8.375 9.93672 8.375 9.93588 8.375 9.93503C8.375 9.93419 8.375 9.93333 8.375 9.93247C8.375 9.9316 8.375 9.93073 8.375 9.92985C8.375 9.92897 8.375 9.92809 8.375 9.92719C8.375 9.9263 8.375 9.92539 8.375 9.92448C8.375 9.92357 8.375 9.92265 8.375 9.92173C8.375 9.9208 8.375 9.91987 8.375 9.91893C8.375 9.91798 8.375 9.91703 8.375 9.91608C8.375 9.91512 8.375 9.91415 8.375 9.91318C8.375 9.91221 8.375 9.91123 8.375 9.91024C8.375 9.90925 8.375 9.90825 8.375 9.90725C8.375 9.90624 8.375 9.90523 8.375 9.90421C8.375 9.90319 8.375 9.90217 8.375 9.90113C8.375 9.9001 8.375 9.89906 8.375 9.89801C8.375 9.89696 8.375 9.8959 8.375 9.89483C8.375 9.89377 8.375 9.8927 8.375 9.89161C8.375 9.89053 8.375 9.88945 8.375 9.88835C8.375 9.88726 8.375 9.88615 8.375 9.88504C8.375 9.88393 8.375 9.88281 8.375 9.88169C8.375 9.88056 8.375 9.87943 8.375 9.87829C8.375 9.87715 8.375 9.876 8.375 9.87484C8.375 9.87369 8.375 9.87252 8.375 9.87135C8.375 9.87018 8.375 9.869 8.375 9.86782C8.375 9.86663 8.375 9.86544 8.375 9.86424C8.375 9.86304 8.375 9.86183 8.375 9.86062C8.375 9.8594 8.375 9.85818 8.375 9.85695C8.375 9.85572 8.375 9.85448 8.375 9.85324C8.375 9.85199 8.375 9.85074 8.375 9.84948C8.375 9.84822 8.375 9.84695 8.375 9.84568C8.375 9.84441 8.375 9.84312 8.375 9.84184C8.375 9.84055 8.375 9.83925 8.375 9.83795C8.375 9.83665 8.375 9.83533 8.375 9.83402C8.375 9.8327 8.375 9.83138 8.375 9.83004C8.375 9.82871 8.375 9.82737 8.375 9.82603C8.375 9.82468 8.375 9.82333 8.375 9.82196C8.375 9.8206 8.375 9.81924 8.375 9.81786C8.375 9.81649 8.375 9.8151 8.375 9.81371C8.375 9.81232 8.375 9.81093 8.375 9.80952C8.375 9.80812 8.375 9.80671 8.375 9.80529C8.375 9.80387 8.375 9.80245 8.375 9.80102C8.375 9.79959 8.375 9.79815 8.375 9.7967C8.375 9.79525 8.375 9.7938 8.375 9.79234C8.375 9.79088 8.375 9.78941 8.375 9.78794C8.375 9.78647 8.375 9.78499 8.375 9.7835C8.375 9.78201 8.375 9.78051 8.375 9.77901C8.375 9.77751 8.375 9.776 8.375 9.77449C8.375 9.77297 8.375 9.77145 8.375 9.76992C8.375 9.76839 8.375 9.76685 8.375 9.76531C8.375 9.76376 8.375 9.76221 8.375 9.76066C8.375 9.7591 8.375 9.75754 8.375 9.75597C8.375 9.75439 8.375 9.75282 8.375 9.75123C8.375 9.74965 8.375 9.74806 8.375 9.74646C8.375 9.74486 8.375 9.74326 8.375 9.74164C8.375 9.74003 8.375 9.73841 8.375 9.73679C8.375 9.73516 8.375 9.73353 8.375 9.73189C8.375 9.73025 8.375 9.72861 8.375 9.72696C8.375 9.7253 8.375 9.72365 8.375 9.72198C8.375 9.72031 8.375 9.71864 8.375 9.71696C8.375 9.71529 8.375 9.7136 8.375 9.71191C8.375 9.71022 8.375 9.70852 8.375 9.70681C8.375 9.70511 8.375 9.70339 8.375 9.70168C8.375 9.69996 8.375 9.69823 8.375 9.6965C8.375 9.69477 8.375 9.69303 8.375 9.69129C8.375 9.68954 8.375 9.68779 8.375 9.68603C8.375 9.68427 8.375 9.68251 8.375 9.68074C8.375 9.67897 8.375 9.67719 8.375 9.67541C8.375 9.67362 8.375 9.67183 8.375 9.67004C8.375 9.66824 8.375 9.66644 8.375 9.66463C8.375 9.66282 8.375 9.661 8.375 9.65918C8.375 9.65735 8.375 9.65553 8.375 9.65369C8.375 9.65185 8.375 9.65001 8.375 9.64816C8.375 9.64632 8.375 9.64446 8.375 9.6426C8.375 9.64074 8.375 9.63887 8.375 9.637C8.375 9.63513 8.375 9.63325 8.375 9.63136C8.375 9.62947 8.375 9.62758 8.375 9.62568C8.375 9.62378 8.375 9.62188 8.375 9.61997C8.375 9.61806 8.375 9.61614 8.375 9.61421C8.375 9.61229 8.375 9.61036 8.375 9.60843C8.375 9.60649 8.375 9.60455 8.375 9.6026C8.375 9.60065 8.375 9.59869 8.375 9.59673C8.375 9.59477 8.375 9.5928 8.375 9.59083C8.375 9.58886 8.375 9.58688 8.375 9.58489C8.375 9.58291 8.375 9.58092 8.375 9.57892C8.375 9.57692 8.375 9.57492 8.375 9.57291C8.375 9.5709 8.375 9.56888 8.375 9.56686C8.375 9.56484 8.375 9.56281 8.375 9.56077C8.375 9.55874 8.375 9.5567 8.375 9.55465C8.375 9.55261 8.375 9.55055 8.375 9.5485C8.375 9.54644 8.375 9.54437 8.375 9.5423C8.375 9.54023 8.375 9.53816 8.375 9.53607C8.375 9.53399 8.375 9.5319 8.375 9.52981C8.375 9.52772 8.375 9.52562 8.375 9.52351C8.375 9.5214 8.375 9.51929 8.375 9.51717C8.375 9.51506 8.375 9.51293 8.375 9.5108C8.375 9.50867 8.375 9.50654 8.375 9.5044C8.375 9.50226 8.375 9.50011 8.375 9.49796C8.375 9.4958 8.375 9.49365 8.375 9.49148C8.375 9.48932 8.375 9.48715 8.375 9.48497C8.375 9.4828 8.375 9.48061 8.375 9.47843C8.375 9.47624 8.375 9.47405 8.375 9.47185C8.375 9.46965 8.375 9.46744 8.375 9.46523C8.375 9.46302 8.375 9.46081 8.375 9.45858C8.375 9.45636 8.375 9.45414 8.375 9.4519C8.375 9.44967 8.375 9.44743 8.375 9.44519C8.375 9.44294 8.375 9.44069 8.375 9.43844C8.375 9.43618 8.375 9.43392 8.375 9.43165C8.375 9.42939 8.375 9.42711 8.375 9.42484C8.375 9.42256 8.375 9.42027 8.375 9.41798C8.375 9.4157 8.375 9.4134 8.375 9.4111C8.375 9.4088 8.375 9.4065 8.375 9.40418C8.375 9.40187 8.375 9.39956 8.375 9.39723C8.375 9.39491 8.375 9.39258 8.375 9.39025C8.375 9.38792 8.375 9.38558 8.375 9.38324C8.375 9.38089 8.375 9.37854 8.375 9.37619C8.375 9.37383 8.375 9.37147 8.375 9.36911C8.375 9.36674 8.375 9.36437 8.375 9.36199C8.375 9.35962 8.375 9.35723 8.375 9.35485C8.375 9.35246 8.375 9.35007 8.375 9.34767C8.375 9.34527 8.375 9.34287 8.375 9.34046C8.375 9.33805 8.375 9.33564 8.375 9.33322C8.375 9.3308 8.375 9.32838 8.375 9.32595C8.375 9.32352 8.375 9.32108 8.375 9.31864C8.375 9.3162 8.375 9.31376 8.375 9.31131C8.375 9.30886 8.375 9.3064 8.375 9.30394C8.375 9.30148 8.375 9.29901 8.375 9.29654C8.375 9.29407 8.375 9.29159 8.375 9.28911C8.375 9.28663 8.375 9.28414 8.375 9.28165C8.375 9.27916 8.375 9.27666 8.375 9.27416C8.375 9.27166 8.375 9.26915 8.375 9.26664C8.375 9.26412 8.375 9.26161 8.375 9.25908C8.375 9.25656 8.375 9.25403 8.375 9.2515C8.375 9.24897 8.375 9.24643 8.375 9.24389C8.375 9.24135 8.375 9.2388 8.375 9.23625C8.375 9.23369 8.375 9.23114 8.375 9.22857C8.375 9.22601 8.375 9.22344 8.375 9.22087C8.375 9.2183 8.375 9.21572 8.375 9.21314C8.375 9.21056 8.375 9.20797 8.375 9.20538C8.375 9.20278 8.375 9.20019 8.375 9.19758C8.375 9.19498 8.375 9.19238 8.375 9.18976C8.375 9.18715 8.375 9.18454 8.375 9.18191C8.375 9.17929 8.375 9.17667 8.375 9.17404C8.375 9.1714 8.375 9.16877 8.375 9.16613C8.375 9.16349 8.375 9.16084 8.375 9.15819C8.375 9.15554 8.375 9.15289 8.375 9.15023C8.375 9.14757 8.375 9.1449 8.375 9.14223C8.375 9.13956 8.375 9.13689 8.375 9.13421C8.375 9.13153 8.375 9.12885 8.375 9.12616C8.375 9.12347 8.375 9.12078 8.375 9.11808C8.375 9.11538 8.375 9.11268 8.375 9.10997C8.375 9.10727 8.375 9.10456 8.375 9.10184C8.375 9.09912 8.375 9.0964 8.375 9.09368C8.375 9.09095 8.375 9.08822 8.375 9.08549C8.375 9.08275 8.375 9.08002 8.375 9.07727C8.375 9.07453 8.375 9.07178 8.375 9.06903C8.375 9.06627 8.375 9.06352 8.375 9.06076C8.375 9.05799 8.375 9.05523 8.375 9.05246C8.375 9.04969 8.375 9.04691 8.375 9.04413C8.375 9.04135 8.375 9.03857 8.375 9.03578C8.375 9.03299 8.375 9.0302 8.375 9.0274C8.375 9.0246 8.375 9.0218 8.375 9.019C8.375 9.01619 8.375 9.01338 8.375 9.01056C8.375 9.00775 8.375 9.00493 8.375 9.00211C8.375 8.99928 8.375 8.99646 8.375 8.99362C8.375 8.99079 8.375 8.98795 8.375 8.98511C8.375 8.98227 8.375 8.97943 8.375 8.97658C8.375 8.97373 8.375 8.97087 8.375 8.96802C8.375 8.96516 8.375 8.9623 8.375 8.95943C8.375 8.95656 8.375 8.95369 8.375 8.95082C8.375 8.94794 8.375 8.94506 8.375 8.94218C8.375 8.9393 8.375 8.93641 8.375 8.93352C8.375 8.93062 8.375 8.92773 8.375 8.92483C8.375 8.92193 8.375 8.91902 8.375 8.91611C8.375 8.91321 8.375 8.91029 8.375 8.90738C8.375 8.90446 8.375 8.90154 8.375 8.89861C8.375 8.89569 8.375 8.89276 8.375 8.88983C8.375 8.8869 8.375 8.88396 8.375 8.88102C8.375 8.87808 8.375 8.87513 8.375 8.87218C8.375 8.86923 8.375 8.86628 8.375 8.86332C8.375 8.86036 8.375 8.8574 8.375 8.85444C8.375 8.85147 8.375 8.8485 8.375 8.84553C8.375 8.84256 8.375 8.83958 8.375 8.8366C8.375 8.83362 8.375 8.83063 8.375 8.82765C8.375 8.82466 8.375 8.82166 8.375 8.81867C8.375 8.81567 8.375 8.81267 8.375 8.80967C8.375 8.80666 8.375 8.80365 8.375 8.80064C8.375 8.79763 8.375 8.79461 8.375 8.79159C8.375 8.78857 8.375 8.78555 8.375 8.78252C8.375 8.7795 8.375 8.77647 8.375 8.77343C8.375 8.7704 8.375 8.76736 8.375 8.76432C8.375 8.76127 8.375 8.75823 8.375 8.75518C8.375 8.75213 8.375 8.74907 8.375 8.74602C8.375 8.74296 8.375 8.7399 8.375 8.73683C8.375 8.73377 8.375 8.7307 8.375 8.72763C8.375 8.72456 8.375 8.72148 8.375 8.7184C8.375 8.71532 8.375 8.71224 8.375 8.70915C8.375 8.70607 8.375 8.70298 8.375 8.69988C8.375 8.69679 8.375 8.69369 8.375 8.69059C8.375 8.68749 8.375 8.68438 8.375 8.68128C8.375 8.67817 8.375 8.67506 8.375 8.67194C8.375 8.66883 8.375 8.66571 8.375 8.66258C8.375 8.65946 8.375 8.65634 8.375 8.65321C8.375 8.65008 8.375 8.64695 8.375 8.64381C8.375 8.64067 8.375 8.63753 8.375 8.63439C8.375 8.63125 8.375 8.6281 8.375 8.62495C8.375 8.6218 8.375 8.61865 8.375 8.61549C8.375 8.61233 8.375 8.60917 8.375 8.60601C8.375 8.60285 8.375 8.59968 8.375 8.59651C8.375 8.59334 8.375 8.59017 8.375 8.58699C8.375 8.58381 8.375 8.58063 8.375 8.57745C8.375 8.57426 8.375 8.57108 8.375 8.56789C8.375 8.5647 8.375 8.5615 8.375 8.55831C8.375 8.55511 8.375 8.55191 8.375 8.54871C8.375 8.5455 8.375 8.5423 8.375 8.53909C8.375 8.53588 8.375 8.53267 8.375 8.52945C8.375 8.52623 8.375 8.52301 8.375 8.51979C8.375 8.51657 8.375 8.51334 8.375 8.51012C8.375 8.50689 8.375 8.50365 8.375 8.50042C8.375 8.49718 8.375 8.49395 8.375 8.49071C8.375 8.48746 8.375 8.48422 8.375 8.48097C8.375 8.47772 8.375 8.47447 8.375 8.47122C8.375 8.46797 8.375 8.46471 8.375 8.46145C8.375 8.45819 8.375 8.45493 8.375 8.45166C8.375 8.4484 8.375 8.44513 8.375 8.44185C8.375 8.43858 8.375 8.43531 8.375 8.43203C8.375 8.42875 8.375 8.42547 8.375 8.42219C8.375 8.4189 8.375 8.41562 8.375 8.41233C8.375 8.40904 8.375 8.40575 8.375 8.40245C8.375 8.39916 8.375 8.39586 8.375 8.39256C8.375 8.38925 8.375 8.38595 8.375 8.38264C8.375 8.37934 8.375 8.37603 8.375 8.37271C8.375 8.3694 8.375 8.36609 8.375 8.36277C8.375 8.35945 8.375 8.35613 8.375 8.3528C8.375 8.34948 8.375 8.34615 8.375 8.34282C8.375 8.33949 8.375 8.33616 8.375 8.33283C8.375 8.32949 8.375 8.32615 8.375 8.32281C8.375 8.31947 8.375 8.31613 8.375 8.31278C8.375 8.30944 8.375 8.30609 8.375 8.30274C8.375 8.29939 8.375 8.29603 8.375 8.29268C8.375 8.28932 8.375 8.28596 8.375 8.2826C8.375 8.27924 8.375 8.27587 8.375 8.2725C8.375 8.26914 8.375 8.26577 8.375 8.26239C8.375 8.25902 8.375 8.25565 8.375 8.25227C8.375 8.24889 8.375 8.24551 8.375 8.24213C8.375 8.23874 8.375 8.23536 8.375 8.23197C8.375 8.22858 8.375 8.22519 8.375 8.2218C8.375 8.21841 8.375 8.21501 8.375 8.21161C8.375 8.20822 8.375 8.20482 8.375 8.20141C8.375 8.19801 8.375 8.1946 8.375 8.1912C8.375 8.18779 8.375 8.18438 8.375 8.18097C8.375 8.17755 8.375 8.17414 8.375 8.17072C8.375 8.1673 8.375 8.16388 8.375 8.16046C8.375 8.15704 8.375 8.15361 8.375 8.15019C8.375 8.14676 8.375 8.14333 8.375 8.1399C8.375 8.13647 8.375 8.13303 8.375 8.1296C8.375 8.12616 8.375 8.12272 8.375 8.11928C8.375 8.11584 8.375 8.1124 8.375 8.10895C8.375 8.10551 8.375 8.10206 8.375 8.09861C8.375 8.09516 8.375 8.09171 8.375 8.08825C8.375 8.0848 8.375 8.08134 8.375 8.07788C8.375 8.07442 8.375 8.07096 8.375 8.0675C8.375 8.06404 8.375 8.06057 8.375 8.0571C8.375 8.05364 8.375 8.05017 8.375 8.04669C8.375 8.04322 8.375 8.03975 8.375 8.03627C8.375 8.0328 8.375 8.02932 8.375 8.02584C8.375 8.02236 8.375 8.01888 8.375 8.01539C8.375 8.01191 8.375 8.00842 8.375 8.00493C8.375 8.00144 8.375 7.99795 8.375 7.99446C8.375 7.99097 8.375 7.98747 8.375 7.98398C8.375 7.98048 8.375 7.97698 8.375 7.97348C8.375 7.96998 8.375 7.96648 8.375 7.96297C8.375 7.95947 8.375 7.95596 8.375 7.95245C8.375 7.94894 8.375 7.94543 8.375 7.94192C8.375 7.93841 8.375 7.9349 8.375 7.93138C8.375 7.92786 8.375 7.92435 8.375 7.92083C8.375 7.91731 8.375 7.91378 8.375 7.91026C8.375 7.90674 8.375 7.90321 8.375 7.89968C8.375 7.89616 8.375 7.89263 8.375 7.8891C8.375 7.88557 8.375 7.88203 8.375 7.8785C8.375 7.87497 8.375 7.87143 8.375 7.86789C8.375 7.86435 8.375 7.86081 8.375 7.85727C8.375 7.85373 8.375 7.85019 8.375 7.84664C8.375 7.8431 8.375 7.83955 8.375 7.836C8.375 7.83246 8.375 7.82891 8.375 7.82535C8.375 7.8218 8.375 7.81825 8.375 7.81469C8.375 7.81114 8.375 7.80758 8.375 7.80403C8.375 7.80047 8.375 7.79691 8.375 7.79335C8.375 7.78978 8.375 7.78622 8.375 7.78266C8.375 7.77909 8.375 7.77553 8.375 7.77196C8.375 7.76839 8.375 7.76482 8.375 7.76125C8.375 7.75768 8.375 7.75411 8.375 7.75053C8.375 7.74696 8.375 7.74338 8.375 7.73981C8.375 7.73623 8.375 7.73265 8.375 7.72907C8.375 7.72549 8.375 7.72191 8.375 7.71833C8.375 7.71475 8.375 7.71116 8.375 7.70758C8.375 7.70399 8.375 7.7004 8.375 7.69682C8.375 7.69323 8.375 7.68964 8.375 7.68605C8.375 7.68246 8.375 7.67886 8.375 7.67527C8.375 7.67168 8.375 7.66808 8.375 7.66448C8.375 7.66089 8.375 7.65729 8.375 7.65369C8.375 7.65009 8.375 7.64649 8.375 7.64289C8.375 7.63929 8.375 7.63568 8.375 7.63208C8.375 7.62848 8.375 7.62487 8.375 7.62126C8.375 7.61766 8.375 7.61405 8.375 7.61044C8.375 7.60683 8.375 7.60322 8.375 7.59961C8.375 7.596 8.375 7.59238 8.375 7.58877C8.375 7.58515 8.375 7.58154 8.375 7.57792C8.375 7.57431 8.375 7.57069 8.375 7.56707C8.375 7.56345 8.375 7.55983 8.375 7.55621C8.375 7.55259 8.375 7.54897 8.375 7.54534C8.375 7.54172 8.375 7.5381 8.375 7.53447C8.375 7.53085 8.375 7.52722 8.375 7.52359C8.375 7.51996 8.375 7.51634 8.375 7.51271C8.375 7.50908 8.375 7.50545 8.375 7.50181C8.375 7.49818 8.375 7.49455 8.375 7.49092C8.375 7.48728 8.375 7.48365 8.375 7.48001C8.375 7.47638 8.375 7.47274 8.375 7.4691C8.375 7.46547 8.375 7.46183 8.375 7.45819C8.375 7.45455 8.375 7.45091 8.375 7.44727C8.375 7.44363 8.375 7.43999 8.375 7.43634C8.375 7.4327 8.375 7.42906 8.375 7.42541C8.375 7.42177 8.375 7.41812 8.375 7.41448C8.375 7.41083 8.375 7.40718 8.375 7.40354C8.375 7.39989 8.375 7.39624 8.375 7.39259C8.375 7.38894 8.375 7.38529 8.375 7.38164C8.375 7.37799 8.375 7.37434 8.375 7.37069C8.375 7.36703 8.375 7.36338 8.375 7.35973C8.375 7.35607 8.375 7.35242 8.375 7.34876C8.375 7.34511 8.375 7.34145 8.375 7.3378C8.375 7.33414 8.375 7.33048 8.375 7.32682C8.375 7.32317 8.375 7.31951 8.375 7.31585C8.375 7.31219 8.375 7.30853 8.375 7.30487C8.375 7.30121 8.375 7.29755 8.375 7.29389C8.375 7.29022 8.375 7.28656 8.375 7.2829C8.375 7.27924 8.375 7.27557 8.375 7.27191C8.375 7.26825 8.375 7.26458 8.375 7.26092C8.375 7.25725 8.375 7.25359 8.375 7.24992C8.375 7.24626 8.375 7.24259 8.375 7.23892C8.375 7.23526 8.375 7.23159 8.375 7.22792C8.375 7.22425 8.375 7.22058 8.375 7.21692C8.375 7.21325 8.375 7.20958 8.375 7.20591C8.375 7.20224 8.375 7.19857 8.375 7.1949C8.375 7.19123 8.375 7.18756 8.375 7.18389C8.375 7.18022 8.375 7.17655 8.375 7.17287C8.375 7.1692 8.375 7.16553 8.375 7.16186C8.375 7.15819 8.375 7.15451 8.375 7.15084C8.375 7.14717 8.375 7.1435 8.375 7.13982C8.375 7.13615 8.375 7.13248 8.375 7.1288C8.375 7.12513 8.375 7.12145 8.375 7.11778C8.375 7.1141 8.375 7.11043 8.375 7.10676C8.375 7.10308 8.375 7.09941 8.375 7.09573C8.375 7.09206 8.375 7.08838 8.375 7.0847C8.375 7.08103 8.375 7.07735 8.375 7.07368C8.375 7.07 8.375 7.06633 8.375 7.06265C8.375 7.05897 8.375 7.0553 8.375 7.05162C8.375 7.04795 8.375 7.04427 8.375 7.04059C8.375 7.03692 8.375 7.03324 8.375 7.02956C8.375 7.02589 8.375 7.02221 8.375 7.01853C8.375 7.01486 8.375 7.01118 8.375 7.0075C8.375 7.00383 8.375 7.00015 8.375 6.99647C8.375 6.9928 8.375 6.98912 8.375 6.98544C8.375 6.98177 8.375 6.97809 8.375 6.97441C8.375 6.97074 8.375 6.96706 8.375 6.96339C8.375 6.95971 8.375 6.95603 8.375 6.95236C8.375 6.94868 8.375 6.945 8.375 6.94133C8.375 6.93765 8.375 6.93398 8.375 6.9303C8.375 6.92663 8.375 6.92295 8.375 6.91928C8.375 6.9156 8.375 6.91193 8.375 6.90825C8.375 6.90458 8.375 6.9009 8.375 6.89723C8.375 6.89355 8.375 6.88988 8.375 6.8862C8.375 6.88253 8.375 6.87886 8.375 6.87518C8.375 6.87151 8.375 6.86784 8.375 6.86416C8.375 6.86049 8.375 6.85682 8.375 6.85315C8.375 6.84947 8.375 6.8458 8.375 6.84213C8.375 6.83846 8.375 6.83479 8.375 6.83112C8.375 6.82744 8.375 6.82377 8.375 6.8201C8.375 6.81643 8.375 6.81276 8.375 6.80909C8.375 6.80542 8.375 6.80176 8.375 6.79809C8.375 6.79442 8.375 6.79075 8.375 6.78708C8.375 6.78341 8.375 6.77975 8.375 6.77608C8.375 6.77241 8.375 6.76875 8.375 6.76508C8.375 6.76141 8.375 6.75775 8.375 6.75408C8.375 6.75042 8.375 6.74675 8.375 6.74309C8.375 6.73943 8.375 6.73576 8.375 6.7321C8.375 6.72844 8.375 6.72478 8.375 6.72111C8.375 6.71745 8.375 6.71379 8.375 6.71013C8.375 6.70647 8.375 6.70281 8.375 6.69915C8.375 6.69549 8.375 6.69183 8.375 6.68817C8.375 6.68452 8.375 6.68086 8.375 6.6772C8.375 6.67355 8.375 6.66989 8.375 6.66623C8.375 6.66258 8.375 6.65892 8.375 6.65527C8.375 6.65162 8.375 6.64796 8.375 6.64431C8.375 6.64066 8.375 6.63701 8.375 6.63335C8.375 6.6297 8.375 6.62605 8.375 6.6224C8.375 6.61875 8.375 6.61511 8.375 6.61146C8.375 6.60781 8.375 6.60416 8.375 6.60052C8.375 6.59687 8.375 6.59322 8.375 6.58958C8.375 6.58593 8.375 6.58229 8.375 6.57865C8.375 6.57501 8.375 6.57136 8.375 6.56772C8.375 6.56408 8.375 6.56044 8.375 6.5568C8.375 6.55316 8.375 6.54952 8.375 6.54588C8.375 6.54225 8.375 6.53861 8.375 6.53497C8.375 6.53134 8.375 6.5277 8.375 6.52407C8.375 6.52044 8.375 6.5168 8.375 6.51317C8.375 6.50954 8.375 6.50591 8.375 6.50228C8.375 6.49865 8.375 6.49502 8.375 6.49139C8.375 6.48777 8.375 6.48414 8.375 6.48051C8.375 6.47689 8.375 6.47326 8.375 6.46964C8.375 6.46602 8.375 6.46239 8.375 6.45877C8.375 6.45515 8.375 6.45153 8.375 6.44791C8.375 6.44429 8.375 6.44067 8.375 6.43706C8.375 6.43344 8.375 6.42983 8.375 6.42621C8.375 6.4226 8.375 6.41898 8.375 6.41537C8.375 6.41176 8.375 6.40815 8.375 6.40454C8.375 6.40093 8.375 6.39732 8.375 6.39371C8.375 6.39011 8.375 6.3865 8.375 6.38289C8.375 6.37929 8.375 6.37569 8.375 6.37208C8.375 6.36848 8.375 6.36488 8.375 6.36128C8.375 6.35768 8.375 6.35408 8.375 6.35049C8.375 6.34689 8.375 6.34329 8.375 6.3397C8.375 6.33611 8.375 6.33251 8.375 6.32892C8.375 6.32533 8.375 6.32174 8.375 6.31815C8.375 6.31456 8.375 6.31098 8.375 6.30739C8.375 6.3038 8.375 6.30022 8.375 6.29664C8.375 6.29305 8.375 6.28947 8.375 6.28589C8.375 6.28231 8.375 6.27873 8.375 6.27515C8.375 6.27158 8.375 6.268 8.375 6.26443C8.375 6.26085 8.375 6.25728 8.375 6.25371C8.375 6.25014 8.375 6.24657 8.375 6.243C8.375 6.23943 8.375 6.23587 8.375 6.2323C8.375 6.22874 8.375 6.22517 8.375 6.22161C8.375 6.21805 8.375 6.21449 8.375 6.21093C8.375 6.20737 8.375 6.20381 8.375 6.20026C8.375 6.1967 8.375 6.19315 8.375 6.1896C8.375 6.18605 8.375 6.1825 8.375 6.17895C8.375 6.1754 8.375 6.17185 8.375 6.16831C8.375 6.16476 8.375 6.16122 8.375 6.15767C8.375 6.15413 8.375 6.15059 8.375 6.14705C8.375 6.14352 8.375 6.13998 8.375 6.13644C8.375 6.13291 8.375 6.12938 8.375 6.12584C8.375 6.12231 8.375 6.11878 8.375 6.11526C8.375 6.11173 8.375 6.1082 8.375 6.10468C8.375 6.10115 8.375 6.09763 8.375 6.09411C8.375 6.09059 8.375 6.08707 8.375 6.08356C8.375 6.08004 8.375 6.07653 8.375 6.07301C8.375 6.0695 8.375 6.06599 8.375 6.06248C8.375 6.05897 8.375 6.05546 8.375 6.05196C8.375 6.04845 8.375 6.04495 8.375 6.04145C8.375 6.03795 8.375 6.03445 8.375 6.03095C8.375 6.02745 8.375 6.02396 8.375 6.02047C8.375 6.01697 8.375 6.01348 8.375 6.00999C8.375 6.0065 8.375 6.00302 8.375 5.99953C8.375 5.99605 8.375 5.99256 8.375 5.98908C8.375 5.9856 8.375 5.98212 8.375 5.97865C8.375 5.97517 8.375 5.9717 8.375 5.96822C8.375 5.96475 8.375 5.96128 8.375 5.95781C8.375 5.95434 8.375 5.95088 8.375 5.94741C8.375 5.94395 8.375 5.94049 8.375 5.93703C8.375 5.93357 8.375 5.93011 8.375 5.92666C8.375 5.9232 8.375 5.91975 8.375 5.9163C8.375 5.91285 8.375 5.9094 8.375 5.90595C8.375 5.90251 8.375 5.89906 8.375 5.89562C8.375 5.89218 8.375 5.88874 8.375 5.8853C8.375 5.88187 8.375 5.87843 8.375 5.875H7.625C7.625 5.87843 7.625 5.88187 7.625 5.8853C7.625 5.88874 7.625 5.89218 7.625 5.89562C7.625 5.89906 7.625 5.90251 7.625 5.90595C7.625 5.9094 7.625 5.91285 7.625 5.9163C7.625 5.91975 7.625 5.9232 7.625 5.92666C7.625 5.93011 7.625 5.93357 7.625 5.93703C7.625 5.94049 7.625 5.94395 7.625 5.94741C7.625 5.95088 7.625 5.95434 7.625 5.95781C7.625 5.96128 7.625 5.96475 7.625 5.96822C7.625 5.9717 7.625 5.97517 7.625 5.97865C7.625 5.98212 7.625 5.9856 7.625 5.98908C7.625 5.99256 7.625 5.99605 7.625 5.99953C7.625 6.00302 7.625 6.0065 7.625 6.00999C7.625 6.01348 7.625 6.01697 7.625 6.02047C7.625 6.02396 7.625 6.02745 7.625 6.03095C7.625 6.03445 7.625 6.03795 7.625 6.04145C7.625 6.04495 7.625 6.04845 7.625 6.05196C7.625 6.05546 7.625 6.05897 7.625 6.06248C7.625 6.06599 7.625 6.0695 7.625 6.07301C7.625 6.07653 7.625 6.08004 7.625 6.08356C7.625 6.08707 7.625 6.09059 7.625 6.09411C7.625 6.09763 7.625 6.10115 7.625 6.10468C7.625 6.1082 7.625 6.11173 7.625 6.11526C7.625 6.11878 7.625 6.12231 7.625 6.12584C7.625 6.12938 7.625 6.13291 7.625 6.13644C7.625 6.13998 7.625 6.14352 7.625 6.14705C7.625 6.15059 7.625 6.15413 7.625 6.15767C7.625 6.16122 7.625 6.16476 7.625 6.16831C7.625 6.17185 7.625 6.1754 7.625 6.17895C7.625 6.1825 7.625 6.18605 7.625 6.1896C7.625 6.19315 7.625 6.1967 7.625 6.20026C7.625 6.20381 7.625 6.20737 7.625 6.21093C7.625 6.21449 7.625 6.21805 7.625 6.22161C7.625 6.22517 7.625 6.22874 7.625 6.2323C7.625 6.23587 7.625 6.23943 7.625 6.243C7.625 6.24657 7.625 6.25014 7.625 6.25371C7.625 6.25728 7.625 6.26085 7.625 6.26443C7.625 6.268 7.625 6.27158 7.625 6.27515C7.625 6.27873 7.625 6.28231 7.625 6.28589C7.625 6.28947 7.625 6.29305 7.625 6.29664C7.625 6.30022 7.625 6.3038 7.625 6.30739C7.625 6.31098 7.625 6.31456 7.625 6.31815C7.625 6.32174 7.625 6.32533 7.625 6.32892C7.625 6.33251 7.625 6.33611 7.625 6.3397C7.625 6.34329 7.625 6.34689 7.625 6.35049C7.625 6.35408 7.625 6.35768 7.625 6.36128C7.625 6.36488 7.625 6.36848 7.625 6.37208C7.625 6.37569 7.625 6.37929 7.625 6.38289C7.625 6.3865 7.625 6.39011 7.625 6.39371C7.625 6.39732 7.625 6.40093 7.625 6.40454C7.625 6.40815 7.625 6.41176 7.625 6.41537C7.625 6.41898 7.625 6.4226 7.625 6.42621C7.625 6.42983 7.625 6.43344 7.625 6.43706C7.625 6.44067 7.625 6.44429 7.625 6.44791C7.625 6.45153 7.625 6.45515 7.625 6.45877C7.625 6.46239 7.625 6.46602 7.625 6.46964C7.625 6.47326 7.625 6.47689 7.625 6.48051C7.625 6.48414 7.625 6.48777 7.625 6.49139C7.625 6.49502 7.625 6.49865 7.625 6.50228C7.625 6.50591 7.625 6.50954 7.625 6.51317C7.625 6.5168 7.625 6.52044 7.625 6.52407C7.625 6.5277 7.625 6.53134 7.625 6.53497C7.625 6.53861 7.625 6.54225 7.625 6.54588C7.625 6.54952 7.625 6.55316 7.625 6.5568C7.625 6.56044 7.625 6.56408 7.625 6.56772C7.625 6.57136 7.625 6.57501 7.625 6.57865C7.625 6.58229 7.625 6.58593 7.625 6.58958C7.625 6.59322 7.625 6.59687 7.625 6.60052C7.625 6.60416 7.625 6.60781 7.625 6.61146C7.625 6.61511 7.625 6.61875 7.625 6.6224C7.625 6.62605 7.625 6.6297 7.625 6.63335C7.625 6.63701 7.625 6.64066 7.625 6.64431C7.625 6.64796 7.625 6.65162 7.625 6.65527C7.625 6.65892 7.625 6.66258 7.625 6.66623C7.625 6.66989 7.625 6.67355 7.625 6.6772C7.625 6.68086 7.625 6.68452 7.625 6.68817C7.625 6.69183 7.625 6.69549 7.625 6.69915C7.625 6.70281 7.625 6.70647 7.625 6.71013C7.625 6.71379 7.625 6.71745 7.625 6.72111C7.625 6.72478 7.625 6.72844 7.625 6.7321C7.625 6.73576 7.625 6.73943 7.625 6.74309C7.625 6.74675 7.625 6.75042 7.625 6.75408C7.625 6.75775 7.625 6.76141 7.625 6.76508C7.625 6.76875 7.625 6.77241 7.625 6.77608C7.625 6.77975 7.625 6.78341 7.625 6.78708C7.625 6.79075 7.625 6.79442 7.625 6.79809C7.625 6.80176 7.625 6.80542 7.625 6.80909C7.625 6.81276 7.625 6.81643 7.625 6.8201C7.625 6.82377 7.625 6.82744 7.625 6.83112C7.625 6.83479 7.625 6.83846 7.625 6.84213C7.625 6.8458 7.625 6.84947 7.625 6.85315C7.625 6.85682 7.625 6.86049 7.625 6.86416C7.625 6.86784 7.625 6.87151 7.625 6.87518C7.625 6.87886 7.625 6.88253 7.625 6.8862C7.625 6.88988 7.625 6.89355 7.625 6.89723C7.625 6.9009 7.625 6.90458 7.625 6.90825C7.625 6.91193 7.625 6.9156 7.625 6.91928C7.625 6.92295 7.625 6.92663 7.625 6.9303C7.625 6.93398 7.625 6.93765 7.625 6.94133C7.625 6.945 7.625 6.94868 7.625 6.95236C7.625 6.95603 7.625 6.95971 7.625 6.96339C7.625 6.96706 7.625 6.97074 7.625 6.97441C7.625 6.97809 7.625 6.98177 7.625 6.98544C7.625 6.98912 7.625 6.9928 7.625 6.99647C7.625 7.00015 7.625 7.00383 7.625 7.0075C7.625 7.01118 7.625 7.01486 7.625 7.01853C7.625 7.02221 7.625 7.02589 7.625 7.02956C7.625 7.03324 7.625 7.03692 7.625 7.04059C7.625 7.04427 7.625 7.04795 7.625 7.05162C7.625 7.0553 7.625 7.05897 7.625 7.06265C7.625 7.06633 7.625 7.07 7.625 7.07368C7.625 7.07735 7.625 7.08103 7.625 7.0847C7.625 7.08838 7.625 7.09206 7.625 7.09573C7.625 7.09941 7.625 7.10308 7.625 7.10676C7.625 7.11043 7.625 7.1141 7.625 7.11778C7.625 7.12145 7.625 7.12513 7.625 7.1288C7.625 7.13248 7.625 7.13615 7.625 7.13982C7.625 7.1435 7.625 7.14717 7.625 7.15084C7.625 7.15451 7.625 7.15819 7.625 7.16186C7.625 7.16553 7.625 7.1692 7.625 7.17287C7.625 7.17655 7.625 7.18022 7.625 7.18389C7.625 7.18756 7.625 7.19123 7.625 7.1949C7.625 7.19857 7.625 7.20224 7.625 7.20591C7.625 7.20958 7.625 7.21325 7.625 7.21692C7.625 7.22058 7.625 7.22425 7.625 7.22792C7.625 7.23159 7.625 7.23526 7.625 7.23892C7.625 7.24259 7.625 7.24626 7.625 7.24992C7.625 7.25359 7.625 7.25725 7.625 7.26092C7.625 7.26458 7.625 7.26825 7.625 7.27191C7.625 7.27557 7.625 7.27924 7.625 7.2829C7.625 7.28656 7.625 7.29022 7.625 7.29389C7.625 7.29755 7.625 7.30121 7.625 7.30487C7.625 7.30853 7.625 7.31219 7.625 7.31585C7.625 7.31951 7.625 7.32317 7.625 7.32682C7.625 7.33048 7.625 7.33414 7.625 7.3378C7.625 7.34145 7.625 7.34511 7.625 7.34876C7.625 7.35242 7.625 7.35607 7.625 7.35973C7.625 7.36338 7.625 7.36703 7.625 7.37069C7.625 7.37434 7.625 7.37799 7.625 7.38164C7.625 7.38529 7.625 7.38894 7.625 7.39259C7.625 7.39624 7.625 7.39989 7.625 7.40354C7.625 7.40718 7.625 7.41083 7.625 7.41448C7.625 7.41812 7.625 7.42177 7.625 7.42541C7.625 7.42906 7.625 7.4327 7.625 7.43634C7.625 7.43999 7.625 7.44363 7.625 7.44727C7.625 7.45091 7.625 7.45455 7.625 7.45819C7.625 7.46183 7.625 7.46547 7.625 7.4691C7.625 7.47274 7.625 7.47638 7.625 7.48001C7.625 7.48365 7.625 7.48728 7.625 7.49092C7.625 7.49455 7.625 7.49818 7.625 7.50181C7.625 7.50545 7.625 7.50908 7.625 7.51271C7.625 7.51634 7.625 7.51996 7.625 7.52359C7.625 7.52722 7.625 7.53085 7.625 7.53447C7.625 7.5381 7.625 7.54172 7.625 7.54534C7.625 7.54897 7.625 7.55259 7.625 7.55621C7.625 7.55983 7.625 7.56345 7.625 7.56707C7.625 7.57069 7.625 7.57431 7.625 7.57792C7.625 7.58154 7.625 7.58515 7.625 7.58877C7.625 7.59238 7.625 7.596 7.625 7.59961C7.625 7.60322 7.625 7.60683 7.625 7.61044C7.625 7.61405 7.625 7.61766 7.625 7.62126C7.625 7.62487 7.625 7.62848 7.625 7.63208C7.625 7.63568 7.625 7.63929 7.625 7.64289C7.625 7.64649 7.625 7.65009 7.625 7.65369C7.625 7.65729 7.625 7.66089 7.625 7.66448C7.625 7.66808 7.625 7.67168 7.625 7.67527C7.625 7.67886 7.625 7.68246 7.625 7.68605C7.625 7.68964 7.625 7.69323 7.625 7.69682C7.625 7.7004 7.625 7.70399 7.625 7.70758C7.625 7.71116 7.625 7.71475 7.625 7.71833C7.625 7.72191 7.625 7.72549 7.625 7.72907C7.625 7.73265 7.625 7.73623 7.625 7.73981C7.625 7.74338 7.625 7.74696 7.625 7.75053C7.625 7.75411 7.625 7.75768 7.625 7.76125C7.625 7.76482 7.625 7.76839 7.625 7.77196C7.625 7.77553 7.625 7.77909 7.625 7.78266C7.625 7.78622 7.625 7.78978 7.625 7.79335C7.625 7.79691 7.625 7.80047 7.625 7.80403C7.625 7.80758 7.625 7.81114 7.625 7.81469C7.625 7.81825 7.625 7.8218 7.625 7.82535C7.625 7.82891 7.625 7.83246 7.625 7.836C7.625 7.83955 7.625 7.8431 7.625 7.84664C7.625 7.85019 7.625 7.85373 7.625 7.85727C7.625 7.86081 7.625 7.86435 7.625 7.86789C7.625 7.87143 7.625 7.87497 7.625 7.8785C7.625 7.88203 7.625 7.88557 7.625 7.8891C7.625 7.89263 7.625 7.89616 7.625 7.89968C7.625 7.90321 7.625 7.90674 7.625 7.91026C7.625 7.91378 7.625 7.91731 7.625 7.92083C7.625 7.92435 7.625 7.92786 7.625 7.93138C7.625 7.9349 7.625 7.93841 7.625 7.94192C7.625 7.94543 7.625 7.94894 7.625 7.95245C7.625 7.95596 7.625 7.95947 7.625 7.96297C7.625 7.96648 7.625 7.96998 7.625 7.97348C7.625 7.97698 7.625 7.98048 7.625 7.98398C7.625 7.98747 7.625 7.99097 7.625 7.99446C7.625 7.99795 7.625 8.00144 7.625 8.00493C7.625 8.00842 7.625 8.01191 7.625 8.01539C7.625 8.01888 7.625 8.02236 7.625 8.02584C7.625 8.02932 7.625 8.0328 7.625 8.03627C7.625 8.03975 7.625 8.04322 7.625 8.04669C7.625 8.05017 7.625 8.05364 7.625 8.0571C7.625 8.06057 7.625 8.06404 7.625 8.0675C7.625 8.07096 7.625 8.07442 7.625 8.07788C7.625 8.08134 7.625 8.0848 7.625 8.08825C7.625 8.09171 7.625 8.09516 7.625 8.09861C7.625 8.10206 7.625 8.10551 7.625 8.10895C7.625 8.1124 7.625 8.11584 7.625 8.11928C7.625 8.12272 7.625 8.12616 7.625 8.1296C7.625 8.13303 7.625 8.13647 7.625 8.1399C7.625 8.14333 7.625 8.14676 7.625 8.15019C7.625 8.15361 7.625 8.15704 7.625 8.16046C7.625 8.16388 7.625 8.1673 7.625 8.17072C7.625 8.17414 7.625 8.17755 7.625 8.18097C7.625 8.18438 7.625 8.18779 7.625 8.1912C7.625 8.1946 7.625 8.19801 7.625 8.20141C7.625 8.20482 7.625 8.20822 7.625 8.21161C7.625 8.21501 7.625 8.21841 7.625 8.2218C7.625 8.22519 7.625 8.22858 7.625 8.23197C7.625 8.23536 7.625 8.23874 7.625 8.24213C7.625 8.24551 7.625 8.24889 7.625 8.25227C7.625 8.25565 7.625 8.25902 7.625 8.26239C7.625 8.26577 7.625 8.26914 7.625 8.2725C7.625 8.27587 7.625 8.27924 7.625 8.2826C7.625 8.28596 7.625 8.28932 7.625 8.29268C7.625 8.29603 7.625 8.29939 7.625 8.30274C7.625 8.30609 7.625 8.30944 7.625 8.31278C7.625 8.31613 7.625 8.31947 7.625 8.32281C7.625 8.32615 7.625 8.32949 7.625 8.33283C7.625 8.33616 7.625 8.33949 7.625 8.34282C7.625 8.34615 7.625 8.34948 7.625 8.3528C7.625 8.35613 7.625 8.35945 7.625 8.36277C7.625 8.36609 7.625 8.3694 7.625 8.37271C7.625 8.37603 7.625 8.37934 7.625 8.38264C7.625 8.38595 7.625 8.38925 7.625 8.39256C7.625 8.39586 7.625 8.39916 7.625 8.40245C7.625 8.40575 7.625 8.40904 7.625 8.41233C7.625 8.41562 7.625 8.4189 7.625 8.42219C7.625 8.42547 7.625 8.42875 7.625 8.43203C7.625 8.43531 7.625 8.43858 7.625 8.44185C7.625 8.44513 7.625 8.4484 7.625 8.45166C7.625 8.45493 7.625 8.45819 7.625 8.46145C7.625 8.46471 7.625 8.46797 7.625 8.47122C7.625 8.47447 7.625 8.47772 7.625 8.48097C7.625 8.48422 7.625 8.48746 7.625 8.49071C7.625 8.49395 7.625 8.49718 7.625 8.50042C7.625 8.50365 7.625 8.50689 7.625 8.51012C7.625 8.51334 7.625 8.51657 7.625 8.51979C7.625 8.52301 7.625 8.52623 7.625 8.52945C7.625 8.53267 7.625 8.53588 7.625 8.53909C7.625 8.5423 7.625 8.5455 7.625 8.54871C7.625 8.55191 7.625 8.55511 7.625 8.55831C7.625 8.5615 7.625 8.5647 7.625 8.56789C7.625 8.57108 7.625 8.57426 7.625 8.57745C7.625 8.58063 7.625 8.58381 7.625 8.58699C7.625 8.59017 7.625 8.59334 7.625 8.59651C7.625 8.59968 7.625 8.60285 7.625 8.60601C7.625 8.60917 7.625 8.61233 7.625 8.61549C7.625 8.61865 7.625 8.6218 7.625 8.62495C7.625 8.6281 7.625 8.63125 7.625 8.63439C7.625 8.63753 7.625 8.64067 7.625 8.64381C7.625 8.64695 7.625 8.65008 7.625 8.65321C7.625 8.65634 7.625 8.65946 7.625 8.66258C7.625 8.66571 7.625 8.66883 7.625 8.67194C7.625 8.67506 7.625 8.67817 7.625 8.68128C7.625 8.68438 7.625 8.68749 7.625 8.69059C7.625 8.69369 7.625 8.69679 7.625 8.69988C7.625 8.70298 7.625 8.70607 7.625 8.70915C7.625 8.71224 7.625 8.71532 7.625 8.7184C7.625 8.72148 7.625 8.72456 7.625 8.72763C7.625 8.7307 7.625 8.73377 7.625 8.73683C7.625 8.7399 7.625 8.74296 7.625 8.74602C7.625 8.74907 7.625 8.75213 7.625 8.75518C7.625 8.75823 7.625 8.76127 7.625 8.76432C7.625 8.76736 7.625 8.7704 7.625 8.77343C7.625 8.77647 7.625 8.7795 7.625 8.78252C7.625 8.78555 7.625 8.78857 7.625 8.79159C7.625 8.79461 7.625 8.79763 7.625 8.80064C7.625 8.80365 7.625 8.80666 7.625 8.80967C7.625 8.81267 7.625 8.81567 7.625 8.81867C7.625 8.82166 7.625 8.82466 7.625 8.82765C7.625 8.83063 7.625 8.83362 7.625 8.8366C7.625 8.83958 7.625 8.84256 7.625 8.84553C7.625 8.8485 7.625 8.85147 7.625 8.85444C7.625 8.8574 7.625 8.86036 7.625 8.86332C7.625 8.86628 7.625 8.86923 7.625 8.87218C7.625 8.87513 7.625 8.87808 7.625 8.88102C7.625 8.88396 7.625 8.8869 7.625 8.88983C7.625 8.89276 7.625 8.89569 7.625 8.89861C7.625 8.90154 7.625 8.90446 7.625 8.90738C7.625 8.91029 7.625 8.91321 7.625 8.91611C7.625 8.91902 7.625 8.92193 7.625 8.92483C7.625 8.92773 7.625 8.93062 7.625 8.93352C7.625 8.93641 7.625 8.9393 7.625 8.94218C7.625 8.94506 7.625 8.94794 7.625 8.95082C7.625 8.95369 7.625 8.95656 7.625 8.95943C7.625 8.9623 7.625 8.96516 7.625 8.96802C7.625 8.97087 7.625 8.97373 7.625 8.97658C7.625 8.97943 7.625 8.98227 7.625 8.98511C7.625 8.98795 7.625 8.99079 7.625 8.99362C7.625 8.99646 7.625 8.99928 7.625 9.00211C7.625 9.00493 7.625 9.00775 7.625 9.01056C7.625 9.01338 7.625 9.01619 7.625 9.019C7.625 9.0218 7.625 9.0246 7.625 9.0274C7.625 9.0302 7.625 9.03299 7.625 9.03578C7.625 9.03857 7.625 9.04135 7.625 9.04413C7.625 9.04691 7.625 9.04969 7.625 9.05246C7.625 9.05523 7.625 9.05799 7.625 9.06076C7.625 9.06352 7.625 9.06627 7.625 9.06903C7.625 9.07178 7.625 9.07453 7.625 9.07727C7.625 9.08002 7.625 9.08275 7.625 9.08549C7.625 9.08822 7.625 9.09095 7.625 9.09368C7.625 9.0964 7.625 9.09912 7.625 9.10184C7.625 9.10456 7.625 9.10727 7.625 9.10997C7.625 9.11268 7.625 9.11538 7.625 9.11808C7.625 9.12078 7.625 9.12347 7.625 9.12616C7.625 9.12885 7.625 9.13153 7.625 9.13421C7.625 9.13689 7.625 9.13956 7.625 9.14223C7.625 9.1449 7.625 9.14757 7.625 9.15023C7.625 9.15289 7.625 9.15554 7.625 9.15819C7.625 9.16084 7.625 9.16349 7.625 9.16613C7.625 9.16877 7.625 9.1714 7.625 9.17404C7.625 9.17667 7.625 9.17929 7.625 9.18191C7.625 9.18454 7.625 9.18715 7.625 9.18976C7.625 9.19238 7.625 9.19498 7.625 9.19758C7.625 9.20019 7.625 9.20278 7.625 9.20538C7.625 9.20797 7.625 9.21056 7.625 9.21314C7.625 9.21572 7.625 9.2183 7.625 9.22087C7.625 9.22344 7.625 9.22601 7.625 9.22857C7.625 9.23114 7.625 9.23369 7.625 9.23625C7.625 9.2388 7.625 9.24135 7.625 9.24389C7.625 9.24643 7.625 9.24897 7.625 9.2515C7.625 9.25403 7.625 9.25656 7.625 9.25908C7.625 9.26161 7.625 9.26412 7.625 9.26664C7.625 9.26915 7.625 9.27166 7.625 9.27416C7.625 9.27666 7.625 9.27916 7.625 9.28165C7.625 9.28414 7.625 9.28663 7.625 9.28911C7.625 9.29159 7.625 9.29407 7.625 9.29654C7.625 9.29901 7.625 9.30148 7.625 9.30394C7.625 9.3064 7.625 9.30886 7.625 9.31131C7.625 9.31376 7.625 9.3162 7.625 9.31864C7.625 9.32108 7.625 9.32352 7.625 9.32595C7.625 9.32838 7.625 9.3308 7.625 9.33322C7.625 9.33564 7.625 9.33805 7.625 9.34046C7.625 9.34287 7.625 9.34527 7.625 9.34767C7.625 9.35007 7.625 9.35246 7.625 9.35485C7.625 9.35723 7.625 9.35962 7.625 9.36199C7.625 9.36437 7.625 9.36674 7.625 9.36911C7.625 9.37147 7.625 9.37383 7.625 9.37619C7.625 9.37854 7.625 9.38089 7.625 9.38324C7.625 9.38558 7.625 9.38792 7.625 9.39025C7.625 9.39258 7.625 9.39491 7.625 9.39723C7.625 9.39956 7.625 9.40187 7.625 9.40418C7.625 9.4065 7.625 9.4088 7.625 9.4111C7.625 9.4134 7.625 9.4157 7.625 9.41798C7.625 9.42027 7.625 9.42256 7.625 9.42484C7.625 9.42711 7.625 9.42939 7.625 9.43165C7.625 9.43392 7.625 9.43618 7.625 9.43844C7.625 9.44069 7.625 9.44294 7.625 9.44519C7.625 9.44743 7.625 9.44967 7.625 9.4519C7.625 9.45414 7.625 9.45636 7.625 9.45858C7.625 9.46081 7.625 9.46302 7.625 9.46523C7.625 9.46744 7.625 9.46965 7.625 9.47185C7.625 9.47405 7.625 9.47624 7.625 9.47843C7.625 9.48061 7.625 9.4828 7.625 9.48497C7.625 9.48715 7.625 9.48932 7.625 9.49148C7.625 9.49365 7.625 9.4958 7.625 9.49796C7.625 9.50011 7.625 9.50226 7.625 9.5044C7.625 9.50654 7.625 9.50867 7.625 9.5108C7.625 9.51293 7.625 9.51506 7.625 9.51717C7.625 9.51929 7.625 9.5214 7.625 9.52351C7.625 9.52562 7.625 9.52772 7.625 9.52981C7.625 9.5319 7.625 9.53399 7.625 9.53607C7.625 9.53816 7.625 9.54023 7.625 9.5423C7.625 9.54437 7.625 9.54644 7.625 9.5485C7.625 9.55055 7.625 9.55261 7.625 9.55465C7.625 9.5567 7.625 9.55874 7.625 9.56077C7.625 9.56281 7.625 9.56484 7.625 9.56686C7.625 9.56888 7.625 9.5709 7.625 9.57291C7.625 9.57492 7.625 9.57692 7.625 9.57892C7.625 9.58092 7.625 9.58291 7.625 9.58489C7.625 9.58688 7.625 9.58886 7.625 9.59083C7.625 9.5928 7.625 9.59477 7.625 9.59673C7.625 9.59869 7.625 9.60065 7.625 9.6026C7.625 9.60455 7.625 9.60649 7.625 9.60843C7.625 9.61036 7.625 9.61229 7.625 9.61421C7.625 9.61614 7.625 9.61806 7.625 9.61997C7.625 9.62188 7.625 9.62378 7.625 9.62568C7.625 9.62758 7.625 9.62947 7.625 9.63136C7.625 9.63325 7.625 9.63513 7.625 9.637C7.625 9.63887 7.625 9.64074 7.625 9.6426C7.625 9.64446 7.625 9.64632 7.625 9.64816C7.625 9.65001 7.625 9.65185 7.625 9.65369C7.625 9.65553 7.625 9.65735 7.625 9.65918C7.625 9.661 7.625 9.66282 7.625 9.66463C7.625 9.66644 7.625 9.66824 7.625 9.67004C7.625 9.67183 7.625 9.67362 7.625 9.67541C7.625 9.67719 7.625 9.67897 7.625 9.68074C7.625 9.68251 7.625 9.68427 7.625 9.68603C7.625 9.68779 7.625 9.68954 7.625 9.69129C7.625 9.69303 7.625 9.69477 7.625 9.6965C7.625 9.69823 7.625 9.69996 7.625 9.70168C7.625 9.70339 7.625 9.70511 7.625 9.70681C7.625 9.70852 7.625 9.71022 7.625 9.71191C7.625 9.7136 7.625 9.71529 7.625 9.71696C7.625 9.71864 7.625 9.72031 7.625 9.72198C7.625 9.72365 7.625 9.7253 7.625 9.72696C7.625 9.72861 7.625 9.73025 7.625 9.73189C7.625 9.73353 7.625 9.73516 7.625 9.73679C7.625 9.73841 7.625 9.74003 7.625 9.74164C7.625 9.74326 7.625 9.74486 7.625 9.74646C7.625 9.74806 7.625 9.74965 7.625 9.75123C7.625 9.75282 7.625 9.75439 7.625 9.75597C7.625 9.75754 7.625 9.7591 7.625 9.76066C7.625 9.76221 7.625 9.76376 7.625 9.76531C7.625 9.76685 7.625 9.76839 7.625 9.76992C7.625 9.77145 7.625 9.77297 7.625 9.77449C7.625 9.776 7.625 9.77751 7.625 9.77901C7.625 9.78051 7.625 9.78201 7.625 9.7835C7.625 9.78499 7.625 9.78647 7.625 9.78794C7.625 9.78941 7.625 9.79088 7.625 9.79234C7.625 9.7938 7.625 9.79525 7.625 9.7967C7.625 9.79815 7.625 9.79959 7.625 9.80102C7.625 9.80245 7.625 9.80387 7.625 9.80529C7.625 9.80671 7.625 9.80812 7.625 9.80952C7.625 9.81093 7.625 9.81232 7.625 9.81371C7.625 9.8151 7.625 9.81649 7.625 9.81786C7.625 9.81924 7.625 9.8206 7.625 9.82196C7.625 9.82333 7.625 9.82468 7.625 9.82603C7.625 9.82737 7.625 9.82871 7.625 9.83004C7.625 9.83138 7.625 9.8327 7.625 9.83402C7.625 9.83533 7.625 9.83665 7.625 9.83795C7.625 9.83925 7.625 9.84055 7.625 9.84184C7.625 9.84312 7.625 9.84441 7.625 9.84568C7.625 9.84695 7.625 9.84822 7.625 9.84948C7.625 9.85074 7.625 9.85199 7.625 9.85324C7.625 9.85448 7.625 9.85572 7.625 9.85695C7.625 9.85818 7.625 9.8594 7.625 9.86062C7.625 9.86183 7.625 9.86304 7.625 9.86424C7.625 9.86544 7.625 9.86663 7.625 9.86782C7.625 9.869 7.625 9.87018 7.625 9.87135C7.625 9.87252 7.625 9.87369 7.625 9.87484C7.625 9.876 7.625 9.87715 7.625 9.87829C7.625 9.87943 7.625 9.88056 7.625 9.88169C7.625 9.88281 7.625 9.88393 7.625 9.88504C7.625 9.88615 7.625 9.88726 7.625 9.88835C7.625 9.88945 7.625 9.89053 7.625 9.89161C7.625 9.8927 7.625 9.89377 7.625 9.89483C7.625 9.8959 7.625 9.89696 7.625 9.89801C7.625 9.89906 7.625 9.9001 7.625 9.90113C7.625 9.90217 7.625 9.90319 7.625 9.90421C7.625 9.90523 7.625 9.90624 7.625 9.90725C7.625 9.90825 7.625 9.90925 7.625 9.91024C7.625 9.91123 7.625 9.91221 7.625 9.91318C7.625 9.91415 7.625 9.91512 7.625 9.91608C7.625 9.91703 7.625 9.91798 7.625 9.91893C7.625 9.91987 7.625 9.9208 7.625 9.92173C7.625 9.92265 7.625 9.92357 7.625 9.92448C7.625 9.92539 7.625 9.9263 7.625 9.92719C7.625 9.92809 7.625 9.92897 7.625 9.92985C7.625 9.93073 7.625 9.9316 7.625 9.93247C7.625 9.93333 7.625 9.93419 7.625 9.93503C7.625 9.93588 7.625 9.93672 7.625 9.93755C7.625 9.93839 7.625 9.93921 7.625 9.94003C7.625 9.94084 7.625 9.94165 7.625 9.94245C7.625 9.94325 7.625 9.94404 7.625 9.94483C7.625 9.94561 7.625 9.94639 7.625 9.94715C7.625 9.94792 7.625 9.94868 7.625 9.94943C7.625 9.95018 7.625 9.95093 7.625 9.95166C7.625 9.9524 7.625 9.95313 7.625 9.95385C7.625 9.95457 7.625 9.95528 7.625 9.95598C7.625 9.95669 7.625 9.95738 7.625 9.95807C7.625 9.95875 7.625 9.95943 7.625 9.9601C7.625 9.96077 7.625 9.96144 7.625 9.96209C7.625 9.96275 7.625 9.96339 7.625 9.96403C7.625 9.96467 7.625 9.9653 7.625 9.96592C7.625 9.96654 7.625 9.96715 7.625 9.96776C7.625 9.96836 7.625 9.96896 7.625 9.96955C7.625 9.97014 7.625 9.97072 7.625 9.97129C7.625 9.97186 7.625 9.97243 7.625 9.97298C7.625 9.97354 7.625 9.97408 7.625 9.97462C7.625 9.97516 7.625 9.97569 7.625 9.97621C7.625 9.97674 7.625 9.97725 7.625 9.97775C7.625 9.97826 7.625 9.97876 7.625 9.97924C7.625 9.97973 7.625 9.98021 7.625 9.98068C7.625 9.98116 7.625 9.98162 7.625 9.98207C7.625 9.98253 7.625 9.98297 7.625 9.98341C7.625 9.98385 7.625 9.98428 7.625 9.9847C7.625 9.98512 7.625 9.98553 7.625 9.98594C7.625 9.98634 7.625 9.98674 7.625 9.98712C7.625 9.98751 7.625 9.98789 7.625 9.98826C7.625 9.98863 7.625 9.98899 7.625 9.98934C7.625 9.98969 7.625 9.99004 7.625 9.99037C7.625 9.99071 7.625 9.99103 7.625 9.99135C7.625 9.99167 7.625 9.99198 7.625 9.99228C7.625 9.99258 7.625 9.99287 7.625 9.99315C7.625 9.99344 7.625 9.99371 7.625 9.99398C7.625 9.99424 7.625 9.9945 7.625 9.99475C7.625 9.995 7.625 9.99524 7.625 9.99547C7.625 9.9957 7.625 9.99592 7.625 9.99614C7.625 9.99635 7.625 9.99656 7.625 9.99675C7.625 9.99695 7.625 9.99713 7.625 9.99731C7.625 9.99749 7.625 9.99766 7.625 9.99782C7.625 9.99798 7.625 9.99813 7.625 9.99828C7.625 9.99842 7.625 9.99855 7.625 9.99868C7.625 9.99881 7.625 9.99892 7.625 9.99903C7.625 9.99914 7.625 9.99924 7.625 9.99933C7.625 9.99942 7.625 9.9995 7.625 9.99957C7.625 9.99964 7.625 9.9997 7.625 9.99976C7.625 9.99981 7.625 9.99986 7.625 9.99989C7.625 9.99993 7.625 9.99996 7.625 9.99997C7.625 9.99999 7.625 10 8 10ZM8 9.625H0.5V10.375H8V9.625ZM0.875 10V2.5H0.125V10H0.875ZM0.5 2.875H5.375V2.125H0.5V2.875Z" fill="#0076E1"/>
</svg>
