<svg width="16" height="16" viewBox="0 0 16 16" fill="none" xmlns="http://www.w3.org/2000/svg">
<path d="M5.30078 8.12811L9.30078 8.12811M11.8008 4.62582L9.30078 8.12352L11.8008 11.6304M15.3008 3.12354C15.3008 4.22754 14.4048 5.12354 13.3008 5.12354C12.1968 5.12354 11.3008 4.22754 11.3008 3.12354C11.3008 2.01954 12.1968 1.12354 13.3008 1.12354C14.4048 1.12354 15.3008 2.01954 15.3008 3.12354ZM15.3008 13.1235C15.3008 14.2275 14.4048 15.1235 13.3008 15.1235C12.1968 15.1235 11.3008 14.2275 11.3008 13.1235C11.3008 12.0195 12.1968 11.1235 13.3008 11.1235C14.4048 11.1235 15.3008 12.0195 15.3008 13.1235ZM5.30078 8.12354C5.30078 9.22754 4.40478 10.1235 3.30078 10.1235C2.19678 10.1235 1.30078 9.22754 1.30078 8.12354C1.30078 7.01953 2.19678 6.12353 3.30078 6.12353C4.40478 6.12353 5.30078 7.01953 5.30078 8.12354Z" stroke="#0076E1" stroke-linecap="square"/>
</svg>
