<svg width="18" height="18" viewBox="0 0 18 18" fill="none" xmlns="http://www.w3.org/2000/svg">
<path d="M1 9L0.646447 8.64645C0.451184 8.84171 0.451184 9.15829 0.646447 9.35355L1 9ZM9 17L8.64645 17.3536C8.84171 17.5488 9.15829 17.5488 9.35355 17.3536L9 17ZM17 9L17.3536 9.35355C17.4473 9.25979 17.5 9.13261 17.5 9H17ZM9 1V0.5C8.86739 0.5 8.74022 0.552678 8.64645 0.646447L9 1ZM0.646447 9.35355L8.64645 17.3536L9.35355 16.6464L1.35355 8.64645L0.646447 9.35355ZM9.35355 17.3536L17.3536 9.35355L16.6464 8.64645L8.64645 16.6464L9.35355 17.3536ZM17.5 9V2.14286H16.5V9H17.5ZM15.8571 0.5H9V1.5H15.8571V0.5ZM8.64645 0.646447L0.646447 8.64645L1.35355 9.35355L9.35355 1.35355L8.64645 0.646447ZM17.5 2.14286C17.5 1.23553 16.7645 0.5 15.8571 0.5V1.5C16.2122 1.5 16.5 1.78782 16.5 2.14286H17.5ZM12.4286 6.21429C12.0735 6.21429 11.7857 5.92647 11.7857 5.57143H10.7857C10.7857 6.47875 11.5212 7.21429 12.4286 7.21429V6.21429ZM13.0714 5.57143C13.0714 5.92647 12.7836 6.21429 12.4286 6.21429V7.21429C13.3359 7.21429 14.0714 6.47875 14.0714 5.57143H13.0714ZM12.4286 4.92857C12.7836 4.92857 13.0714 5.21639 13.0714 5.57143H14.0714C14.0714 4.6641 13.3359 3.92857 12.4286 3.92857V4.92857ZM12.4286 3.92857C11.5212 3.92857 10.7857 4.6641 10.7857 5.57143H11.7857C11.7857 5.21639 12.0735 4.92857 12.4286 4.92857V3.92857Z" fill="#888888"/>
</svg>
