<svg width="16" height="16" viewBox="0 0 16 16" fill="none" xmlns="http://www.w3.org/2000/svg">
<path d="M1 8L0.646447 7.64645C0.451184 7.84171 0.451184 8.15829 0.646447 8.35355L1 8ZM8 15L7.64645 15.3536C7.84171 15.5488 8.15829 15.5488 8.35355 15.3536L8 15ZM15 8L15.3536 8.35355C15.4473 8.25979 15.5 8.13261 15.5 8H15ZM8 1V0.5C7.86739 0.5 7.74021 0.552678 7.64645 0.646447L8 1ZM0.646447 8.35355L7.64645 15.3536L8.35355 14.6464L1.35355 7.64645L0.646447 8.35355ZM8.35355 15.3536L15.3536 8.35355L14.6464 7.64645L7.64645 14.6464L8.35355 15.3536ZM15.5 8V2H14.5V8H15.5ZM14 0.5H8V1.5H14V0.5ZM7.64645 0.646447L0.646447 7.64645L1.35355 8.35355L8.35355 1.35355L7.64645 0.646447ZM15.5 2C15.5 1.17157 14.8284 0.5 14 0.5V1.5C14.2761 1.5 14.5 1.72386 14.5 2H15.5ZM11 5.5C10.7239 5.5 10.5 5.27614 10.5 5H9.5C9.5 5.82843 10.1716 6.5 11 6.5V5.5ZM11.5 5C11.5 5.27614 11.2761 5.5 11 5.5V6.5C11.8284 6.5 12.5 5.82843 12.5 5H11.5ZM11 4.5C11.2761 4.5 11.5 4.72386 11.5 5H12.5C12.5 4.17157 11.8284 3.5 11 3.5V4.5ZM11 3.5C10.1716 3.5 9.5 4.17157 9.5 5H10.5C10.5 4.72386 10.7239 4.5 11 4.5V3.5Z" fill="#0076E1"/>
</svg>
