<svg width="3" height="14" viewBox="0 0 3 14" fill="none" xmlns="http://www.w3.org/2000/svg">
<path d="M1.41667 2.8184C2.19907 2.8184 2.83333 2.18748 2.83333 1.4092C2.83333 0.63092 2.19907 0 1.41667 0C0.634264 0 0 0.63092 0 1.4092C0 2.18748 0.634264 2.8184 1.41667 2.8184Z" fill="#7C879B"/>
<path d="M1.41667 8.37101C2.19907 8.37101 2.83333 7.74009 2.83333 6.96181C2.83333 6.18353 2.19907 5.55261 1.41667 5.55261C0.634264 5.55261 0 6.18353 0 6.96181C0 7.74009 0.634264 8.37101 1.41667 8.37101Z" fill="#7C879B"/>
<path d="M1.41667 13.9274C2.19907 13.9274 2.83333 13.2965 2.83333 12.5182C2.83333 11.7399 2.19907 11.109 1.41667 11.109C0.634264 11.109 0 11.7399 0 12.5182C0 13.2965 0.634264 13.9274 1.41667 13.9274Z" fill="#7C879B"/>
</svg>
