<svg width="40" height="40" viewBox="0 0 40 40" fill="none" xmlns="http://www.w3.org/2000/svg">
<path d="M19.9999 3.33301C10.8166 3.33301 3.33325 10.8163 3.33325 19.9997C3.33325 29.183 10.8166 36.6663 19.9999 36.6663C29.1833 36.6663 36.6666 29.183 36.6666 19.9997C36.6666 10.8163 29.1833 3.33301 19.9999 3.33301ZM27.9666 16.1663L18.5166 25.6163C18.2833 25.8497 17.9666 25.983 17.6333 25.983C17.2999 25.983 16.9833 25.8497 16.7499 25.6163L12.0333 20.8997C11.5499 20.4163 11.5499 19.6163 12.0333 19.133C12.5166 18.6497 13.3166 18.6497 13.7999 19.133L17.6333 22.9663L26.1999 14.3997C26.6833 13.9163 27.4833 13.9163 27.9666 14.3997C28.4499 14.883 28.4499 15.6663 27.9666 16.1663Z" fill="#36B37E"/>
</svg>
