<svg width="16" height="16" viewBox="0 0 16 16" fill="none" xmlns="http://www.w3.org/2000/svg">
<path d="M14 3.98665C11.78 3.76665 9.54667 3.65332 7.32 3.65332C6 3.65332 4.68 3.71999 3.36 3.85332L2 3.98665" stroke="#E6147F" stroke-linecap="round" stroke-linejoin="round"/>
<path d="M5.6665 3.31301L5.81317 2.43967C5.91984 1.80634 5.99984 1.33301 7.1265 1.33301H8.87317C9.99984 1.33301 10.0865 1.83301 10.1865 2.44634L10.3332 3.31301" stroke="#E6147F" stroke-linecap="round" stroke-linejoin="round"/>
<path d="M12.5664 6.09375L12.1331 12.8071C12.0598 13.8537 11.9998 14.6671 10.1398 14.6671H5.85977C3.99977 14.6671 3.93977 13.8537 3.86644 12.8071L3.43311 6.09375" stroke="#E6147F" stroke-linecap="round" stroke-linejoin="round"/>
<path d="M6.88672 11H9.10672" stroke="#E6147F" stroke-linecap="round" stroke-linejoin="round"/>
<path d="M6.3335 8.33301H9.66683" stroke="#E6147F" stroke-linecap="round" stroke-linejoin="round"/>
</svg>
