<svg width="8" height="5" viewBox="0 0 8 5" fill="none" xmlns="http://www.w3.org/2000/svg">
<path d="M3.68786 0.135751L0.127813 3.92318C0.0459575 4.01061 0 4.12899 0 4.2524C0 4.3758 0.0459575 4.49418 0.127813 4.58162L0.389922 4.86053C0.47207 4.9477 0.583359 4.99665 0.699384 4.99665C0.81541 4.99665 0.926699 4.9477 1.00885 4.86053L3.99846 1.68004L6.99116 4.86402C7.07336 4.95111 7.18464 5 7.30065 5C7.41666 5 7.52795 4.95111 7.61015 4.86402L7.87219 4.5851C7.95405 4.49767 8 4.37929 8 4.25588C8 4.13248 7.95405 4.0141 7.87219 3.92666L4.30893 0.135751C4.22628 0.0487189 4.11469 -0.000101089 3.9984 -0.000101089C3.88211 -0.000101089 3.77051 0.0487189 3.68786 0.135751Z" fill="#9B9B9B"/>
</svg>
