<svg width="26" height="16" viewBox="0 0 26 16" fill="none" xmlns="http://www.w3.org/2000/svg">
<path d="M5.91131 9.23604C3.93841 9.23604 0 10.2188 0 12.1917V14.4084H8.19456C8.17978 14.305 8.165 14.2089 8.15761 14.1055C8.12806 13.9651 8.12806 13.8173 8.12806 13.6695C8.12806 13.4405 8.15022 13.2188 8.18717 13.0045C8.28323 12.3469 8.52707 11.7336 8.86697 11.2016C9.02214 10.9947 9.17731 10.8025 9.34726 10.6252L9.36204 10.603C9.53199 10.4257 9.72411 10.2631 9.92362 10.1154C9.42854 9.88629 8.86697 9.70895 8.32017 9.56855C7.44087 9.34688 6.56895 9.23604 5.91131 9.23604ZM6.68717 13.0045H1.40394V12.1917C1.40394 11.7188 3.71674 10.64 5.91131 10.64C6.41377 10.64 6.91624 10.7139 7.38914 10.7952C7.01968 11.4528 6.78323 12.1917 6.68717 13.0045ZM5.91131 8.49713C7.54431 8.49713 8.86697 7.17447 8.86697 5.54147C8.86697 3.90847 7.54431 2.58582 5.91131 2.58582C4.27831 2.58582 2.95566 3.90847 2.95566 5.54147C2.95566 7.17447 4.27831 8.49713 5.91131 8.49713ZM5.91131 4.06364C6.30326 4.06364 6.67915 4.21934 6.9563 4.49649C7.23344 4.77364 7.38914 5.14953 7.38914 5.54147C7.38914 5.93342 7.23344 6.30931 6.9563 6.58645C6.67915 6.8636 6.30326 7.0193 5.91131 7.0193C5.09112 7.0193 4.43349 6.36167 4.43349 5.54147C4.43349 4.72128 5.09851 4.06364 5.91131 4.06364ZM13.3005 15.8863V14.4084H10.3448V12.9306H13.3005V11.4528L15.5172 13.6695L13.3005 15.8863Z" fill="#0076E1"/>
<path d="M21.0705 14.8964L18.7947 12.4136L19.7547 11.4536L21.0705 12.7695L24.0416 9.79847L25.0016 10.9654L21.0705 14.8964ZM17.5947 14.8964H11.1395C10.2209 14.8964 9.48438 14.1598 9.48438 13.2412V1.65505C9.48438 0.736428 10.2209 -0.00012207 11.1395 -0.00012207H22.7257C23.6443 -0.00012207 24.3809 0.736428 24.3809 1.65505V8.1102C23.8761 7.82055 23.3216 7.61365 22.7257 7.51434V1.65505H11.1395V13.2412H16.9988C17.0981 13.8371 17.305 14.3916 17.5947 14.8964ZM16.9326 11.5861H12.7947V9.93089H16.9326V11.5861ZM19.1506 8.27572H12.7947V6.62055H21.0705V7.51434C20.3671 7.6302 19.7216 7.89503 19.1506 8.27572ZM21.0705 4.96538H12.7947V3.31021H21.0705" fill="#0076E1"/>
</svg>
