<svg width="19" height="16" viewBox="0 0 19 16" fill="none" xmlns="http://www.w3.org/2000/svg">
<path d="M17.9562 11.9189L11.5645 1.31885C11.306 0.914533 10.95 0.581789 10.5291 0.351301C10.1082 0.120813 9.63604 0 9.15617 0C8.6763 0 8.20416 0.120813 7.78327 0.351301C7.36238 0.581789 7.00629 0.914533 6.74784 1.31885L0.356171 11.9189C0.130382 12.2952 0.00766138 12.7244 0.000347233 13.1633C-0.00696691 13.6021 0.101383 14.0352 0.314504 14.4189C0.560903 14.8507 0.917553 15.2095 1.34801 15.4584C1.77846 15.7073 2.26727 15.8374 2.7645 15.8355H15.5478C16.0418 15.8408 16.5284 15.7157 16.9586 15.4728C17.3887 15.2299 17.7472 14.8779 17.9978 14.4522C18.2172 14.0645 18.329 13.6252 18.3217 13.1799C18.3144 12.7345 18.1882 12.2991 17.9562 11.9189ZM9.15617 12.5022C8.99135 12.5022 8.83024 12.4533 8.69319 12.3617C8.55615 12.2702 8.44934 12.14 8.38627 11.9878C8.3232 11.8355 8.30669 11.6679 8.33885 11.5063C8.371 11.3446 8.45037 11.1961 8.56691 11.0796C8.68346 10.9631 8.83194 10.8837 8.99359 10.8515C9.15525 10.8194 9.3228 10.8359 9.47507 10.899C9.62735 10.962 9.75749 11.0688 9.84906 11.2059C9.94063 11.3429 9.9895 11.504 9.9895 11.6689C9.9895 11.8899 9.90171 12.1018 9.74543 12.2581C9.58914 12.4144 9.37718 12.5022 9.15617 12.5022ZM9.9895 9.16885C9.9895 9.38987 9.90171 9.60183 9.74543 9.75811C9.58914 9.91439 9.37718 10.0022 9.15617 10.0022C8.93516 10.0022 8.7232 9.91439 8.56691 9.75811C8.41063 9.60183 8.32284 9.38987 8.32284 9.16885V5.83552C8.32284 5.61451 8.41063 5.40254 8.56691 5.24626C8.7232 5.08998 8.93516 5.00219 9.15617 5.00219C9.37718 5.00219 9.58914 5.08998 9.74543 5.24626C9.90171 5.40254 9.9895 5.61451 9.9895 5.83552V9.16885Z" fill="#D23412"/>
</svg>
