<svg width="20" height="17" viewBox="0 0 20 17" fill="none" xmlns="http://www.w3.org/2000/svg">
<path d="M18.7999 12.5829L12.4083 1.98292C12.1498 1.5786 11.7937 1.24585 11.3728 1.01536C10.9519 0.784876 10.4798 0.664063 9.99992 0.664062C9.52005 0.664063 9.04791 0.784876 8.62702 1.01536C8.20613 1.24585 7.85004 1.5786 7.59159 1.98292L1.19992 12.5829C0.974132 12.9593 0.851411 13.3885 0.844097 13.8273C0.836783 14.2662 0.945133 14.6992 1.15825 15.0829C1.40465 15.5148 1.7613 15.8735 2.19176 16.1224C2.62221 16.3713 3.11102 16.5015 3.60825 16.4996H16.3916C16.8855 16.5049 17.3722 16.3797 17.8023 16.1369C18.2325 15.894 18.591 15.5419 18.8416 15.1163C19.061 14.7286 19.1728 14.2893 19.1655 13.8439C19.1581 13.3985 19.0319 12.9632 18.7999 12.5829ZM9.99992 13.1663C9.8351 13.1663 9.67399 13.1174 9.53694 13.0258C9.3999 12.9342 9.29309 12.8041 9.23002 12.6518C9.16695 12.4995 9.15044 12.332 9.1826 12.1703C9.21475 12.0087 9.29412 11.8602 9.41066 11.7437C9.52721 11.6271 9.67569 11.5477 9.83734 11.5156C9.999 11.4834 10.1666 11.4999 10.3188 11.563C10.4711 11.6261 10.6012 11.7329 10.6928 11.8699C10.7844 12.007 10.8333 12.1681 10.8333 12.3329C10.8333 12.5539 10.7455 12.7659 10.5892 12.9222C10.4329 13.0785 10.2209 13.1663 9.99992 13.1663ZM10.8333 9.83292C10.8333 10.0539 10.7455 10.2659 10.5892 10.4222C10.4329 10.5785 10.2209 10.6663 9.99992 10.6663C9.77891 10.6663 9.56695 10.5785 9.41066 10.4222C9.25438 10.2659 9.16659 10.0539 9.16659 9.83292V6.49958C9.16659 6.27857 9.25438 6.06661 9.41066 5.91033C9.56695 5.75405 9.77891 5.66625 9.99992 5.66625C10.2209 5.66625 10.4329 5.75405 10.5892 5.91033C10.7455 6.06661 10.8333 6.27857 10.8333 6.49958V9.83292Z" fill="#FFA63D"/>
</svg>
