<svg width="24" height="24" viewBox="0 0 24 24" fill="none" xmlns="http://www.w3.org/2000/svg">
<path d="M5.00049 10H7.00049C9.00049 10 10.0005 9 10.0005 7V5C10.0005 3 9.00049 2 7.00049 2H5.00049C3.00049 2 2.00049 3 2.00049 5V7C2.00049 9 3.00049 10 5.00049 10Z" stroke="white" stroke-width="1.5" stroke-miterlimit="10" stroke-linecap="round" stroke-linejoin="round"/>
<path d="M17.0005 10H19.0005C21.0005 10 22.0005 9 22.0005 7V5C22.0005 3 21.0005 2 19.0005 2H17.0005C15.0005 2 14.0005 3 14.0005 5V7C14.0005 9 15.0005 10 17.0005 10Z" stroke="white" stroke-width="1.5" stroke-miterlimit="10" stroke-linecap="round" stroke-linejoin="round"/>
<path d="M17.0005 22H19.0005C21.0005 22 22.0005 21 22.0005 19V17C22.0005 15 21.0005 14 19.0005 14H17.0005C15.0005 14 14.0005 15 14.0005 17V19C14.0005 21 15.0005 22 17.0005 22Z" stroke="white" stroke-width="1.5" stroke-miterlimit="10" stroke-linecap="round" stroke-linejoin="round"/>
<path d="M5.00049 22H7.00049C9.00049 22 10.0005 21 10.0005 19V17C10.0005 15 9.00049 14 7.00049 14H5.00049C3.00049 14 2.00049 15 2.00049 17V19C2.00049 21 3.00049 22 5.00049 22Z" stroke="white" stroke-width="1.5" stroke-miterlimit="10" stroke-linecap="round" stroke-linejoin="round"/>
</svg>
